<svg version="1.1" viewBox="0.0 0.0 367.40682414698165 316.3622047244094" fill="none" stroke="none" stroke-linecap="square" stroke-miterlimit="10" xmlns:xlink="http://www.w3.org/1999/xlink" xmlns="http://www.w3.org/2000/svg"><clipPath id="p.0"><path d="m0 0l367.40683 0l0 316.3622l-367.40683 0l0 -316.3622z" clip-rule="nonzero"/></clipPath><g clip-path="url(#p.0)"><path fill="#000000" fill-opacity="0.0" d="m0 0l367.40683 0l0 316.3622l-367.40683 0z" fill-rule="evenodd"/><path fill="#000000" fill-opacity="0.0" d="m83.0538 172.37727l0 0c0 -4.06131 3.2923431 -7.353653 7.3536453 -7.353653l118.42657 0c1.9503174 0 3.8207397 0.774765 5.199814 2.153839c1.3790741 1.3790741 2.153839 3.2494965 2.153839 5.199814l0 61.072235c0 4.0612946 -3.2923431 7.3536377 -7.353653 7.3536377l-118.42657 0c-4.061302 0 -7.3536453 -3.2923431 -7.3536453 -7.3536377z" fill-rule="evenodd"/><path stroke="#666666" stroke-width="2.0" stroke-linejoin="round" stroke-linecap="butt" d="m83.0538 172.37727l0 0c0 -4.06131 3.2923431 -7.353653 7.3536453 -7.353653l118.42657 0c1.9503174 0 3.8207397 0.774765 5.199814 2.153839c1.3790741 1.3790741 2.153839 3.2494965 2.153839 5.199814l0 61.072235c0 4.0612946 -3.2923431 7.3536377 -7.353653 7.3536377l-118.42657 0c-4.061302 0 -7.3536453 -3.2923431 -7.3536453 -7.3536377z" fill-rule="evenodd"/><path fill="#666666" d="m108.93348 199.08339q-2.828125 0 -4.71875 -1.8125q-1.890625 -1.8125 -1.890625 -4.65625q0 -2.828125 1.875 -4.625q1.875 -1.8125 4.734375 -1.8125q3.40625 0 5.15625 2.78125l-2.203125 1.203125q-0.421875 -0.65625 -1.1875 -1.140625q-0.75 -0.484375 -1.765625 -0.484375q-1.6875 0 -2.796875 1.171875q-1.09375 1.15625 -1.09375 2.90625q0 1.8125 1.109375 2.953125q1.125 1.140625 2.78125 1.140625q0.84375 0 1.5625 -0.296875q0.71875 -0.296875 1.09375 -0.65625l0 -1.5l-3.28125 0l0 -2.3125l5.9375 0l0 4.78125q-2.109375 2.359375 -5.3125 2.359375zm7.3543854 -0.25l0 -9.015625l2.375 0l0 1.234375q0.484375 -0.59375 1.25 -1.015625q0.78125 -0.4375 1.625 -0.4375l0 2.3125l-0.65625 -0.0625q-0.640625 0 -1.28125 0.3125q-0.640625 0.296875 -0.9375 0.71875l0 5.953125l-2.375 0zm12.122505 0l0 -0.9375q-0.9843826 1.15625 -2.8437576 1.15625q-1.3125 0 -2.234375 -0.828125q-0.90625 -0.828125 -0.90625 -2.15625q0 -1.3125 0.859375 -2.109375q0.875 -0.796875 2.28125 -0.796875q1.9375 0 2.8437576 1.09375l0 -1.203125q0 -0.6875 -0.5468826 -1.09375q-0.53125 -0.421875 -1.421875 -0.421875q-1.5 0 -2.625 1.0625l-0.90625 -1.578125q1.640625 -1.421875 3.9375 -1.421875q1.9062576 0 2.9218826 0.890625q1.015625 0.875 1.015625 2.515625l0 5.828125l-2.375 0zm-1.8906326 -1.375q1.296875 0 1.8906326 -0.796875l0 -1.109375q-0.5937576 -0.78125 -1.8906326 -0.78125q-0.71875 0 -1.21875 0.359375q-0.484375 0.34375 -0.484375 1.0q0 0.625 0.484375 0.984375q0.5 0.34375 1.21875 0.34375zm11.770973 1.59375q-1.734375 0 -2.78125 -1.375l0 4.59375l-2.375 0l0 -12.453125l2.375 0l0 1.140625q1.078125 -1.359375 2.78125 -1.359375q1.78125 0 2.875 1.265625q1.109375 1.25 1.109375 3.453125q0 2.171875 -1.09375 3.453125q-1.078125 1.28125 -2.890625 1.28125zm-0.75 -2.109375q1.03125 0 1.65625 -0.71875q0.625 -0.734375 0.625 -1.90625q0 -1.171875 -0.625 -1.890625q-0.625 -0.71875 -1.65625 -0.71875q-0.578125 0 -1.15625 0.296875q-0.578125 0.296875 -0.875 0.734375l0 3.1875q0.296875 0.421875 0.875 0.71875q0.578125 0.296875 1.15625 0.296875zm12.579712 1.890625l0 -5.484375q0 -1.640625 -1.6874847 -1.640625q-1.234375 0 -2.046875 1.0625l0 6.0625l-2.375 0l0 -12.4375l2.375 0l0 4.609375q0.421875 -0.53125 1.234375 -0.96875q0.8125 -0.4375 1.9374847 -0.4375q1.484375 0 2.203125 0.765625q0.71875 0.75 0.71875 2.0625l0 6.40625l-2.359375 0zm10.789383 0.21875q-2.890625 0 -4.75 -1.828125q-1.859375 -1.84375 -1.859375 -4.609375q0 -1.828125 0.859375 -3.3125q0.875 -1.5 2.390625 -2.3125q1.53125 -0.8125 3.359375 -0.8125q3.4375 0 5.21875 3.046875l-2.28125 1.125q-0.390625 -0.765625 -1.171875 -1.28125q-0.78125 -0.53125 -1.765625 -0.53125q-1.6875 0 -2.796875 1.171875q-1.09375 1.15625 -1.09375 2.90625q0 1.8125 1.109375 2.953125q1.125 1.140625 2.78125 1.140625q0.984375 0 1.765625 -0.515625q0.78125 -0.515625 1.171875 -1.296875l2.28125 1.109375q-1.78125 3.046875 -5.21875 3.046875zm10.926224 0q-2.09375 0 -3.4375 -1.34375q-1.328125 -1.34375 -1.328125 -3.390625q0 -2.046875 1.328125 -3.375q1.34375 -1.34375 3.4375 -1.34375q2.078125 0 3.421875 1.34375q1.34375 1.328125 1.34375 3.375q0 2.078125 -1.34375 3.40625q-1.34375 1.328125 -3.421875 1.328125zm0 -2.109375q1.015625 0 1.65625 -0.734375q0.65625 -0.734375 0.65625 -1.890625q0 -1.125 -0.65625 -1.859375q-0.640625 -0.75 -1.65625 -0.75q-1.0 0 -1.65625 0.71875q-0.640625 0.71875 -0.640625 1.890625q0 1.1875 0.640625 1.90625q0.65625 0.71875 1.65625 0.71875zm12.599319 1.890625l0 -5.453125q0 -1.671875 -1.65625 -1.671875q-1.28125 0 -2.046875 1.0625l0 6.0625l-2.375 0l0 -9.015625l2.375 0l0 1.1875q0.421875 -0.53125 1.21875 -0.96875q0.8125 -0.4375 1.9375 -0.4375q1.484375 0 2.203125 0.78125q0.71875 0.765625 0.71875 2.09375l0 6.359375l-2.375 0zm7.0519714 0l-3.609375 -9.015625l2.53125 0l2.359375 6.265625l2.34375 -6.265625l2.5625 0l-3.625 9.015625l-2.5625 0z" fill-rule="nonzero"/><path fill="#666666" d="m135.67783 220.83339l0 -5.6875q0 -1.4375 -1.34375 -1.4375q-0.625 0 -1.109375 0.34375q-0.484375 0.328125 -0.75 0.703125l0 6.078125l-2.390625 0l0 -5.6875q0 -1.4375 -1.34375 -1.4375q-0.609375 0 -1.1093826 0.34375q-0.484375 0.34375 -0.75 0.71875l0 6.0625l-2.375 0l0 -9.015625l2.375 0l0 1.1875q0.3125 -0.515625 1.1718826 -0.953125q0.875 -0.453125 1.78125 -0.453125q1.953125 0 2.5 1.640625q0.421875 -0.6875 1.28125 -1.15625q0.859375 -0.484375 1.8125 -0.484375q2.640625 0 2.640625 2.71875l0 6.515625l-2.390625 0zm8.910751 0.21875q-2.09375 0 -3.4375 -1.34375q-1.328125 -1.34375 -1.328125 -3.390625q0 -2.046875 1.328125 -3.375q1.34375 -1.34375 3.4375 -1.34375q2.078125 0 3.421875 1.34375q1.3437347 1.328125 1.3437347 3.375q0 2.078125 -1.3437347 3.40625q-1.34375 1.328125 -3.421875 1.328125zm0 -2.109375q1.015625 0 1.65625 -0.734375q0.65625 -0.734375 0.65625 -1.890625q0 -1.125 -0.65625 -1.859375q-0.640625 -0.75 -1.65625 -0.75q-1.0 0 -1.65625 0.71875q-0.640625 0.71875 -0.640625 1.890625q0 1.1875 0.640625 1.90625q0.65625 0.71875 1.65625 0.71875zm12.724304 1.890625l0 -1.15625q-1.125 1.375 -2.78125 1.375q-1.796875 0 -2.90625 -1.28125q-1.09375 -1.28125 -1.09375 -3.4375q0 -2.125 1.09375 -3.421875q1.109375 -1.3125 2.90625 -1.3125q1.6875 0 2.78125 1.375l0 -4.578125l2.375 0l0 12.4375l-2.375 0zm-2.0625 -1.890625q0.59375 0 1.171875 -0.28125q0.59375 -0.296875 0.890625 -0.734375l0 -3.1875q-0.296875 -0.453125 -0.890625 -0.734375q-0.578125 -0.296875 -1.171875 -0.296875q-1.0 0 -1.640625 0.734375q-0.625 0.71875 -0.625 1.890625q0 1.140625 0.609375 1.875q0.609375 0.734375 1.65625 0.734375zm11.026321 2.109375q-2.125 0 -3.46875 -1.3125q-1.34375 -1.3125 -1.34375 -3.421875q0 -2.015625 1.328125 -3.359375q1.34375 -1.359375 3.34375 -1.359375q1.984375 0 3.25 1.375q1.265625 1.359375 1.265625 3.59375l0 0.515625l-6.703125 0q0.109375 0.859375 0.765625 1.484375q0.671875 0.609375 1.828125 0.609375q0.5625 0 1.25 -0.234375q0.6875 -0.234375 1.15625 -0.671875l1.046875 1.53125q-0.671875 0.625 -1.671875 0.9375q-0.984375 0.3125 -2.046875 0.3125zm2.078125 -5.578125q-0.0625 -0.890625 -0.6875 -1.4375q-0.609375 -0.546875 -1.53125 -0.546875q-0.9375 0 -1.53125 0.5625q-0.59375 0.5625 -0.6875 1.421875l4.4375 0zm4.00441 5.359375l0 -12.4375l2.375 0l0 12.4375l-2.375 0z" fill-rule="nonzero"/><path fill="#000000" fill-opacity="0.0" d="m149.62073 240.80315l0 38.393692" fill-rule="evenodd"/><path stroke="#666666" stroke-width="2.0" stroke-linejoin="round" stroke-linecap="butt" d="m149.62073 252.80315l0 26.393692" fill-rule="evenodd"/><path fill="#666666" stroke="#666666" stroke-width="2.0" stroke-linecap="butt" d="m152.9242 252.80315l-3.3034668 -9.076187l-3.3034515 9.076187z" fill-rule="evenodd"/><path fill="#000000" fill-opacity="0.0" d="m11.149607 279.18896l30.771654 0l0 22.771667l-30.771654 0z" fill-rule="evenodd"/><path stroke="#666666" stroke-width="2.0" stroke-linejoin="round" stroke-linecap="butt" d="m11.149607 279.18896l30.771654 0l0 22.771667l-30.771654 0z" fill-rule="evenodd"/><path fill="#000000" fill-opacity="0.0" d="m41.92126 279.18896l30.771656 0l0 22.771667l-30.771656 0z" fill-rule="evenodd"/><path stroke="#666666" stroke-width="2.0" stroke-linejoin="round" stroke-linecap="butt" d="m41.92126 279.18896l30.771656 0l0 22.771667l-30.771656 0z" fill-rule="evenodd"/><path fill="#000000" fill-opacity="0.0" d="m72.69292 279.18896l30.771652 0l0 22.771667l-30.771652 0z" fill-rule="evenodd"/><path stroke="#666666" stroke-width="2.0" stroke-linejoin="round" stroke-linecap="butt" d="m72.69292 279.18896l30.771652 0l0 22.771667l-30.771652 0z" fill-rule="evenodd"/><path fill="#000000" fill-opacity="0.0" d="m103.46457 279.18896l30.771652 0l0 22.771667l-30.771652 0z" fill-rule="evenodd"/><path stroke="#666666" stroke-width="2.0" stroke-linejoin="round" stroke-linecap="butt" d="m103.46457 279.18896l30.771652 0l0 22.771667l-30.771652 0z" fill-rule="evenodd"/><path fill="#000000" fill-opacity="0.0" d="m134.23622 279.18896l30.771652 0l0 22.771667l-30.771652 0z" fill-rule="evenodd"/><path stroke="#666666" stroke-width="2.0" stroke-linejoin="round" stroke-linecap="butt" d="m134.23622 279.18896l30.771652 0l0 22.771667l-30.771652 0z" fill-rule="evenodd"/><path fill="#000000" fill-opacity="0.0" d="m165.00787 279.18896l30.771652 0l0 22.771667l-30.771652 0z" fill-rule="evenodd"/><path stroke="#666666" stroke-width="2.0" stroke-linejoin="round" stroke-linecap="butt" d="m165.00787 279.18896l30.771652 0l0 22.771667l-30.771652 0z" fill-rule="evenodd"/><path fill="#000000" fill-opacity="0.0" d="m195.77953 279.18896l30.771652 0l0 22.771667l-30.771652 0z" fill-rule="evenodd"/><path stroke="#666666" stroke-width="2.0" stroke-linejoin="round" stroke-linecap="butt" d="m195.77953 279.18896l30.771652 0l0 22.771667l-30.771652 0z" fill-rule="evenodd"/><path fill="#000000" fill-opacity="0.0" d="m226.55118 279.18896l30.771667 0l0 22.771667l-30.771667 0z" fill-rule="evenodd"/><path stroke="#666666" stroke-width="2.0" stroke-linejoin="round" stroke-linecap="butt" d="m226.55118 279.18896l30.771667 0l0 22.771667l-30.771667 0z" fill-rule="evenodd"/><path fill="#000000" fill-opacity="0.0" d="m257.32285 279.18896l30.771637 0l0 22.771667l-30.771637 0z" fill-rule="evenodd"/><path stroke="#666666" stroke-width="2.0" stroke-linejoin="round" stroke-linecap="butt" d="m257.32285 279.18896l30.771637 0l0 22.771667l-30.771637 0z" fill-rule="evenodd"/><path fill="#000000" fill-opacity="0.0" d="m299.94235 267.0226l111.968506 0l0 42.015747l-111.968506 0z" fill-rule="evenodd"/><path fill="#76a5af" d="m309.69235 298.29736l0 -16.203125l3.46875 0l0 1.03125l-2.390625 0l0 14.140625l2.390625 0l0 1.03125l-3.46875 0zm6.580353 -5.984375q0.375 0.59375 1.109375 1.0q0.734375 0.40625 1.578125 0.40625q1.328125 0 2.109375 -0.953125q0.796875 -0.96875 0.796875 -2.515625q0 -1.5625 -0.78125 -2.515625q-0.78125 -0.96875 -2.125 -0.96875q-0.84375 0 -1.578125 0.4375q-0.734375 0.421875 -1.109375 1.015625l0 4.09375zm-1.390625 2.4375l0 -12.4375l1.390625 0l0 4.78125q1.15625 -1.578125 3.046875 -1.578125q1.78125 0 2.890625 1.3125q1.109375 1.296875 1.109375 3.421875q0 2.171875 -1.109375 3.453125q-1.109375 1.265625 -2.890625 1.265625q-0.953125 0 -1.75 -0.4375q-0.796875 -0.4375 -1.296875 -1.125l0 1.34375l-1.390625 0zm16.80545 0l0 -5.890625q0 -1.203125 -0.5625 -1.640625q-0.546875 -0.453125 -1.453125 -0.453125q-0.78125 0 -1.546875 0.421875q-0.75 0.421875 -1.125 0.984375l0 6.578125l-1.390625 0l0 -9.015625l1.390625 0l0 1.3125q0.578125 -0.671875 1.421875 -1.09375q0.859375 -0.4375 1.78125 -0.4375q2.875 0 2.875 2.90625l0 6.328125l-1.390625 0zm6.076477 -0.453125q0 0.859375 -0.4375 1.609375q-0.4375 0.75 -1.09375 1.21875l-0.6875 -0.578125q0.453125 -0.296875 0.796875 -0.796875q0.359375 -0.484375 0.421875 -0.9375l-0.265625 0.03125q-0.390625 0 -0.640625 -0.25q-0.25 -0.265625 -0.25 -0.703125q0 -0.40625 0.265625 -0.703125q0.28125 -0.296875 0.71875 -0.296875q0.46875 0 0.8125 0.375q0.359375 0.359375 0.359375 1.03125zm6.822998 0.453125l0 -1.234375q3.296875 -2.59375 4.515625 -3.765625q1.234375 -1.1875 1.8125 -2.125q0.578125 -0.953125 0.578125 -1.84375q0 -1.03125 -0.703125 -1.65625q-0.703125 -0.625 -1.890625 -0.625q-2.171875 0 -3.375 1.5625l-0.953125 -0.984375q0.71875 -0.953125 1.859375 -1.453125q1.15625 -0.5 2.46875 -0.5q1.8125 0 3.0 1.0q1.1875 0.984375 1.1875 2.65625q0 1.5 -1.28125 3.171875q-1.28125 1.671875 -4.765625 4.421875l6.09375 0l0 1.375l-8.546875 0zm10.282379 3.546875l0 -1.03125l2.390625 0l0 -14.140625l-2.390625 0l0 -1.03125l3.46875 0l0 16.203125l-3.46875 0z" fill-rule="nonzero"/><path fill="#000000" fill-opacity="0.0" d="m11.149607 111.18898l30.771654 0l0 22.771652l-30.771654 0z" fill-rule="evenodd"/><path stroke="#666666" stroke-width="2.0" stroke-linejoin="round" stroke-linecap="butt" d="m11.149607 111.18898l30.771654 0l0 22.771652l-30.771654 0z" fill-rule="evenodd"/><path fill="#000000" fill-opacity="0.0" d="m41.92126 111.18898l30.771656 0l0 22.771652l-30.771656 0z" fill-rule="evenodd"/><path stroke="#666666" stroke-width="2.0" stroke-linejoin="round" stroke-linecap="butt" d="m41.92126 111.18898l30.771656 0l0 22.771652l-30.771656 0z" fill-rule="evenodd"/><path fill="#000000" fill-opacity="0.0" d="m72.69292 111.18898l30.771652 0l0 22.771652l-30.771652 0z" fill-rule="evenodd"/><path stroke="#666666" stroke-width="2.0" stroke-linejoin="round" stroke-linecap="butt" d="m72.69292 111.18898l30.771652 0l0 22.771652l-30.771652 0z" fill-rule="evenodd"/><path fill="#000000" fill-opacity="0.0" d="m103.46457 111.18898l30.771652 0l0 22.771652l-30.771652 0z" fill-rule="evenodd"/><path stroke="#666666" stroke-width="2.0" stroke-linejoin="round" stroke-linecap="butt" d="m103.46457 111.18898l30.771652 0l0 22.771652l-30.771652 0z" fill-rule="evenodd"/><path fill="#000000" fill-opacity="0.0" d="m134.23622 111.18898l30.771652 0l0 22.771652l-30.771652 0z" fill-rule="evenodd"/><path stroke="#666666" stroke-width="2.0" stroke-linejoin="round" stroke-linecap="butt" d="m134.23622 111.18898l30.771652 0l0 22.771652l-30.771652 0z" fill-rule="evenodd"/><path fill="#000000" fill-opacity="0.0" d="m165.00787 111.18898l30.771652 0l0 22.771652l-30.771652 0z" fill-rule="evenodd"/><path stroke="#666666" stroke-width="2.0" stroke-linejoin="round" stroke-linecap="butt" d="m165.00787 111.18898l30.771652 0l0 22.771652l-30.771652 0z" fill-rule="evenodd"/><path fill="#000000" fill-opacity="0.0" d="m195.77953 111.18898l30.771652 0l0 22.771652l-30.771652 0z" fill-rule="evenodd"/><path stroke="#666666" stroke-width="2.0" stroke-linejoin="round" stroke-linecap="butt" d="m195.77953 111.18898l30.771652 0l0 22.771652l-30.771652 0z" fill-rule="evenodd"/><path fill="#000000" fill-opacity="0.0" d="m226.55118 111.18898l30.771667 0l0 22.771652l-30.771667 0z" fill-rule="evenodd"/><path stroke="#666666" stroke-width="2.0" stroke-linejoin="round" stroke-linecap="butt" d="m226.55118 111.18898l30.771667 0l0 22.771652l-30.771667 0z" fill-rule="evenodd"/><path fill="#000000" fill-opacity="0.0" d="m257.32285 111.18898l30.771637 0l0 22.771652l-30.771637 0z" fill-rule="evenodd"/><path stroke="#666666" stroke-width="2.0" stroke-linejoin="round" stroke-linecap="butt" d="m257.32285 111.18898l30.771637 0l0 22.771652l-30.771637 0z" fill-rule="evenodd"/><path fill="#000000" fill-opacity="0.0" d="m149.62204 133.96063l0 31.055115" fill-rule="evenodd"/><path stroke="#666666" stroke-width="2.0" stroke-linejoin="round" stroke-linecap="butt" d="m149.62204 145.96063l0 19.055115" fill-rule="evenodd"/><path fill="#666666" stroke="#666666" stroke-width="2.0" stroke-linecap="butt" d="m152.9255 145.96063l-3.3034668 -9.076202l-3.3034515 9.076202z" fill-rule="evenodd"/><path fill="#000000" fill-opacity="0.0" d="m299.94235 99.02261l111.968506 0l0 42.015747l-111.968506 0z" fill-rule="evenodd"/><path fill="#76a5af" d="m309.69235 130.29736l0 -16.203125l3.46875 0l0 1.03125l-2.390625 0l0 14.140625l2.390625 0l0 1.03125l-3.46875 0zm6.580353 -5.984375q0.375 0.59375 1.109375 1.0q0.734375 0.40625 1.578125 0.40625q1.328125 0 2.109375 -0.953125q0.796875 -0.96875 0.796875 -2.515625q0 -1.5625 -0.78125 -2.515625q-0.78125 -0.96875 -2.125 -0.96875q-0.84375 0 -1.578125 0.4375q-0.734375 0.421875 -1.109375 1.015625l0 4.09375zm-1.390625 2.4375l0 -12.4375l1.390625 0l0 4.78125q1.15625 -1.578125 3.046875 -1.578125q1.78125 0 2.890625 1.3125q1.109375 1.296875 1.109375 3.421875q0 2.171875 -1.109375 3.453125q-1.109375 1.265625 -2.890625 1.265625q-0.953125 0 -1.75 -0.4375q-0.796875 -0.4375 -1.296875 -1.125l0 1.34375l-1.390625 0zm16.80545 0l0 -5.890625q0 -1.203125 -0.5625 -1.640625q-0.546875 -0.453125 -1.453125 -0.453125q-0.78125 0 -1.546875 0.421875q-0.75 0.421875 -1.125 0.984375l0 6.578125l-1.390625 0l0 -9.015625l1.390625 0l0 1.3125q0.578125 -0.671875 1.421875 -1.09375q0.859375 -0.4375 1.78125 -0.4375q2.875 0 2.875 2.90625l0 6.328125l-1.390625 0zm6.076477 -0.453125q0 0.859375 -0.4375 1.609375q-0.4375 0.75 -1.09375 1.21875l-0.6875 -0.578125q0.453125 -0.296875 0.796875 -0.796875q0.359375 -0.484375 0.421875 -0.9375l-0.265625 0.03125q-0.390625 0 -0.640625 -0.25q-0.25 -0.265625 -0.25 -0.703125q0 -0.40625 0.265625 -0.703125q0.28125 -0.296875 0.71875 -0.296875q0.46875 0 0.8125 0.375q0.359375 0.359375 0.359375 1.03125zm13.744873 0.453125l0 -1.34375q-0.5 0.6875 -1.296875 1.125q-0.78125 0.4375 -1.734375 0.4375q-1.8125 0 -2.921875 -1.28125q-1.09375 -1.28125 -1.09375 -3.4375q0 -2.15625 1.109375 -3.4375q1.109375 -1.296875 2.90625 -1.296875q0.90625 0 1.703125 0.421875q0.796875 0.421875 1.328125 1.15625l0 -4.78125l1.40625 0l0 12.4375l-1.40625 0zm-2.703125 -1.03125q0.84375 0 1.59375 -0.40625q0.75 -0.40625 1.109375 -1.0l0 -4.09375q-0.359375 -0.59375 -1.109375 -1.015625q-0.75 -0.4375 -1.59375 -0.4375q-1.296875 0 -2.09375 0.953125q-0.796875 0.953125 -0.796875 2.53125q0 1.546875 0.78125 2.515625q0.796875 0.953125 2.109375 0.953125zm5.821106 4.578125l0 -1.03125l2.390625 0l0 -14.140625l-2.390625 0l0 -1.03125l3.46875 0l0 16.203125l-3.46875 0z" fill-rule="nonzero"/><path fill="#000000" fill-opacity="0.0" d="m134.23622 3.511811l30.771652 0l0 22.771654l-30.771652 0z" fill-rule="evenodd"/><path stroke="#666666" stroke-width="2.0" stroke-linejoin="round" stroke-linecap="butt" d="m134.23622 3.511811l30.771652 0l0 22.771654l-30.771652 0z" fill-rule="evenodd"/><path fill="#000000" fill-opacity="0.0" d="m149.62204 82.137794l0 29.039368" fill-rule="evenodd"/><path stroke="#666666" stroke-width="2.0" stroke-linejoin="round" stroke-linecap="butt" d="m149.62204 94.137794l0 17.039368" fill-rule="evenodd"/><path fill="#666666" stroke="#666666" stroke-width="2.0" stroke-linecap="butt" d="m152.9255 94.137794l-3.3034668 -9.076195l-3.3034515 9.076195z" fill-rule="evenodd"/><path fill="#000000" fill-opacity="0.0" d="m167.49617 -3.2031066l111.96849 0l0 42.015747l-111.96849 0z" fill-rule="evenodd"/><path fill="#76a5af" d="m177.24617 28.071644l0 -16.203125l3.46875 0l0 1.03125l-2.390625 0l0 14.140626l2.390625 0l0 1.03125l-3.46875 0zm6.5803375 -5.984375q0.375 0.59375 1.109375 1.0q0.734375 0.40625 1.578125 0.40625q1.328125 0 2.109375 -0.953125q0.796875 -0.96875 0.796875 -2.515625q0 -1.5625 -0.78125 -2.515625q-0.78125 -0.96875 -2.125 -0.96875q-0.84375 0 -1.578125 0.4375q-0.734375 0.421875 -1.109375 1.015625l0 4.09375zm-1.390625 2.4375l0 -12.437501l1.390625 0l0 4.781251q1.15625 -1.578126 3.046875 -1.578126q1.78125 0 2.890625 1.312501q1.109375 1.296875 1.109375 3.421875q0 2.171875 -1.109375 3.453125q-1.109375 1.265625 -2.890625 1.265625q-0.953125 0 -1.75 -0.4375q-0.796875 -0.4375 -1.296875 -1.125l0 1.34375l-1.390625 0zm12.47168 -0.453125q0 0.859375 -0.4375 1.609375q-0.4375 0.75 -1.09375 1.21875l-0.6875 -0.578125q0.453125 -0.296875 0.796875 -0.796875q0.359375 -0.484375 0.421875 -0.9375l-0.265625 0.03125q-0.390625 0 -0.640625 -0.25q-0.25 -0.265625 -0.25 -0.703125q0 -0.40625 0.265625 -0.703125q0.28125 -0.296875 0.71875 -0.296875q0.46875 0 0.8125 0.375q0.359375 0.359375 0.359375 1.03125zm13.744873 0.453125l0 -1.34375q-0.5 0.6875 -1.296875 1.125q-0.78125 0.4375 -1.734375 0.4375q-1.8125 0 -2.921875 -1.28125q-1.09375 -1.28125 -1.09375 -3.4375q0 -2.15625 1.109375 -3.4375q1.109375 -1.296876 2.90625 -1.296876q0.90625 0 1.703125 0.421875q0.796875 0.42187595 1.328125 1.156251l0 -4.781251l1.40625 0l0 12.437501l-1.40625 0zm-2.703125 -1.03125q0.84375 0 1.59375 -0.40625q0.75 -0.40625 1.109375 -1.0l0 -4.09375q-0.359375 -0.59375 -1.109375 -1.015625q-0.75 -0.4375 -1.59375 -0.4375q-1.296875 0 -2.09375 0.953125q-0.796875 0.953125 -0.796875 2.53125q0 1.546875 0.78125 2.515625q0.796875 0.953125 2.109375 0.953125zm5.8210907 4.578125l0 -1.03125l2.390625 0l0 -14.140626l-2.390625 0l0 -1.03125l3.46875 0l0 16.203125l-3.46875 0z" fill-rule="nonzero"/><path fill="#000000" fill-opacity="0.0" d="m97.30708 82.137794l11.847801 -26.80315l80.93433 0l11.847794 26.80315z" fill-rule="evenodd"/><path stroke="#666666" stroke-width="2.0" stroke-linejoin="round" stroke-linecap="butt" d="m97.30708 82.137794l11.847801 -26.80315l80.93433 0l11.847794 26.80315z" fill-rule="evenodd"/><path fill="#666666" d="m120.35771 76.66791l0 -12.4375l5.0 0q1.78125 0 2.84375 1.0625q1.0625 1.0625 1.0625 2.6875q0 1.640625 -1.09375 2.703125q-1.078125 1.046875 -2.8125 1.046875l-3.453125 0l0 4.9375l-1.546875 0zm4.8125 -6.328125q1.125 0 1.796875 -0.640625q0.6875 -0.65625 0.6875 -1.71875q0 -1.0625 -0.6875 -1.71875q-0.671875 -0.65625 -1.796875 -0.65625l-3.265625 0l0 4.734375l3.265625 0zm9.771057 6.546875q-1.953125 0 -3.203125 -1.328125q-1.25 -1.328125 -1.25 -3.40625q0 -2.09375 1.25 -3.40625q1.25 -1.3125 3.203125 -1.3125q1.96875 0 3.21875 1.3125q1.25 1.3125 1.25 3.40625q0 2.078125 -1.25 3.40625q-1.25 1.328125 -3.21875 1.328125zm0 -1.25q1.3125 0 2.15625 -0.96875q0.84375 -0.984375 0.84375 -2.515625q0 -1.515625 -0.84375 -2.484375q-0.84375 -0.984375 -2.15625 -0.984375q-1.296875 0 -2.15625 0.96875q-0.84375 0.96875 -0.84375 2.5q0 1.546875 0.84375 2.515625q0.84375 0.96875 2.15625 0.96875zm10.671371 1.25q-1.953125 0 -3.203125 -1.328125q-1.25 -1.328125 -1.25 -3.40625q0 -2.09375 1.25 -3.40625q1.25 -1.3125 3.203125 -1.3125q1.96875 0 3.21875 1.3125q1.25 1.3125 1.25 3.40625q0 2.078125 -1.25 3.40625q-1.25 1.328125 -3.21875 1.328125zm0 -1.25q1.3125 0 2.15625 -0.96875q0.84375 -0.984375 0.84375 -2.515625q0 -1.515625 -0.84375 -2.484375q-0.84375 -0.984375 -2.15625 -0.984375q-1.296875 0 -2.15625 0.96875q-0.84375 0.96875 -0.84375 2.5q0 1.546875 0.84375 2.515625q0.84375 0.96875 2.15625 0.96875zm6.7494965 1.03125l0 -12.4375l1.390625 0l0 12.4375l-1.390625 0zm4.8851624 -10.296875q-0.375 0 -0.65625 -0.265625q-0.28125 -0.28125 -0.28125 -0.671875q0 -0.390625 0.28125 -0.671875q0.28125 -0.28125 0.65625 -0.28125q0.390625 0 0.671875 0.28125q0.28125 0.28125 0.28125 0.671875q0 0.390625 -0.28125 0.671875q-0.28125 0.265625 -0.671875 0.265625zm-0.6875 10.296875l0 -9.015625l1.390625 0l0 9.015625l-1.390625 0zm10.275787 0l0 -5.890625q0 -1.203125 -0.5625 -1.640625q-0.546875 -0.453125 -1.453125 -0.453125q-0.78125 0 -1.546875 0.421875q-0.75 0.421875 -1.125 0.984375l0 6.578125l-1.390625 0l0 -9.015625l1.390625 0l0 1.3125q0.578125 -0.671875 1.421875 -1.09375q0.859375 -0.4375 1.78125 -0.4375q2.875 0 2.875 2.90625l0 6.328125l-1.390625 0zm7.810852 3.65625q-1.15625 0 -2.0 -0.28125q-0.828125 -0.28125 -1.640625 -1.0625l0.71875 -1.046875q0.5625 0.671875 1.25 0.953125q0.703125 0.28125 1.671875 0.28125q1.390625 0 2.140625 -0.71875q0.75 -0.71875 0.75 -1.984375l0 -1.296875q-0.484375 0.703125 -1.28125 1.15625q-0.78125 0.453125 -1.734375 0.453125q-1.828125 0 -2.921875 -1.28125q-1.09375 -1.296875 -1.09375 -3.375q0 -2.171875 1.109375 -3.421875q1.109375 -1.265625 2.90625 -1.265625q1.859375 0 3.015625 1.578125l0 -1.359375l1.40625 0l0 8.75q0 1.90625 -1.125 2.90625q-1.109375 1.015625 -3.171875 1.015625zm0.203125 -4.78125q0.765625 0 1.515625 -0.40625q0.765625 -0.40625 1.171875 -1.0625l0 -3.9375q-0.40625 -0.65625 -1.171875 -1.046875q-0.765625 -0.40625 -1.515625 -0.40625q-1.3125 0 -2.109375 0.953125q-0.78125 0.953125 -0.78125 2.484375q0 1.546875 0.796875 2.484375q0.8125 0.9375 2.09375 0.9375z" fill-rule="nonzero"/><path fill="#000000" fill-opacity="0.0" d="m149.62204 26.283464l0 29.03937" fill-rule="evenodd"/><path stroke="#666666" stroke-width="2.0" stroke-linejoin="round" stroke-linecap="butt" d="m149.62204 38.283466l0 17.039368" fill-rule="evenodd"/><path fill="#666666" stroke="#666666" stroke-width="2.0" stroke-linecap="butt" d="m152.9255 38.283463l-3.3034668 -9.076193l-3.3034515 9.076193z" fill-rule="evenodd"/></g></svg>