<svg version="1.1" viewBox="0.0 0.0 656.4330708661417 357.4750656167979" fill="none" stroke="none" stroke-linecap="square" stroke-miterlimit="10" xmlns:xlink="http://www.w3.org/1999/xlink" xmlns="http://www.w3.org/2000/svg"><clipPath id="p.0"><path d="m0 0l656.43304 0l0 357.47507l-656.43304 0l0 -357.47507z" clip-rule="nonzero"/></clipPath><g clip-path="url(#p.0)"><path fill="#000000" fill-opacity="0.0" d="m0 0l656.43304 0l0 357.47507l-656.43304 0z" fill-rule="evenodd"/><path fill="#000000" fill-opacity="0.0" d="m81.480316 292.67715l0 0c0 -3.6094055 2.9260101 -6.535431 6.535431 -6.535431l0 0c1.7333069 0 3.3956223 0.6885681 4.6212463 1.9141846c1.2256317 1.225647 1.9141846 2.8879395 1.9141846 4.6212463l0 0c0 3.609436 -2.9260101 6.535431 -6.535431 6.535431l0 0c-3.6094208 0 -6.535431 -2.9259949 -6.535431 -6.535431z" fill-rule="evenodd"/><path stroke="#666666" stroke-width="2.0" stroke-linejoin="round" stroke-linecap="butt" d="m81.480316 292.67715l0 0c0 -3.6094055 2.9260101 -6.535431 6.535431 -6.535431l0 0c1.7333069 0 3.3956223 0.6885681 4.6212463 1.9141846c1.2256317 1.225647 1.9141846 2.8879395 1.9141846 4.6212463l0 0c0 3.609436 -2.9260101 6.535431 -6.535431 6.535431l0 0c-3.6094208 0 -6.535431 -2.9259949 -6.535431 -6.535431z" fill-rule="evenodd"/><path fill="#000000" fill-opacity="0.0" d="m65.480316 276.67715l0 0c0 -3.6094055 2.9260101 -6.535431 6.535431 -6.535431l0 0c1.7333069 0 3.3956223 0.6885681 4.6212463 1.9141846c1.2256317 1.225647 1.9141846 2.8879395 1.9141846 4.6212463l0 0c0 3.609436 -2.9260101 6.535431 -6.535431 6.535431l0 0c-3.6094208 0 -6.535431 -2.9259949 -6.535431 -6.535431z" fill-rule="evenodd"/><path stroke="#666666" stroke-width="2.0" stroke-linejoin="round" stroke-linecap="butt" d="m65.480316 276.67715l0 0c0 -3.6094055 2.9260101 -6.535431 6.535431 -6.535431l0 0c1.7333069 0 3.3956223 0.6885681 4.6212463 1.9141846c1.2256317 1.225647 1.9141846 2.8879395 1.9141846 4.6212463l0 0c0 3.609436 -2.9260101 6.535431 -6.535431 6.535431l0 0c-3.6094208 0 -6.535431 -2.9259949 -6.535431 -6.535431z" fill-rule="evenodd"/><path fill="#000000" fill-opacity="0.0" d="m105.480316 271.92468l0 0c0 -3.6094055 2.9260101 -6.535431 6.535431 -6.535431l0 0c1.7333069 0 3.3956223 0.6885681 4.6212463 1.9141846c1.2256317 1.225647 1.9141846 2.8879395 1.9141846 4.6212463l0 0c0 3.609436 -2.9260101 6.535431 -6.535431 6.535431l0 0c-3.6094208 0 -6.535431 -2.9259949 -6.535431 -6.535431z" fill-rule="evenodd"/><path stroke="#666666" stroke-width="2.0" stroke-linejoin="round" stroke-linecap="butt" d="m105.480316 271.92468l0 0c0 -3.6094055 2.9260101 -6.535431 6.535431 -6.535431l0 0c1.7333069 0 3.3956223 0.6885681 4.6212463 1.9141846c1.2256317 1.225647 1.9141846 2.8879395 1.9141846 4.6212463l0 0c0 3.609436 -2.9260101 6.535431 -6.535431 6.535431l0 0c-3.6094208 0 -6.535431 -2.9259949 -6.535431 -6.535431z" fill-rule="evenodd"/><path fill="#000000" fill-opacity="0.0" d="m89.480316 255.92468l0 0c0 -3.6094055 2.9260101 -6.535431 6.535431 -6.535431l0 0c1.7333069 0 3.3956223 0.68855286 4.6212463 1.9141846c1.2256317 1.2256317 1.9141846 2.8879547 1.9141846 4.6212463l0 0c0 3.609436 -2.9260101 6.535431 -6.535431 6.535431l0 0c-3.6094208 0 -6.535431 -2.9259949 -6.535431 -6.535431z" fill-rule="evenodd"/><path stroke="#666666" stroke-width="2.0" stroke-linejoin="round" stroke-linecap="butt" d="m89.480316 255.92468l0 0c0 -3.6094055 2.9260101 -6.535431 6.535431 -6.535431l0 0c1.7333069 0 3.3956223 0.68855286 4.6212463 1.9141846c1.2256317 1.2256317 1.9141846 2.8879547 1.9141846 4.6212463l0 0c0 3.609436 -2.9260101 6.535431 -6.535431 6.535431l0 0c-3.6094208 0 -6.535431 -2.9259949 -6.535431 -6.535431z" fill-rule="evenodd"/><path fill="#000000" fill-opacity="0.0" d="m69.47507 119.59318l0 0c0 -3.6094208 2.9260101 -6.5354385 6.535431 -6.5354385l0 0c1.7333069 0 3.3956146 0.68855286 4.6212463 1.9141846c1.2256317 1.2256317 1.9141846 2.887947 1.9141846 4.621254l0 0c0 3.6094208 -2.9260101 6.535431 -6.535431 6.535431l0 0c-3.6094208 0 -6.535431 -2.9260101 -6.535431 -6.535431z" fill-rule="evenodd"/><path stroke="#666666" stroke-width="2.0" stroke-linejoin="round" stroke-linecap="butt" d="m69.47507 119.59318l0 0c0 -3.6094208 2.9260101 -6.5354385 6.535431 -6.5354385l0 0c1.7333069 0 3.3956146 0.68855286 4.6212463 1.9141846c1.2256317 1.2256317 1.9141846 2.887947 1.9141846 4.621254l0 0c0 3.6094208 -2.9260101 6.535431 -6.535431 6.535431l0 0c-3.6094208 0 -6.535431 -2.9260101 -6.535431 -6.535431z" fill-rule="evenodd"/><path fill="#000000" fill-opacity="0.0" d="m37.475067 87.59318l0 0c0 -3.6094208 2.9260101 -6.5354385 6.535431 -6.5354385l0 0c1.7333069 0 3.3956184 0.68855286 4.62125 1.9141846c1.2256317 1.2256317 1.9141846 2.887947 1.9141846 4.621254l0 0c0 3.6094208 -2.926014 6.535431 -6.5354347 6.535431l0 0c-3.6094208 0 -6.535431 -2.9260101 -6.535431 -6.535431z" fill-rule="evenodd"/><path stroke="#666666" stroke-width="2.0" stroke-linejoin="round" stroke-linecap="butt" d="m37.475067 87.59318l0 0c0 -3.6094208 2.9260101 -6.5354385 6.535431 -6.5354385l0 0c1.7333069 0 3.3956184 0.68855286 4.62125 1.9141846c1.2256317 1.2256317 1.9141846 2.887947 1.9141846 4.621254l0 0c0 3.6094208 -2.926014 6.535431 -6.5354347 6.535431l0 0c-3.6094208 0 -6.535431 -2.9260101 -6.535431 -6.535431z" fill-rule="evenodd"/><path fill="#000000" fill-opacity="0.0" d="m77.47507 42.840702l0 0c0 -3.6094208 2.9260101 -6.5354347 6.535431 -6.5354347l0 0c1.7333069 0 3.3956146 0.68855286 4.6212463 1.9141846c1.2256317 1.2256317 1.9141846 2.8879433 1.9141846 4.62125l0 0c0 3.609417 -2.9260101 6.535431 -6.535431 6.535431l0 0c-3.6094208 0 -6.535431 -2.926014 -6.535431 -6.535431z" fill-rule="evenodd"/><path stroke="#666666" stroke-width="2.0" stroke-linejoin="round" stroke-linecap="butt" d="m77.47507 42.840702l0 0c0 -3.6094208 2.9260101 -6.5354347 6.535431 -6.5354347l0 0c1.7333069 0 3.3956146 0.68855286 4.6212463 1.9141846c1.2256317 1.2256317 1.9141846 2.8879433 1.9141846 4.62125l0 0c0 3.609417 -2.9260101 6.535431 -6.535431 6.535431l0 0c-3.6094208 0 -6.535431 -2.926014 -6.535431 -6.535431z" fill-rule="evenodd"/><path fill="#000000" fill-opacity="0.0" d="m93.47507 58.840702l0 0c0 -3.6094208 2.9260101 -6.5354347 6.535431 -6.5354347l0 0c1.7333069 0 3.3956146 0.68855286 4.6212463 1.9141846c1.2256317 1.2256317 1.9141846 2.8879433 1.9141846 4.62125l0 0c0 3.609417 -2.9260101 6.5354347 -6.535431 6.5354347l0 0c-3.6094208 0 -6.535431 -2.9260178 -6.535431 -6.5354347z" fill-rule="evenodd"/><path stroke="#666666" stroke-width="2.0" stroke-linejoin="round" stroke-linecap="butt" d="m93.47507 58.840702l0 0c0 -3.6094208 2.9260101 -6.5354347 6.535431 -6.5354347l0 0c1.7333069 0 3.3956146 0.68855286 4.6212463 1.9141846c1.2256317 1.2256317 1.9141846 2.8879433 1.9141846 4.62125l0 0c0 3.609417 -2.9260101 6.5354347 -6.535431 6.5354347l0 0c-3.6094208 0 -6.535431 -2.9260178 -6.535431 -6.5354347z" fill-rule="evenodd"/><path fill="#000000" fill-opacity="0.0" d="m109.47507 34.840702l0 0c0 -3.6094227 2.9260101 -6.5354347 6.535431 -6.5354347l0 0c1.7333069 0 3.3956146 0.68855286 4.6212463 1.9141846c1.2256317 1.2256317 1.9141846 2.8879433 1.9141846 4.62125l0 0c0 3.609417 -2.9260101 6.535431 -6.535431 6.535431l0 0c-3.6094208 0 -6.535431 -2.926014 -6.535431 -6.535431z" fill-rule="evenodd"/><path stroke="#666666" stroke-width="2.0" stroke-linejoin="round" stroke-linecap="butt" d="m109.47507 34.840702l0 0c0 -3.6094227 2.9260101 -6.5354347 6.535431 -6.5354347l0 0c1.7333069 0 3.3956146 0.68855286 4.6212463 1.9141846c1.2256317 1.2256317 1.9141846 2.8879433 1.9141846 4.62125l0 0c0 3.609417 -2.9260101 6.535431 -6.535431 6.535431l0 0c-3.6094208 0 -6.535431 -2.926014 -6.535431 -6.535431z" fill-rule="evenodd"/><path fill="#000000" fill-opacity="0.0" d="m141.47507 58.840702l0 0c0 -3.6094208 2.9260101 -6.5354347 6.535431 -6.5354347l0 0c1.7333069 0 3.3956146 0.68855286 4.6212463 1.9141846c1.2256317 1.2256317 1.9141846 2.8879433 1.9141846 4.62125l0 0c0 3.609417 -2.9260101 6.5354347 -6.535431 6.5354347l0 0c-3.6094208 0 -6.535431 -2.9260178 -6.535431 -6.5354347z" fill-rule="evenodd"/><path stroke="#666666" stroke-width="2.0" stroke-linejoin="round" stroke-linecap="butt" d="m141.47507 58.840702l0 0c0 -3.6094208 2.9260101 -6.5354347 6.535431 -6.5354347l0 0c1.7333069 0 3.3956146 0.68855286 4.6212463 1.9141846c1.2256317 1.2256317 1.9141846 2.8879433 1.9141846 4.62125l0 0c0 3.609417 -2.9260101 6.5354347 -6.535431 6.5354347l0 0c-3.6094208 0 -6.535431 -2.9260178 -6.535431 -6.5354347z" fill-rule="evenodd"/><path fill="#000000" fill-opacity="0.0" d="m48.617596 82.958015l30.771656 -35.496067" fill-rule="evenodd"/><path stroke="#666666" stroke-width="2.0" stroke-linejoin="round" stroke-linecap="butt" d="m48.617596 82.958015l30.771656 -35.496067" fill-rule="evenodd"/><path fill="#000000" fill-opacity="0.0" d="m88.631744 47.46195l6.77166 6.771656" fill-rule="evenodd"/><path stroke="#666666" stroke-width="2.0" stroke-linejoin="round" stroke-linecap="butt" d="m88.631744 47.46195l6.77166 6.771656" fill-rule="evenodd"/><path fill="#000000" fill-opacity="0.0" d="m104.6176 54.233604l6.771652 -14.771656" fill-rule="evenodd"/><path stroke="#666666" stroke-width="2.0" stroke-linejoin="round" stroke-linecap="butt" d="m104.6176 54.233604l6.771652 -14.771656" fill-rule="evenodd"/><path fill="#000000" fill-opacity="0.0" d="m120.631744 39.46195l22.771652 14.771656" fill-rule="evenodd"/><path stroke="#666666" stroke-width="2.0" stroke-linejoin="round" stroke-linecap="butt" d="m120.631744 39.46195l22.771652 14.771656" fill-rule="evenodd"/><path fill="#000000" fill-opacity="0.0" d="m143.38925 63.46195l-62.771652 51.496067" fill-rule="evenodd"/><path stroke="#666666" stroke-width="2.0" stroke-linejoin="round" stroke-linecap="butt" d="m143.38925 63.46195l-62.771652 51.496067" fill-rule="evenodd"/><path fill="#000000" fill-opacity="0.0" d="m48.63175 92.214424l22.771656 22.771652" fill-rule="evenodd"/><path stroke="#666666" stroke-width="2.0" stroke-linejoin="round" stroke-linecap="butt" d="m48.63175 92.214424l22.771656 22.771652" fill-rule="evenodd"/><path fill="#000000" fill-opacity="0.0" d="m76.63699 281.2984l6.77166 6.7716675" fill-rule="evenodd"/><path stroke="#666666" stroke-width="2.0" stroke-linejoin="round" stroke-linecap="butt" d="m76.63699 281.2984l6.77166 6.7716675" fill-rule="evenodd"/><path fill="#000000" fill-opacity="0.0" d="m76.62285 272.042l14.771652 -11.496063" fill-rule="evenodd"/><path stroke="#666666" stroke-width="2.0" stroke-linejoin="round" stroke-linecap="butt" d="m76.62285 272.042l14.771652 -11.496063" fill-rule="evenodd"/><path fill="#000000" fill-opacity="0.0" d="m100.62285 260.5318l6.771652 6.771637" fill-rule="evenodd"/><path stroke="#666666" stroke-width="2.0" stroke-linejoin="round" stroke-linecap="butt" d="m100.62285 260.5318l6.771652 6.771637" fill-rule="evenodd"/><path fill="#000000" fill-opacity="0.0" d="m107.40865 276.55984l-14.77166 11.496063" fill-rule="evenodd"/><path stroke="#666666" stroke-width="2.0" stroke-linejoin="round" stroke-linecap="butt" d="m107.40865 276.55984l-14.77166 11.496063" fill-rule="evenodd"/><path fill="#000000" fill-opacity="0.0" d="m243.78871 157.38777l0 0c0 -4.06131 3.2923431 -7.353653 7.353653 -7.353653l92.158844 0c1.9503174 0 3.8207397 0.774765 5.199829 2.153839c1.3790588 1.3790741 2.1538086 3.2494965 2.1538086 5.199814l0 61.072235c0 4.06131 -3.292328 7.3536377 -7.3536377 7.3536377l-92.158844 0l0 0c-4.06131 0 -7.353653 -3.292328 -7.353653 -7.3536377z" fill-rule="evenodd"/><path stroke="#666666" stroke-width="2.0" stroke-linejoin="round" stroke-linecap="butt" d="m243.78871 157.38777l0 0c0 -4.06131 3.2923431 -7.353653 7.353653 -7.353653l92.158844 0c1.9503174 0 3.8207397 0.774765 5.199829 2.153839c1.3790588 1.3790741 2.1538086 3.2494965 2.1538086 5.199814l0 61.072235c0 4.06131 -3.292328 7.3536377 -7.3536377 7.3536377l-92.158844 0l0 0c-4.06131 0 -7.353653 -3.292328 -7.353653 -7.3536377z" fill-rule="evenodd"/><path fill="#666666" d="m260.62375 194.84389l0 -10.109375l-3.640625 0l0 -2.328125l9.921875 0l0 2.328125l-3.625 0l0 10.109375l-2.65625 0zm10.2786255 0.21875q-2.09375 0 -3.4375 -1.34375q-1.328125 -1.34375 -1.328125 -3.390625q0 -2.046875 1.328125 -3.375q1.34375 -1.34375 3.4375 -1.34375q2.078125 0 3.421875 1.34375q1.34375 1.328125 1.34375 3.375q0 2.078125 -1.34375 3.40625q-1.34375 1.328125 -3.421875 1.328125zm0 -2.109375q1.015625 0 1.65625 -0.734375q0.65625 -0.734375 0.65625 -1.890625q0 -1.125 -0.65625 -1.859375q-0.640625 -0.75 -1.65625 -0.75q-1.0 0 -1.65625 0.71875q-0.640625 0.71875 -0.640625 1.890625q0 1.1875 0.640625 1.90625q0.65625 0.71875 1.65625 0.71875zm12.364929 1.890625l-2.390625 -3.46875l-1.078125 1.15625l0 2.3125l-2.375 0l0 -12.4375l2.375 0l0 7.4375l3.40625 -4.015625l2.921875 0l-3.5625 4.09375l3.671875 4.921875l-2.96875 0zm8.259735 0.21875q-2.125 0 -3.46875 -1.3125q-1.34375 -1.3125 -1.34375 -3.421875q0 -2.015625 1.328125 -3.359375q1.34375 -1.359375 3.34375 -1.359375q1.984375 0 3.25 1.375q1.265625 1.359375 1.265625 3.59375l0 0.515625l-6.703125 0q0.109375 0.859375 0.765625 1.484375q0.671875 0.609375 1.828125 0.609375q0.5625 0 1.25 -0.234375q0.6875 -0.234375 1.15625 -0.671875l1.046875 1.53125q-0.671875 0.625 -1.671875 0.9375q-0.984375 0.3125 -2.046875 0.3125zm2.078125 -5.578125q-0.0625 -0.890625 -0.6875 -1.4375q-0.609375 -0.546875 -1.53125 -0.546875q-0.9375 0 -1.53125 0.5625q-0.59375 0.5625 -0.6875 1.421875l4.4375 0zm10.08252 5.359375l0 -5.453125q0 -1.671875 -1.65625 -1.671875q-1.28125 0 -2.046875 1.0625l0 6.0625l-2.375 0l0 -9.015625l2.375 0l0 1.1875q0.421875 -0.53125 1.21875 -0.96875q0.8125 -0.4375 1.9375 -0.4375q1.484375 0 2.203125 0.78125q0.71875 0.765625 0.71875 2.09375l0 6.359375l-2.375 0zm5.8957214 -9.984375q-0.578125 0 -1.0 -0.40625q-0.40625 -0.40625 -0.40625 -1.015625q0 -0.59375 0.40625 -0.984375q0.421875 -0.40625 1.0 -0.40625q0.609375 0 1.015625 0.40625q0.40625 0.390625 0.40625 0.984375q0 0.609375 -0.40625 1.015625q-0.40625 0.40625 -1.015625 0.40625zm-1.171875 9.984375l0 -9.015625l2.375 0l0 9.015625l-2.375 0zm4.3294067 0l0 -1.765625l4.0625 -5.171875l-4.0625 0l0 -2.078125l7.28125 0l0 1.71875l-4.125 5.21875l4.203125 0l0 2.078125l-7.359375 0zm13.56134 0.21875q-2.125 0 -3.46875 -1.3125q-1.34375 -1.3125 -1.34375 -3.421875q0 -2.015625 1.328125 -3.359375q1.34375 -1.359375 3.34375 -1.359375q1.984375 0 3.25 1.375q1.265625 1.359375 1.265625 3.59375l0 0.515625l-6.703125 0q0.109375 0.859375 0.765625 1.484375q0.671875 0.609375 1.828125 0.609375q0.5625 0 1.25 -0.234375q0.6875 -0.234375 1.15625 -0.671875l1.046875 1.53125q-0.671875 0.625 -1.671875 0.9375q-0.984375 0.3125 -2.046875 0.3125zm2.078125 -5.578125q-0.0625 -0.890625 -0.6875 -1.4375q-0.609375 -0.546875 -1.53125 -0.546875q-0.9375 0 -1.53125 0.5625q-0.59375 0.5625 -0.6875 1.421875l4.4375 0zm4.004425 5.359375l0 -9.015625l2.375 0l0 1.234375q0.484375 -0.59375 1.25 -1.015625q0.78125 -0.4375 1.625 -0.4375l0 2.3125l-0.65625 -0.0625q-0.640625 0 -1.28125 0.3125q-0.640625 0.296875 -0.9375 0.71875l0 5.953125l-2.375 0z" fill-rule="nonzero"/><path fill="#000000" fill-opacity="0.0" d="m21.266405 131.03412l147.2441 0l0 59.08661l-147.2441 0z" fill-rule="evenodd"/><path fill="#666666" d="m52.07968 157.95412l0 -12.4375l5.0 0q1.78125 0 2.84375 1.0625q1.0625 1.0625 1.0625 2.6875q0 1.640625 -1.09375 2.703125q-1.078125 1.046875 -2.8125 1.046875l-3.453125 0l0 4.9375l-1.546875 0zm4.8125 -6.328125q1.125 0 1.796875 -0.640625q0.6875 -0.65625 0.6875 -1.71875q0 -1.0625 -0.6875 -1.71875q-0.671875 -0.65625 -1.796875 -0.65625l-3.265625 0l0 4.734375l3.265625 0zm9.771057 6.546875q-1.953125 0 -3.203125 -1.328125q-1.25 -1.328125 -1.25 -3.40625q0 -2.09375 1.25 -3.40625q1.25 -1.3125 3.203125 -1.3125q1.96875 0 3.21875 1.3125q1.25 1.3125 1.25 3.40625q0 2.078125 -1.25 3.40625q-1.25 1.328125 -3.21875 1.328125zm0 -1.25q1.3125 0 2.15625 -0.96875q0.84375 -0.984375 0.84375 -2.515625q0 -1.515625 -0.84375 -2.484375q-0.84375 -0.984375 -2.15625 -0.984375q-1.296875 0 -2.15625 0.96875q-0.84375 0.96875 -0.84375 2.5q0 1.546875 0.84375 2.515625q0.84375 0.96875 2.15625 0.96875zm6.7494965 1.03125l0 -12.4375l1.390625 0l0 12.4375l-1.390625 0zm3.9164124 2.25q0.296875 0.15625 0.765625 0.15625q0.453125 0 0.765625 -0.203125q0.328125 -0.1875 0.578125 -0.75l0.59375 -1.359375l-3.765625 -9.109375l1.5 0l3.015625 7.390625l2.984375 -7.390625l1.515625 0l-4.5 10.84375q-0.75 1.796875 -2.65625 1.828125q-0.546875 0 -1.03125 -0.125l0.234375 -1.28125zm13.032196 1.40625q-1.15625 0 -2.0 -0.28125q-0.828125 -0.28125 -1.640625 -1.0625l0.71875 -1.046875q0.5625 0.671875 1.25 0.953125q0.703125 0.28125 1.671875 0.28125q1.390625 0 2.140625 -0.71875q0.75 -0.71875 0.75 -1.984375l0 -1.296875q-0.484375 0.703125 -1.28125 1.15625q-0.78125 0.453125 -1.734375 0.453125q-1.828125 0 -2.921875 -1.28125q-1.09375 -1.296875 -1.09375 -3.375q0 -2.171875 1.109375 -3.421875q1.109375 -1.265625 2.90625 -1.265625q1.859375 0 3.015625 1.578125l0 -1.359375l1.40625 0l0 8.75q0 1.90625 -1.125 2.90625q-1.109375 1.015625 -3.171875 1.015625zm0.203125 -4.78125q0.765625 0 1.515625 -0.40625q0.765625 -0.40625 1.171875 -1.0625l0 -3.9375q-0.40625 -0.65625 -1.171875 -1.046875q-0.765625 -0.40625 -1.515625 -0.40625q-1.3125 0 -2.109375 0.953125q-0.78125 0.953125 -0.78125 2.484375q0 1.546875 0.796875 2.484375q0.8125 0.9375 2.09375 0.9375zm10.818069 1.34375q-1.953125 0 -3.203125 -1.328125q-1.25 -1.328125 -1.25 -3.40625q0 -2.09375 1.25 -3.40625q1.25 -1.3125 3.203125 -1.3125q1.96875 0 3.21875 1.3125q1.25 1.3125 1.25 3.40625q0 2.078125 -1.25 3.40625q-1.25 1.328125 -3.21875 1.328125zm0 -1.25q1.3125 0 2.15625 -0.96875q0.84375 -0.984375 0.84375 -2.515625q0 -1.515625 -0.84375 -2.484375q-0.84375 -0.984375 -2.15625 -0.984375q-1.296875 0 -2.15625 0.96875q-0.84375 0.96875 -0.84375 2.5q0 1.546875 0.84375 2.515625q0.84375 0.96875 2.15625 0.96875zm12.827621 1.03125l0 -5.890625q0 -1.203125 -0.5625 -1.640625q-0.546875 -0.453125 -1.453125 -0.453125q-0.78125 0 -1.546875 0.421875q-0.75 0.421875 -1.125 0.984375l0 6.578125l-1.390625 0l0 -9.015625l1.390625 0l0 1.3125q0.578125 -0.671875 1.421875 -1.09375q0.859375 -0.4375 1.78125 -0.4375q2.875 0 2.875 2.90625l0 6.328125l-1.390625 0zm12.061661 0l1.140625 -3.375l-2.0625 0l-1.125 3.375l-1.15625 0l1.140625 -3.375l-1.984375 0l0.328125 -0.984375l1.984375 0l1.234375 -3.71875l-2.015625 0l0.296875 -0.96875l2.0625 0l1.109375 -3.390625l1.15625 0l-1.109375 3.390625l2.046875 0l1.125 -3.390625l1.125 0l-1.125 3.390625l1.984375 0l-0.28125 0.96875l-2.03125 0l-1.25 3.71875l2.078125 0l-0.296875 0.984375l-2.109375 0l-1.125 3.375l-1.140625 0zm2.6875 -8.078125l-2.046875 0l-1.234375 3.71875l2.046875 0l1.234375 -3.71875zm7.194687 8.078125l0 -10.390625l-2.0 2.109375l-0.9375 -0.953125l3.109375 -3.203125l1.375 0l0 12.4375l-1.546875 0z" fill-rule="nonzero"/><path fill="#000000" fill-opacity="0.0" d="m18.396326 313.31235l147.2441 0l0 59.08661l-147.2441 0z" fill-rule="evenodd"/><path fill="#666666" d="m46.886894 340.23233l0 -12.4375l5.0 0q1.78125 0 2.84375 1.0625q1.0625 1.0625 1.0625 2.6875q0 1.640625 -1.09375 2.703125q-1.078125 1.046875 -2.8125 1.046875l-3.453125 0l0 4.9375l-1.546875 0zm4.8125 -6.328125q1.125 0 1.796875 -0.640625q0.6875 -0.65625 0.6875 -1.71875q0 -1.0625 -0.6875 -1.71875q-0.671875 -0.65625 -1.796875 -0.65625l-3.265625 0l0 4.734375l3.265625 0zm9.771057 6.546875q-1.953125 0 -3.203125 -1.328125q-1.25 -1.328125 -1.25 -3.40625q0 -2.09375 1.25 -3.40625q1.25 -1.3125 3.203125 -1.3125q1.96875 0 3.21875 1.3125q1.25 1.3125 1.25 3.40625q0 2.078125 -1.25 3.40625q-1.25 1.328125 -3.21875 1.328125zm0 -1.25q1.3125 0 2.15625 -0.96875q0.84375 -0.984375 0.84375 -2.515625q0 -1.515625 -0.84375 -2.484375q-0.84375 -0.984375 -2.15625 -0.984375q-1.296875 0 -2.15625 0.96875q-0.84375 0.96875 -0.84375 2.5q0 1.546875 0.84375 2.515625q0.84375 0.96875 2.15625 0.96875zm6.7494965 1.03125l0 -12.4375l1.390625 0l0 12.4375l-1.390625 0zm3.9164124 2.25q0.296875 0.15625 0.765625 0.15625q0.453125 0 0.765625 -0.203125q0.328125 -0.1875 0.578125 -0.75l0.59375 -1.359375l-3.765625 -9.109375l1.5 0l3.015625 7.390625l2.984375 -7.390625l1.515625 0l-4.5 10.84375q-0.75 1.796875 -2.65625 1.828125q-0.546875 0 -1.03125 -0.125l0.234375 -1.28125zm13.032196 1.40625q-1.15625 0 -2.0 -0.28125q-0.828125 -0.28125 -1.640625 -1.0625l0.71875 -1.046875q0.5625 0.671875 1.25 0.953125q0.703125 0.28125 1.671875 0.28125q1.390625 0 2.140625 -0.71875q0.75 -0.71875 0.75 -1.984375l0 -1.296875q-0.484375 0.703125 -1.28125 1.15625q-0.78125 0.453125 -1.734375 0.453125q-1.828125 0 -2.921875 -1.28125q-1.09375 -1.296875 -1.09375 -3.375q0 -2.171875 1.109375 -3.421875q1.109375 -1.265625 2.90625 -1.265625q1.859375 0 3.015625 1.578125l0 -1.359375l1.40625 0l0 8.75q0 1.90625 -1.125 2.90625q-1.109375 1.015625 -3.171875 1.015625zm0.203125 -4.78125q0.765625 0 1.515625 -0.40625q0.765625 -0.40625 1.171875 -1.0625l0 -3.9375q-0.40625 -0.65625 -1.171875 -1.046875q-0.765625 -0.40625 -1.515625 -0.40625q-1.3125 0 -2.109375 0.953125q-0.78125 0.953125 -0.78125 2.484375q0 1.546875 0.796875 2.484375q0.8125 0.9375 2.09375 0.9375zm10.818069 1.34375q-1.953125 0 -3.203125 -1.328125q-1.25 -1.328125 -1.25 -3.40625q0 -2.09375 1.25 -3.40625q1.25 -1.3125 3.203125 -1.3125q1.96875 0 3.21875 1.3125q1.25 1.3125 1.25 3.40625q0 2.078125 -1.25 3.40625q-1.25 1.328125 -3.21875 1.328125zm0 -1.25q1.3125 0 2.15625 -0.96875q0.84375 -0.984375 0.84375 -2.515625q0 -1.515625 -0.84375 -2.484375q-0.84375 -0.984375 -2.15625 -0.984375q-1.296875 0 -2.15625 0.96875q-0.84375 0.96875 -0.84375 2.5q0 1.546875 0.84375 2.515625q0.84375 0.96875 2.15625 0.96875zm12.827621 1.03125l0 -5.890625q0 -1.203125 -0.5625 -1.640625q-0.546875 -0.453125 -1.453125 -0.453125q-0.78125 0 -1.546875 0.421875q-0.75 0.421875 -1.125 0.984375l0 6.578125l-1.390625 0l0 -9.015625l1.390625 0l0 1.3125q0.578125 -0.671875 1.421875 -1.09375q0.859375 -0.4375 1.78125 -0.4375q2.875 0 2.875 2.90625l0 6.328125l-1.390625 0zm12.061661 0l1.140625 -3.375l-2.0625 0l-1.125 3.375l-1.15625 0l1.140625 -3.375l-1.984375 0l0.328125 -0.984375l1.984375 0l1.234375 -3.71875l-2.015625 0l0.296875 -0.96875l2.0625 0l1.109375 -3.390625l1.15625 0l-1.109375 3.390625l2.046875 0l1.125 -3.390625l1.125 0l-1.125 3.390625l1.984375 0l-0.28125 0.96875l-2.03125 0l-1.25 3.71875l2.078125 0l-0.296875 0.984375l-2.109375 0l-1.125 3.375l-1.140625 0zm2.6875 -8.078125l-2.046875 0l-1.234375 3.71875l2.046875 0l1.234375 -3.71875zm4.8665695 8.078125l0 -1.234375q3.296875 -2.59375 4.515625 -3.765625q1.234375 -1.1875 1.8125 -2.125q0.578125 -0.953125 0.578125 -1.84375q0 -1.03125 -0.703125 -1.65625q-0.703125 -0.625 -1.890625 -0.625q-2.171875 0 -3.375 1.5625l-0.953125 -0.984375q0.71875 -0.953125 1.859375 -1.453125q1.15625 -0.5 2.46875 -0.5q1.8125 0 3.0 1.0q1.1875 0.984375 1.1875 2.65625q0 1.5 -1.28125 3.171875q-1.28125 1.671875 -4.765625 4.421875l6.09375 0l0 1.375l-8.546875 0z" fill-rule="nonzero"/><path fill="#000000" fill-opacity="0.0" d="m70.03937 55.254692l59.968506 0l0 26.897636l-59.968506 0z" fill-rule="evenodd"/><path fill="#666666" d="m89.43858 75.074066q-0.625 -0.875 -0.96875 -1.9375q-0.34375 -1.0625 -0.34375 -2.1875q0 -1.125 0.34375 -2.1875q0.34375 -1.0625 0.96875 -1.9375l0.421875 0.3125q-0.5625 1.125 -0.765625 1.96875q-0.203125 0.828125 -0.203125 1.84375q0 1.0 0.203125 1.859375q0.21875 0.84375 0.765625 1.9375l-0.421875 0.328125zm4.2196198 -1.859375l-1.359375 -1.84375l-1.34375 1.84375l-0.8125 0l1.734375 -2.3125l-1.640625 -2.1875l0.8125 0l1.25 1.703125l1.25 -1.703125l0.8125 0l-1.625 2.1875l1.734375 2.3125l-0.8125 0zm2.5647125 0l0 -5.203125l-1.0 1.0625l-0.453125 -0.484375l1.546875 -1.59375l0.6875 0l0 6.21875l-0.78125 0zm3.1466064 -0.21875q0 0.421875 -0.21875 0.796875q-0.21875 0.375 -0.546875 0.609375l-0.34375 -0.296875q0.21875 -0.140625 0.390625 -0.390625q0.1875 -0.234375 0.21875 -0.46875l-0.140625 0.015625q-0.1875 0 -0.3125 -0.125q-0.125 -0.140625 -0.125 -0.34375q0 -0.21875 0.140625 -0.359375q0.140625 -0.15625 0.34375 -0.15625q0.234375 0 0.40625 0.1875q0.1875 0.1875 0.1875 0.53125zm3.473999 1.34375q0.140625 0.078125 0.375 0.078125q0.234375 0 0.390625 -0.109375q0.171875 -0.09375 0.28125 -0.359375l0.296875 -0.6875l-1.875 -4.546875l0.75 0l1.5 3.6875l1.5 -3.6875l0.765625 0l-2.265625 5.421875q-0.375 0.890625 -1.328125 0.90625q-0.265625 0 -0.5 -0.0625l0.109375 -0.640625zm5.6645355 -1.125l0 -5.203125l-1.0 1.0625l-0.453125 -0.484375l1.546875 -1.59375l0.6875 0l0 6.21875l-0.78125 0zm1.6622314 1.53125q0.546875 -1.078125 0.765625 -1.953125q0.21875 -0.890625 0.21875 -1.84375q0 -0.953125 -0.21875 -1.8125q-0.203125 -0.859375 -0.765625 -2.0l0.421875 -0.3125q0.640625 0.875 0.984375 1.9375q0.34375 1.0625 0.34375 2.1875q0 1.125 -0.34375 2.1875q-0.34375 1.0625 -0.984375 1.9375l-0.421875 -0.328125z" fill-rule="nonzero"/><path fill="#000000" fill-opacity="0.0" d="m86.66232 4.1637363l59.968506 0l0 26.897638l-59.968506 0z" fill-rule="evenodd"/><path fill="#666666" d="m103.73883 23.98311q-0.625 -0.875 -0.96875 -1.9375q-0.34375 -1.0625 -0.34375 -2.1875q0 -1.125 0.34375 -2.1875q0.34375 -1.0625 0.96875 -1.9375l0.421875 0.3125q-0.5625 1.125 -0.765625 1.96875q-0.203125 0.828125 -0.203125 1.84375q0 1.0 0.203125 1.859375q0.21875 0.84375 0.765625 1.9375l-0.421875 0.328125zm4.2196198 -1.859375l-1.359375 -1.84375l-1.34375 1.84375l-0.8125 0l1.734375 -2.3125l-1.640625 -2.1875l0.8125 0l1.25 1.703125l1.25 -1.703125l0.8125 0l-1.625 2.1875l1.734375 2.3125l-0.8125 0zm1.4084625 0l0 -0.609375q1.640625 -1.296875 2.25 -1.890625q0.625 -0.59375 0.90625 -1.0625q0.296875 -0.484375 0.296875 -0.921875q0 -0.515625 -0.359375 -0.828125q-0.34375 -0.3125 -0.9375 -0.3125q-1.09375 0 -1.6875 0.78125l-0.46875 -0.484375q0.34375 -0.484375 0.921875 -0.734375q0.578125 -0.25 1.234375 -0.25q0.90625 0 1.5 0.5q0.59375 0.5 0.59375 1.328125q0 0.75 -0.640625 1.59375q-0.640625 0.828125 -2.390625 2.203125l3.0625 0l0 0.6875l-4.28125 0zm6.6255646 -0.21875q0 0.421875 -0.21875 0.796875q-0.21875 0.375 -0.546875 0.609375l-0.34375 -0.296875q0.21875 -0.140625 0.390625 -0.390625q0.1875 -0.234375 0.21875 -0.46875l-0.140625 0.015625q-0.1875 0 -0.3125 -0.125q-0.125 -0.140625 -0.125 -0.34375q0 -0.21875 0.140625 -0.359375q0.140625 -0.15625 0.34375 -0.15625q0.234375 0 0.40625 0.1875q0.1875 0.1875 0.1875 0.53125zm3.473999 1.34375q0.140625 0.078125 0.375 0.078125q0.234375 0 0.390625 -0.109375q0.171875 -0.09375 0.28125 -0.359375l0.296875 -0.6875l-1.875 -4.546875l0.75 0l1.5 3.6875l1.5 -3.6875l0.765625 0l-2.265625 5.421875q-0.375 0.890625 -1.328125 0.90625q-0.265625 0 -0.5 -0.0625l0.109375 -0.640625zm4.5082855 -1.125l0 -0.609375q1.640625 -1.296875 2.25 -1.890625q0.625 -0.59375 0.90625 -1.0625q0.296875 -0.484375 0.296875 -0.921875q0 -0.515625 -0.359375 -0.828125q-0.34375 -0.3125 -0.9375 -0.3125q-1.09375 0 -1.6875 0.78125l-0.46875 -0.484375q0.34375 -0.484375 0.921875 -0.734375q0.578125 -0.25 1.234375 -0.25q0.90625 0 1.5 0.5q0.59375 0.5 0.59375 1.328125q0 0.75 -0.640625 1.59375q-0.640625 0.828125 -2.390625 2.203125l3.0625 0l0 0.6875l-4.28125 0zm5.1411896 1.53125q0.546875 -1.078125 0.765625 -1.953125q0.21875 -0.890625 0.21875 -1.84375q0 -0.953125 -0.21875 -1.8125q-0.203125 -0.859375 -0.765625 -2.0l0.421875 -0.3125q0.640625 0.875 0.984375 1.9375q0.34375 1.0625 0.34375 2.1875q0 1.125 -0.34375 2.1875q-0.34375 1.0625 -0.984375 1.9375l-0.421875 -0.328125z" fill-rule="nonzero"/><path fill="#000000" fill-opacity="0.0" d="m142.74812 42.012413l59.968506 0l0 26.897636l-59.968506 0z" fill-rule="evenodd"/><path fill="#666666" d="m160.1138 61.831787q-0.625 -0.875 -0.96875 -1.9375q-0.34375 -1.0625 -0.34375 -2.1875q0 -1.125 0.34375 -2.1875q0.34375 -1.0625 0.96875 -1.9375l0.421875 0.3125q-0.5625 1.125 -0.765625 1.96875q-0.203125 0.828125 -0.203125 1.84375q0 1.0 0.203125 1.859375q0.21875 0.84375 0.765625 1.9375l-0.421875 0.328125zm4.2196198 -1.859375l-1.359375 -1.84375l-1.34375 1.84375l-0.8125 0l1.734375 -2.3125l-1.640625 -2.1875l0.8125 0l1.25 1.703125l1.25 -1.703125l0.8125 0l-1.625 2.1875l1.734375 2.3125l-0.8125 0zm3.3928375 0.109375q-0.796875 0 -1.359375 -0.296875q-0.5625 -0.3125 -0.859375 -0.734375l0.46875 -0.484375q0.265625 0.375 0.71875 0.609375q0.453125 0.21875 1.015625 0.21875q0.671875 0 1.0625 -0.3125q0.390625 -0.3125 0.390625 -0.859375q0 -0.546875 -0.40625 -0.8125q-0.40625 -0.28125 -1.140625 -0.28125l-0.390625 0l-0.265625 0.015625l0 -0.71875l0.28125 0.015625l0.375 0q0.671875 0 1.046875 -0.265625q0.390625 -0.28125 0.390625 -0.765625q0 -0.46875 -0.390625 -0.765625q-0.375 -0.296875 -1.0 -0.296875q-0.9375 0 -1.640625 0.75l-0.421875 -0.484375q0.78125 -0.953125 2.125 -0.953125q0.953125 0 1.53125 0.453125q0.578125 0.453125 0.578125 1.203125q0 0.5625 -0.390625 0.96875q-0.375 0.390625 -0.953125 0.484375q0.578125 0.046875 1.0 0.484375q0.4375 0.421875 0.4375 1.046875q0 0.796875 -0.609375 1.296875q-0.609375 0.484375 -1.59375 0.484375zm4.3520203 -0.328125q0 0.421875 -0.21875 0.796875q-0.21875 0.375 -0.546875 0.609375l-0.34375 -0.296875q0.21875 -0.140625 0.390625 -0.390625q0.1875 -0.234375 0.21875 -0.46875l-0.140625 0.015625q-0.1875 0 -0.3125 -0.125q-0.125 -0.140625 -0.125 -0.34375q0 -0.21875 0.140625 -0.359375q0.140625 -0.15625 0.34375 -0.15625q0.234375 0 0.40625 0.1875q0.1875 0.1875 0.1875 0.53125zm3.473999 1.34375q0.140625 0.078125 0.375 0.078125q0.234375 0 0.390625 -0.109375q0.171875 -0.09375 0.28125 -0.359375l0.296875 -0.6875l-1.875 -4.546875l0.75 0l1.5 3.6875l1.5 -3.6875l0.765625 0l-2.265625 5.421875q-0.375 0.890625 -1.328125 0.90625q-0.265625 0 -0.5 -0.0625l0.109375 -0.640625zm6.4926605 -1.015625q-0.796875 0 -1.359375 -0.296875q-0.5625 -0.3125 -0.859375 -0.734375l0.46875 -0.484375q0.265625 0.375 0.71875 0.609375q0.453125 0.21875 1.015625 0.21875q0.671875 0 1.0625 -0.3125q0.390625 -0.3125 0.390625 -0.859375q0 -0.546875 -0.40625 -0.8125q-0.40625 -0.28125 -1.140625 -0.28125l-0.390625 0l-0.265625 0.015625l0 -0.71875l0.28125 0.015625l0.375 0q0.671875 0 1.046875 -0.265625q0.390625 -0.28125 0.390625 -0.765625q0 -0.46875 -0.390625 -0.765625q-0.375 -0.296875 -1.0 -0.296875q-0.9375 0 -1.640625 0.75l-0.421875 -0.484375q0.78125 -0.953125 2.125 -0.953125q0.953125 0 1.53125 0.453125q0.578125 0.453125 0.578125 1.203125q0 0.5625 -0.390625 0.96875q-0.375 0.390625 -0.953125 0.484375q0.578125 0.046875 1.0 0.484375q0.4375 0.421875 0.4375 1.046875q0 0.796875 -0.609375 1.296875q-0.609375 0.484375 -1.59375 0.484375zm2.8676453 1.421875q0.546875 -1.078125 0.765625 -1.953125q0.21875 -0.890625 0.21875 -1.84375q0 -0.953125 -0.21875 -1.8125q-0.203125 -0.859375 -0.765625 -2.0l0.421875 -0.3125q0.640625 0.875 0.984375 1.9375q0.34375 1.0625 0.34375 2.1875q0 1.125 -0.34375 2.1875q-0.34375 1.0625 -0.984375 1.9375l-0.421875 -0.328125z" fill-rule="nonzero"/><path fill="#000000" fill-opacity="0.0" d="m71.2985 102.75863l59.968513 0l0 26.897636l-59.968513 0z" fill-rule="evenodd"/><path fill="#666666" d="m88.654854 122.578q-0.625 -0.875 -0.96875 -1.9375q-0.34375 -1.0625 -0.34375 -2.1875q0 -1.125 0.34375 -2.1875q0.34375 -1.0625 0.96875 -1.9375l0.421875 0.3125q-0.5625 1.125 -0.765625 1.96875q-0.203125 0.828125 -0.203125 1.84375q0 1.0 0.203125 1.859375q0.21875 0.84375 0.765625 1.9375l-0.421875 0.328125zm4.2196198 -1.859375l-1.359375 -1.84375l-1.34375 1.84375l-0.8125 0l1.734375 -2.3125l-1.640625 -2.1875l0.8125 0l1.25 1.703125l1.25 -1.703125l0.8125 0l-1.625 2.1875l1.734375 2.3125l-0.8125 0zm4.1584625 0l0 -1.578125l-2.953125 0l0 -0.640625l2.671875 -4.0l1.0625 0l0 3.96875l0.875 0l0 0.671875l-0.875 0l0 1.578125l-0.78125 0zm0 -5.5l-2.171875 3.25l2.171875 0l0 -3.25zm3.5957184 5.28125q0 0.421875 -0.21875 0.796875q-0.21875 0.375 -0.546875 0.609375l-0.34375 -0.296875q0.21875 -0.140625 0.390625 -0.390625q0.1875 -0.234375 0.21875 -0.46875l-0.140625 0.015625q-0.1875 0 -0.3125 -0.125q-0.125 -0.140625 -0.125 -0.34375q0 -0.21875 0.140625 -0.359375q0.140625 -0.15625 0.34375 -0.15625q0.234375 0 0.40625 0.1875q0.1875 0.1875 0.1875 0.53125zm3.473999 1.34375q0.140625 0.078125 0.375 0.078125q0.234375 0 0.390625 -0.109375q0.171875 -0.09375 0.28125 -0.359375l0.296875 -0.6875l-1.875 -4.546875l0.75 0l1.5 3.6875l1.5 -3.6875l0.765625 0l-2.265625 5.421875q-0.375 0.890625 -1.328125 0.90625q-0.265625 0 -0.5 -0.0625l0.109375 -0.640625zm7.2582855 -1.125l0 -1.578125l-2.953125 0l0 -0.640625l2.671875 -4.0l1.0625 0l0 3.96875l0.875 0l0 0.671875l-0.875 0l0 1.578125l-0.78125 0zm0 -5.5l-2.171875 3.25l2.171875 0l0 -3.25zm2.1113434 7.03125q0.546875 -1.078125 0.765625 -1.953125q0.21875 -0.890625 0.21875 -1.84375q0 -0.953125 -0.21875 -1.8125q-0.203125 -0.859375 -0.765625 -2.0l0.421875 -0.3125q0.640625 0.875 0.984375 1.9375q0.34375 1.0625 0.34375 2.1875q0 1.125 -0.34375 2.1875q-0.34375 1.0625 -0.984375 1.9375l-0.421875 -0.328125z" fill-rule="nonzero"/><path fill="#000000" fill-opacity="0.0" d="m-10.609733 70.12255l59.968506 0l0 26.897636l-59.968506 0z" fill-rule="evenodd"/><path fill="#666666" d="m6.4481115 89.941925q-0.625 -0.875 -0.96875 -1.9375q-0.34375 -1.0625 -0.34375 -2.1875q0 -1.125 0.34375 -2.1875q0.34375 -1.0625 0.96875 -1.9375l0.421875 0.3125q-0.5625 1.125 -0.765625 1.96875q-0.203125 0.828125 -0.203125 1.84375q0 1.0 0.203125 1.859375q0.21875 0.84375 0.765625 1.9375l-0.421875 0.328125zm4.2196198 -1.859375l-1.359375 -1.84375l-1.34375 1.84375l-0.8125 0l1.734375 -2.3125l-1.640625 -2.1875l0.8125 0l1.25 1.703125l1.25 -1.703125l0.8125 0l-1.625 2.1875l1.734375 2.3125l-0.8125 0zm3.7209625 0.109375q-1.4375 0 -2.203125 -1.0l0.484375 -0.515625q0.640625 0.828125 1.71875 0.828125q0.625 0 1.03125 -0.375q0.40625 -0.375 0.40625 -0.953125q0 -0.59375 -0.390625 -0.96875q-0.390625 -0.375 -1.046875 -0.375q-0.828125 0 -1.4375 0.578125l-0.5625 -0.1875l0 -3.359375l3.812499 0l0 0.6875l-3.046874 0l0 2.15625q0.234375 -0.21875 0.609375 -0.375q0.375 -0.171875 0.859375 -0.171875q0.84375 0 1.406249 0.546875q0.5625 0.546875 0.5625 1.4375q0 0.921875 -0.60937405 1.484375q-0.609375 0.5625 -1.59375 0.5625zm4.331725 -0.328125q0 0.421875 -0.21875 0.796875q-0.21875 0.375 -0.546875 0.609375l-0.34375 -0.296875q0.21875 -0.140625 0.390625 -0.390625q0.1875 -0.234375 0.21875 -0.46875l-0.140625 0.015625q-0.1875 0 -0.3125 -0.125q-0.125 -0.140625 -0.125 -0.34375q0 -0.21875 0.140625 -0.359375q0.140625 -0.15625 0.34375 -0.15625q0.234375 0 0.40625 0.1875q0.1875 0.1875 0.1875 0.53125zm3.474001 1.34375q0.140625 0.078125 0.375 0.078125q0.234375 0 0.390625 -0.109375q0.171875 -0.09375 0.28125 -0.359375l0.296875 -0.6875l-1.875 -4.546875l0.75 0l1.5 3.6875l1.5 -3.6875l0.765625 0l-2.265625 5.421875q-0.375 0.890625 -1.328125 0.90625q-0.265625 0 -0.5 -0.0625l0.109375 -0.640625zm6.8207855 -1.015625q-1.4375 0 -2.203125 -1.0l0.484375 -0.515625q0.640625 0.828125 1.71875 0.828125q0.625 0 1.03125 -0.375q0.40625 -0.375 0.40625 -0.953125q0 -0.59375 -0.390625 -0.96875q-0.390625 -0.375 -1.046875 -0.375q-0.828125 0 -1.4375 0.578125l-0.5625 -0.1875l0 -3.359375l3.8125 0l0 0.6875l-3.046875 0l0 2.15625q0.234375 -0.21875 0.609375 -0.375q0.375 -0.171875 0.859375 -0.171875q0.84375 0 1.40625 0.546875q0.5625 0.546875 0.5625 1.4375q0 0.921875 -0.609375 1.484375q-0.609375 0.5625 -1.59375 0.5625zm2.847351 1.421875q0.546875 -1.078125 0.765625 -1.953125q0.21875 -0.890625 0.21875 -1.84375q0 -0.953125 -0.21875 -1.8125q-0.203125 -0.859375 -0.765625 -2.0l0.421875 -0.3125q0.640625 0.875 0.984375 1.9375q0.34375 1.0625 0.34375 2.1875q0 1.125 -0.34375 2.1875q-0.34375 1.0625 -0.984375 1.9375l-0.421875 -0.328125z" fill-rule="nonzero"/><path fill="#000000" fill-opacity="0.0" d="m30.758646 19.306278l59.968506 0l0 26.897636l-59.968506 0z" fill-rule="evenodd"/><path fill="#666666" d="m47.807167 39.125652q-0.625 -0.875 -0.96875 -1.9375q-0.34375 -1.0625 -0.34375 -2.1875q0 -1.125 0.34375 -2.1875q0.34375 -1.0625 0.96875 -1.9375l0.421875 0.3125q-0.5625 1.125 -0.765625 1.96875q-0.203125 0.828125 -0.203125 1.84375q0 1.0 0.203125 1.859375q0.21875 0.84375 0.765625 1.9375l-0.421875 0.328125zm4.2196198 -1.859375l-1.359375 -1.84375l-1.34375 1.84375l-0.8125 0l1.734375 -2.3125l-1.640625 -2.1875l0.8125 0l1.25 1.703125l1.25 -1.703125l0.8125 0l-1.625 2.1875l1.734375 2.3125l-0.8125 0zm3.7834625 0.109375q-1.125 0 -1.765625 -0.84375q-0.640625 -0.84375 -0.640625 -2.359375q0 -1.484375 0.6875 -2.34375q0.6875 -0.875 1.84375 -0.875q1.0625 0 1.734375 0.75l-0.390625 0.578125q-0.25 -0.28125 -0.546875 -0.453125q-0.296875 -0.1875 -0.796875 -0.1875q-0.78125 0 -1.265625 0.6875q-0.484375 0.671875 -0.484375 1.75l0 0.125l0.015625 0.125q0.28125 -0.4375 0.78125 -0.703125q0.5 -0.265625 0.96875 -0.265625q0.90625 0 1.46875 0.53125q0.578125 0.53125 0.578125 1.453125q0 0.875 -0.609375 1.453125q-0.609375 0.578125 -1.578125 0.578125zm-0.03125 -0.6875q0.640625 0 1.03125 -0.390625q0.390625 -0.390625 0.390625 -0.921875q0 -0.640625 -0.390625 -0.984375q-0.375 -0.359375 -1.046875 -0.359375q-0.453125 0 -0.875 0.265625q-0.40625 0.25 -0.671875 0.671875q0.078125 0.78125 0.484375 1.25q0.40625 0.46875 1.078125 0.46875zm4.309799 0.359375q0 0.421875 -0.21875 0.796875q-0.21875 0.375 -0.546875 0.609375l-0.34375 -0.296875q0.21875 -0.140625 0.390625 -0.390625q0.1875 -0.234375 0.21875 -0.46875l-0.140625 0.015625q-0.1875 0 -0.3125 -0.125q-0.125 -0.140625 -0.125 -0.34375q0 -0.21875 0.140625 -0.359375q0.140625 -0.15625 0.34375 -0.15625q0.234375 0 0.40625 0.1875q0.1875 0.1875 0.1875 0.53125zm3.4740028 1.34375q0.140625 0.078125 0.375 0.078125q0.23437119 0 0.3906212 -0.109375q0.171875 -0.09375 0.28125 -0.359375l0.296875 -0.6875l-1.8749962 -4.546875l0.75 0l1.4999962 3.6875l1.5 -3.6875l0.765625 0l-2.265625 5.421875q-0.375 0.890625 -1.3281212 0.90625q-0.265625 0 -0.5 -0.0625l0.109375 -0.640625zm6.8832817 -1.015625q-1.125 0 -1.765625 -0.84375q-0.640625 -0.84375 -0.640625 -2.359375q0 -1.484375 0.6875 -2.34375q0.6875 -0.875 1.84375 -0.875q1.0625 0 1.734375 0.75l-0.390625 0.578125q-0.25 -0.28125 -0.546875 -0.453125q-0.296875 -0.1875 -0.796875 -0.1875q-0.78125 0 -1.265625 0.6875q-0.484375 0.671875 -0.484375 1.75l0 0.125l0.015625 0.125q0.28125 -0.4375 0.78125 -0.703125q0.5 -0.265625 0.96875 -0.265625q0.90625 0 1.46875 0.53125q0.578125 0.53125 0.578125 1.453125q0 0.875 -0.609375 1.453125q-0.609375 0.578125 -1.578125 0.578125zm-0.03125 -0.6875q0.640625 0 1.03125 -0.390625q0.390625 -0.390625 0.390625 -0.921875q0 -0.640625 -0.390625 -0.984375q-0.375 -0.359375 -1.046875 -0.359375q-0.453125 0 -0.875 0.265625q-0.40625 0.25 -0.671875 0.671875q0.078125 0.78125 0.484375 1.25q0.40625 0.46875 1.078125 0.46875zm2.8254242 2.109375q0.546875 -1.078125 0.765625 -1.953125q0.21875 -0.890625 0.21875 -1.84375q0 -0.953125 -0.21875 -1.8125q-0.203125 -0.859375 -0.765625 -2.0l0.421875 -0.3125q0.640625 0.875 0.984375 1.9375q0.34375 1.0625 0.34375 2.1875q0 1.125 -0.34375 2.1875q-0.34375 1.0625 -0.984375 1.9375l-0.421875 -0.328125z" fill-rule="nonzero"/><path fill="#000000" fill-opacity="0.0" d="m66.84597 224.07379l59.968506 0l0 26.897644l-59.968506 0z" fill-rule="evenodd"/><path fill="#666666" d="m85.0561 243.89317q-0.625 -0.875 -0.96875 -1.9375q-0.34375 -1.0625 -0.34375 -2.1875q0 -1.125 0.34375 -2.1875q0.34375 -1.0625 0.96875 -1.9375l0.421875 0.3125q-0.5625 1.125 -0.765625 1.96875q-0.203125 0.828125 -0.203125 1.84375q0 1.0 0.203125 1.859375q0.21875 0.84375 0.765625 1.9375l-0.421875 0.328125zm4.2196198 -1.859375l-1.359375 -1.84375l-1.34375 1.84375l-0.8125 0l1.734375 -2.3125l-1.640625 -2.1875l0.8125 0l1.25 1.703125l1.25 -1.703125l0.8125 0l-1.625 2.1875l1.734375 2.3125l-0.8125 0zm2.0334625 0l2.515625 -5.53125l-3.34375 0l0 -0.6875l4.234375 0l0 0.53125l-2.546875 5.6875l-0.859375 0zm4.414276 -0.21875q0 0.421875 -0.21875 0.796875q-0.21875 0.375 -0.546875 0.609375l-0.34375 -0.296875q0.21875 -0.140625 0.390625 -0.390625q0.1875 -0.234375 0.21875 -0.46875l-0.140625 0.015625q-0.1875 0 -0.3125 -0.125q-0.125 -0.140625 -0.125 -0.34375q0 -0.21875 0.140625 -0.359375q0.140625 -0.15625 0.34375 -0.15625q0.234375 0 0.40625 0.1875q0.1875 0.1875 0.1875 0.53125zm3.473999 1.34375q0.140625 0.078125 0.375 0.078125q0.234375 0 0.390625 -0.109375q0.171875 -0.09375 0.28125 -0.359375l0.296875 -0.6875l-1.875 -4.546875l0.75 0l1.5 3.6875l1.5 -3.6875l0.765625 0l-2.265625 5.421875q-0.375 0.890625 -1.328125 0.90625q-0.265625 0 -0.5 -0.0625l0.109375 -0.640625zm5.1332855 -1.125l2.515625 -5.53125l-3.34375 0l0 -0.6875l4.234375 0l0 0.53125l-2.546875 5.6875l-0.859375 0zm3.8352356 1.53125q0.546875 -1.078125 0.765625 -1.953125q0.21875 -0.890625 0.21875 -1.84375q0 -0.953125 -0.21875 -1.8125q-0.203125 -0.859375 -0.765625 -2.0l0.421875 -0.3125q0.640625 0.875 0.984375 1.9375q0.34375 1.0625 0.34375 2.1875q0 1.125 -0.34375 2.1875q-0.34375 1.0625 -0.984375 1.9375l-0.421875 -0.328125z" fill-rule="nonzero"/><path fill="#000000" fill-opacity="0.0" d="m107.36575 255.14264l59.968506 0l0 26.897644l-59.968506 0z" fill-rule="evenodd"/><path fill="#666666" d="m124.50755 274.962q-0.625 -0.875 -0.96875 -1.9375q-0.34375 -1.0625 -0.34375 -2.1875q0 -1.125 0.34375 -2.1875q0.34375 -1.0625 0.96875 -1.9375l0.421875 0.3125q-0.5625 1.125 -0.765625 1.96875q-0.203125 0.828125 -0.203125 1.84375q0 1.0 0.203125 1.859375q0.21875 0.84375 0.765625 1.9375l-0.421875 0.328125zm4.2196198 -1.859375l-1.359375 -1.84375l-1.34375 1.84375l-0.8125 0l1.734375 -2.3125l-1.640625 -2.1875l0.8125 0l1.25 1.703125l1.25 -1.703125l0.8125 0l-1.625 2.1875l1.734375 2.3125l-0.8125 0zm3.6272125 0.109375q-1.015625 0 -1.625 -0.46875q-0.609375 -0.484375 -0.609375 -1.21875q0 -0.546875 0.390625 -0.984375q0.40625 -0.4375 1.09375 -0.640625q-0.625 -0.1875 -1.0 -0.5625q-0.375 -0.390625 -0.375 -0.9375q0 -0.71875 0.59375 -1.15625q0.59375 -0.453125 1.53125 -0.453125q0.9375 0 1.53125 0.453125q0.59375 0.4375 0.59375 1.15625q0 0.53125 -0.375 0.921875q-0.359375 0.390625 -1.015625 0.578125q0.6875 0.1875 1.078125 0.640625q0.40625 0.4375 0.40625 0.984375q0 0.75 -0.640625 1.21875q-0.625 0.46875 -1.578125 0.46875zm0 -3.640625q1.34375 -0.265625 1.34375 -1.0625q0 -0.46875 -0.375 -0.75q-0.375 -0.28125 -0.96875 -0.28125q-0.59375 0 -0.984375 0.28125q-0.375 0.28125 -0.375 0.75q0 0.796875 1.359375 1.0625zm0 2.953125q0.609375 0 1.015625 -0.296875q0.421875 -0.296875 0.421875 -0.78125q0 -0.4375 -0.421875 -0.78125q-0.421875 -0.359375 -1.015625 -0.421875q-0.59375 0.0625 -1.03125 0.40625q-0.421875 0.34375 -0.421875 0.796875q0 0.484375 0.40625 0.78125q0.421875 0.296875 1.046875 0.296875zm4.341522 0.359375q0 0.421875 -0.21875 0.796875q-0.21875 0.375 -0.546875 0.609375l-0.34375 -0.296875q0.21875 -0.140625 0.390625 -0.390625q0.1875 -0.234375 0.21875 -0.46875l-0.140625 0.015625q-0.1875 0 -0.3125 -0.125q-0.125 -0.140625 -0.125 -0.34375q0 -0.21875 0.140625 -0.359375q0.140625 -0.15625 0.34375 -0.15625q0.234375 0 0.40625 0.1875q0.1875 0.1875 0.1875 0.53125zm3.473999 1.34375q0.140625 0.078125 0.375 0.078125q0.234375 0 0.390625 -0.109375q0.171875 -0.09375 0.28125 -0.359375l0.296875 -0.6875l-1.875 -4.546875l0.75 0l1.5 3.6875l1.5 -3.6875l0.765625 0l-2.265625 5.421875q-0.375 0.890625 -1.328125 0.90625q-0.265625 0 -0.5 -0.0625l0.109375 -0.640625zm6.7270355 -1.015625q-1.015625 0 -1.625 -0.46875q-0.609375 -0.484375 -0.609375 -1.21875q0 -0.546875 0.390625 -0.984375q0.40625 -0.4375 1.09375 -0.640625q-0.625 -0.1875 -1.0 -0.5625q-0.375 -0.390625 -0.375 -0.9375q0 -0.71875 0.59375 -1.15625q0.59375 -0.453125 1.53125 -0.453125q0.9375 0 1.53125 0.453125q0.59375 0.4375 0.59375 1.15625q0 0.53125 -0.375 0.921875q-0.359375 0.390625 -1.015625 0.578125q0.6875 0.1875 1.078125 0.640625q0.40625 0.4375 0.40625 0.984375q0 0.75 -0.640625 1.21875q-0.625 0.46875 -1.578125 0.46875zm0 -3.640625q1.34375 -0.265625 1.34375 -1.0625q0 -0.46875 -0.375 -0.75q-0.375 -0.28125 -0.96875 -0.28125q-0.59375 0 -0.984375 0.28125q-0.375 0.28125 -0.375 0.75q0 0.796875 1.359375 1.0625zm0 2.953125q0.609375 0 1.015625 -0.296875q0.421875 -0.296875 0.421875 -0.78125q0 -0.4375 -0.421875 -0.78125q-0.421875 -0.359375 -1.015625 -0.421875q-0.59375 0.0625 -1.03125 0.40625q-0.421875 0.34375 -0.421875 0.796875q0 0.484375 0.40625 0.78125q0.421875 0.296875 1.046875 0.296875zm2.8571472 2.109375q0.546875 -1.078125 0.765625 -1.953125q0.21875 -0.890625 0.21875 -1.84375q0 -0.953125 -0.21875 -1.8125q-0.203125 -0.859375 -0.765625 -2.0l0.421875 -0.3125q0.640625 0.875 0.984375 1.9375q0.34375 1.0625 0.34375 2.1875q0 1.125 -0.34375 2.1875q-0.34375 1.0625 -0.984375 1.9375l-0.421875 -0.328125z" fill-rule="nonzero"/><path fill="#000000" fill-opacity="0.0" d="m56.83486 291.60538l59.968506 0l0 26.897644l-59.968506 0z" fill-rule="evenodd"/><path fill="#666666" d="m74.02805 311.42477q-0.625 -0.875 -0.96875 -1.9375q-0.34375 -1.0625 -0.34375 -2.1875q0 -1.125 0.34375 -2.1875q0.34375 -1.0625 0.96875 -1.9375l0.421875 0.3125q-0.5625 1.125 -0.765625 1.96875q-0.203125 0.828125 -0.203125 1.84375q0 1.0 0.203125 1.859375q0.21875 0.84375 0.765625 1.9375l-0.421875 0.328125zm4.2196198 -1.859375l-1.359375 -1.84375l-1.34375 1.84375l-0.8125 0l1.734375 -2.3125l-1.640625 -2.1875l0.8125 0l1.25 1.703125l1.25 -1.703125l0.8125 0l-1.625 2.1875l1.734375 2.3125l-0.8125 0zm3.4240875 0.109375q-1.0625 0 -1.734375 -0.75l0.390625 -0.578125q0.25 0.28125 0.546875 0.453125q0.3125 0.171875 0.796875 0.171875q0.8125 0 1.28125 -0.671875q0.46875 -0.671875 0.46875 -1.75l0 -0.140625l-0.015625 -0.125q-0.265625 0.421875 -0.765625 0.703125q-0.5 0.28125 -0.984375 0.28125q-0.921875 0 -1.484375 -0.546875q-0.5625 -0.546875 -0.5625 -1.453125q0 -0.859375 0.609375 -1.4375q0.609375 -0.59375 1.5625 -0.59375q1.140625 0 1.765625 0.859375q0.640625 0.84375 0.640625 2.359375q0 1.46875 -0.6875 2.34375q-0.671875 0.875 -1.828125 0.875zm0.15625 -3.078125q0.46875 0 0.890625 -0.25q0.421875 -0.265625 0.65625 -0.6875q-0.078125 -0.828125 -0.5 -1.28125q-0.421875 -0.453125 -1.046875 -0.453125q-0.625 0 -1.03125 0.390625q-0.40625 0.390625 -0.40625 0.9375q0 0.625 0.390625 0.984375q0.390625 0.359375 1.046875 0.359375zm4.192337 2.75q0 0.421875 -0.21875 0.796875q-0.21875 0.375 -0.546875 0.609375l-0.34375 -0.296875q0.21875 -0.140625 0.390625 -0.390625q0.1875 -0.234375 0.21875 -0.46875l-0.140625 0.015625q-0.1875 0 -0.3125 -0.125q-0.125 -0.140625 -0.125 -0.34375q0 -0.21875 0.140625 -0.359375q0.140625 -0.15625 0.34375 -0.15625q0.234375 0 0.40625 0.1875q0.1875 0.1875 0.1875 0.53125zm3.473999 1.34375q0.140625 0.078125 0.375 0.078125q0.234375 0 0.390625 -0.109375q0.171875 -0.09375 0.28125 -0.359375l0.296875 -0.6875l-1.875 -4.546875l0.75 0l1.5 3.6875l1.5 -3.6875l0.765625 0l-2.265625 5.421875q-0.375 0.890625 -1.328125 0.90625q-0.265625 0 -0.5 -0.0625l0.109375 -0.640625zm6.5239105 -1.015625q-1.0625 0 -1.734375 -0.75l0.390625 -0.578125q0.25 0.28125 0.546875 0.453125q0.3125 0.171875 0.796875 0.171875q0.8125 0 1.28125 -0.671875q0.46875 -0.671875 0.46875 -1.75l0 -0.140625l-0.015625 -0.125q-0.265625 0.421875 -0.765625 0.703125q-0.5 0.28125 -0.984375 0.28125q-0.921875 0 -1.484375 -0.546875q-0.5625 -0.546875 -0.5625 -1.453125q0 -0.859375 0.609375 -1.4375q0.609375 -0.59375 1.5625 -0.59375q1.140625 0 1.765625 0.859375q0.640625 0.84375 0.640625 2.359375q0 1.46875 -0.6875 2.34375q-0.671875 0.875 -1.828125 0.875zm0.15625 -3.078125q0.46875 0 0.890625 -0.25q0.421875 -0.265625 0.65625 -0.6875q-0.078125 -0.828125 -0.5 -1.28125q-0.421875 -0.453125 -1.046875 -0.453125q-0.625 0 -1.03125 0.390625q-0.40625 0.390625 -0.40625 0.9375q0 0.625 0.390625 0.984375q0.390625 0.359375 1.046875 0.359375zm2.9972992 4.5q0.546875 -1.078125 0.765625 -1.953125q0.21875 -0.890625 0.21875 -1.84375q0 -0.953125 -0.21875 -1.8125q-0.203125 -0.859375 -0.765625 -2.0l0.421875 -0.3125q0.640625 0.875 0.984375 1.9375q0.34375 1.0625 0.34375 2.1875q0 1.125 -0.34375 2.1875q-0.34375 1.0625 -0.984375 1.9375l-0.421875 -0.328125z" fill-rule="nonzero"/><path fill="#000000" fill-opacity="0.0" d="m12.754305 259.74722l59.968506 0l0 26.897644l-59.968506 0z" fill-rule="evenodd"/><path fill="#666666" d="m26.58937 279.5666q-0.625 -0.875 -0.96875 -1.9375q-0.34375 -1.0625 -0.34375 -2.1875q0 -1.125 0.34375 -2.1875q0.34375 -1.0625 0.96875 -1.9375l0.421875 0.3125q-0.5625 1.125 -0.765625 1.96875q-0.203125 0.828125 -0.203125 1.84375q0 1.0 0.203125 1.859375q0.21875 0.84375 0.765625 1.9375l-0.421875 0.328125zm4.2196198 -1.859375l-1.359375 -1.84375l-1.34375 1.84375l-0.8125 0l1.734375 -2.3125l-1.640625 -2.1875l0.8125 0l1.25 1.703125l1.25 -1.703125l0.8125 0l-1.625 2.1875l1.734375 2.3125l-0.8125 0zm2.5647125 0l0 -5.203125l-1.0 1.0625l-0.453125 -0.484375l1.546875 -1.59375l0.6875 0l0 6.21875l-0.78125 0zm4.3653564 0.109375q-1.09375 0 -1.75 -0.890625q-0.640625 -0.890625 -0.640625 -2.328125q0 -1.4375 0.65625 -2.3125q0.671875 -0.890625 1.734375 -0.890625q0.71875 0 1.25 0.421875q0.546875 0.40625 0.828125 1.140625q0.296875 0.734375 0.296875 1.640625q0 0.90625 -0.296875 1.65625q-0.28125 0.734375 -0.8125 1.15625q-0.53125 0.40625 -1.265625 0.40625zm0 -0.6875q0.734375 0 1.15625 -0.671875q0.421875 -0.671875 0.421875 -1.859375q0 -1.1875 -0.421875 -1.84375q-0.421875 -0.671875 -1.15625 -0.671875q-0.75 0 -1.171875 0.671875q-0.421875 0.65625 -0.421875 1.84375q0 1.1875 0.40625 1.859375q0.421875 0.671875 1.1875 0.671875zm4.2007294 0.359375q0 0.421875 -0.21875 0.796875q-0.21875 0.375 -0.546875 0.609375l-0.34375 -0.296875q0.21875 -0.140625 0.390625 -0.390625q0.1875 -0.234375 0.21875 -0.46875l-0.140625 0.015625q-0.1875 0 -0.3125 -0.125q-0.125 -0.140625 -0.125 -0.34375q0 -0.21875 0.140625 -0.359375q0.140625 -0.15625 0.34375 -0.15625q0.234375 0 0.40625 0.1875q0.1875 0.1875 0.1875 0.53125zm3.4740028 1.34375q0.140625 0.078125 0.375 0.078125q0.234375 0 0.390625 -0.109375q0.171875 -0.09375 0.28125 -0.359375l0.296875 -0.6875l-1.875 -4.546875l0.75 0l1.5 3.6875l1.5 -3.6875l0.765625 0l-2.265625 5.421875q-0.375 0.890625 -1.328125 0.90625q-0.265625 0 -0.5 -0.0625l0.109375 -0.640625zm5.6645355 -1.125l0 -5.203125l-1.0 1.0625l-0.453125 -0.484375l1.546875 -1.59375l0.6875 0l0 6.21875l-0.78125 0zm4.3653564 0.109375q-1.09375 0 -1.75 -0.890625q-0.640625 -0.890625 -0.640625 -2.328125q0 -1.4375 0.65625 -2.3125q0.671875 -0.890625 1.734375 -0.890625q0.71875 0 1.25 0.421875q0.546875 0.40625 0.828125 1.140625q0.296875 0.734375 0.296875 1.640625q0 0.90625 -0.296875 1.65625q-0.28125 0.734375 -0.8125 1.15625q-0.53125 0.40625 -1.265625 0.40625zm0 -0.6875q0.734375 0 1.15625 -0.671875q0.421875 -0.671875 0.421875 -1.859375q0 -1.1875 -0.421875 -1.84375q-0.421875 -0.671875 -1.15625 -0.671875q-0.75 0 -1.171875 0.671875q-0.421875 0.65625 -0.421875 1.84375q0 1.1875 0.40625 1.859375q0.421875 0.671875 1.1875 0.671875zm3.0056915 2.109375q0.546875 -1.078125 0.765625 -1.953125q0.21875 -0.890625 0.21875 -1.84375q0 -0.953125 -0.21875 -1.8125q-0.203125 -0.859375 -0.765625 -2.0l0.421875 -0.3125q0.640625 0.875 0.984375 1.9375q0.34375 1.0625 0.34375 2.1875q0 1.125 -0.34375 2.1875q-0.34375 1.0625 -0.984375 1.9375l-0.421875 -0.328125z" fill-rule="nonzero"/><path fill="#000000" fill-opacity="0.0" d="m210.07611 44.304462l0 0c3.0197144 0 5.915741 1.1995735 8.050995 3.3348312c2.1352692 2.1352577 3.3348389 5.0312843 3.3348389 8.050995l0 120.85039c0 6.2882233 5.0976105 11.385834 11.3858185 11.385834l0 0c-6.288208 0 -11.3858185 5.0976105 -11.3858185 11.3858185l0 120.85039c0 6.2882385 -5.0976105 11.385834 -11.385834 11.385834z" fill-rule="evenodd"/><path fill="#000000" fill-opacity="0.0" d="m210.07611 44.304462l0 0c3.0197144 0 5.915741 1.1995735 8.050995 3.3348312c2.1352692 2.1352577 3.3348389 5.0312843 3.3348389 8.050995l0 120.85039c0 6.2882233 5.0976105 11.385834 11.3858185 11.385834l0 0c-6.288208 0 -11.3858185 5.0976105 -11.3858185 11.3858185l0 120.85039c0 6.2882385 -5.0976105 11.385834 -11.385834 11.385834" fill-rule="evenodd"/><path stroke="#666666" stroke-width="2.0" stroke-linejoin="round" stroke-linecap="butt" d="m210.07611 44.304462l0 0c3.0197144 0 5.915741 1.1995735 8.050995 3.3348312c2.1352692 2.1352577 3.3348389 5.0312843 3.3348389 8.050995l0 120.85039c0 6.2882233 5.0976105 11.385834 11.3858185 11.385834l0 0c-6.288208 0 -11.3858185 5.0976105 -11.3858185 11.3858185l0 120.85039c0 6.2882385 -5.0976105 11.385834 -11.385834 11.385834" fill-rule="evenodd"/><path fill="#000000" fill-opacity="0.0" d="m406.2651 130.92833l30.771637 0l0 22.771652l-30.771637 0z" fill-rule="evenodd"/><path stroke="#666666" stroke-width="2.0" stroke-linejoin="round" stroke-linecap="butt" d="m406.2651 130.92833l30.771637 0l0 22.771652l-30.771637 0z" fill-rule="evenodd"/><path fill="#000000" fill-opacity="0.0" d="m406.2651 153.69998l30.771637 0l0 22.771652l-30.771637 0z" fill-rule="evenodd"/><path stroke="#666666" stroke-width="2.0" stroke-linejoin="round" stroke-linecap="butt" d="m406.2651 153.69998l30.771637 0l0 22.771652l-30.771637 0z" fill-rule="evenodd"/><path fill="#000000" fill-opacity="0.0" d="m395.88715 130.92833l51.527557 0l0 22.771652l-51.527557 0z" fill-rule="evenodd"/><path fill="#666666" d="m421.32495 147.11415l-1.9375 -2.640625l-1.921875 2.640625l-1.15625 0l2.46875 -3.3125l-2.328125 -3.125l1.15625 0l1.78125 2.453125l1.796875 -2.453125l1.15625 0l-2.328125 3.125l2.46875 3.3125l-1.15625 0zm3.6805725 0l0 -7.421875l-1.421875 1.5l-0.671875 -0.671875l2.21875 -2.296875l0.984375 0l0 8.890625l-1.109375 0z" fill-rule="nonzero"/><path fill="#000000" fill-opacity="0.0" d="m395.88715 153.69998l51.527557 0l0 22.771652l-51.527557 0z" fill-rule="evenodd"/><path fill="#666666" d="m416.9233 171.49518q0.21875 0.109375 0.546875 0.109375q0.328125 0 0.546875 -0.140625q0.234375 -0.140625 0.421875 -0.53125l0.421875 -0.984375l-2.6875 -6.5l1.078125 0l2.140625 5.28125l2.125 -5.28125l1.09375 0l-3.21875 7.75q-0.53125 1.265625 -1.890625 1.296875q-0.390625 0 -0.734375 -0.09375l0.15625 -0.90625zm8.108887 -1.609375l0 -7.421875l-1.421875 1.5l-0.671875 -0.671875l2.21875 -2.296875l0.984375 0l0 8.890625l-1.109375 0z" fill-rule="nonzero"/><path fill="#000000" fill-opacity="0.0" d="m437.15195 130.92833l30.771667 0l0 22.771652l-30.771667 0z" fill-rule="evenodd"/><path stroke="#666666" stroke-width="2.0" stroke-linejoin="round" stroke-linecap="butt" d="m437.15195 130.92833l30.771667 0l0 22.771652l-30.771667 0z" fill-rule="evenodd"/><path fill="#000000" fill-opacity="0.0" d="m437.15195 153.69998l30.771667 0l0 22.771652l-30.771667 0z" fill-rule="evenodd"/><path stroke="#666666" stroke-width="2.0" stroke-linejoin="round" stroke-linecap="butt" d="m437.15195 153.69998l30.771667 0l0 22.771652l-30.771667 0z" fill-rule="evenodd"/><path fill="#000000" fill-opacity="0.0" d="m426.774 130.92833l51.527588 0l0 22.771652l-51.527588 0z" fill-rule="evenodd"/><path fill="#666666" d="m450.55246 147.11415l-1.9375 -2.640625l-1.921875 2.640625l-1.15625 0l2.46875 -3.3125l-2.328125 -3.125l1.15625 0l1.78125 2.453125l1.796875 -2.453125l1.15625 0l-2.328125 3.125l2.46875 3.3125l-1.15625 0zm2.0243225 0l0 -0.875q2.34375 -1.859375 3.21875 -2.703125q0.890625 -0.84375 1.296875 -1.515625q0.421875 -0.671875 0.421875 -1.3125q0 -0.734375 -0.515625 -1.171875q-0.5 -0.453125 -1.34375 -0.453125q-1.5625 0 -2.40625 1.109375l-0.6875 -0.703125q0.515625 -0.671875 1.328125 -1.03125q0.828125 -0.359375 1.765625 -0.359375q1.296875 0 2.140625 0.71875q0.84375 0.703125 0.84375 1.890625q0 1.078125 -0.921875 2.265625q-0.90625 1.1875 -3.390625 3.15625l4.359375 0l0 0.984375l-6.109375 0z" fill-rule="nonzero"/><path fill="#000000" fill-opacity="0.0" d="m426.774 153.69998l51.527588 0l0 22.771652l-51.527588 0z" fill-rule="evenodd"/><path fill="#666666" d="m446.15082 171.49518q0.21875 0.109375 0.546875 0.109375q0.328125 0 0.546875 -0.140625q0.234375 -0.140625 0.421875 -0.53125l0.421875 -0.984375l-2.6875 -6.5l1.078125 0l2.140625 5.28125l2.125 -5.28125l1.09375 0l-3.21875 7.75q-0.53125 1.265625 -1.890625 1.296875q-0.390625 0 -0.734375 -0.09375l0.15625 -0.90625zm6.4526367 -1.609375l0 -0.875q2.34375 -1.859375 3.21875 -2.703125q0.890625 -0.84375 1.296875 -1.515625q0.421875 -0.671875 0.421875 -1.3125q0 -0.734375 -0.515625 -1.171875q-0.5 -0.453125 -1.34375 -0.453125q-1.5625 0 -2.40625 1.109375l-0.6875 -0.703125q0.515625 -0.671875 1.328125 -1.03125q0.828125 -0.359375 1.765625 -0.359375q1.296875 0 2.140625 0.71875q0.84375 0.703125 0.84375 1.890625q0 1.078125 -0.921875 2.265625q-0.90625 1.1875 -3.390625 3.15625l4.359375 0l0 0.984375l-6.109375 0z" fill-rule="nonzero"/><path fill="#000000" fill-opacity="0.0" d="m467.8798 130.92833l30.771667 0l0 22.771652l-30.771667 0z" fill-rule="evenodd"/><path stroke="#666666" stroke-width="2.0" stroke-linejoin="round" stroke-linecap="butt" d="m467.8798 130.92833l30.771667 0l0 22.771652l-30.771667 0z" fill-rule="evenodd"/><path fill="#000000" fill-opacity="0.0" d="m467.8798 153.69998l30.771667 0l0 22.771652l-30.771667 0z" fill-rule="evenodd"/><path stroke="#666666" stroke-width="2.0" stroke-linejoin="round" stroke-linecap="butt" d="m467.8798 153.69998l30.771667 0l0 22.771652l-30.771667 0z" fill-rule="evenodd"/><path fill="#000000" fill-opacity="0.0" d="m457.50183 130.92833l51.527557 0l0 22.771652l-51.527557 0z" fill-rule="evenodd"/><path fill="#666666" d="m481.4869 147.11415l-1.9375 -2.640625l-1.921875 2.640625l-1.15625 0l2.46875 -3.3125l-2.328125 -3.125l1.15625 0l1.78125 2.453125l1.796875 -2.453125l1.15625 0l-2.328125 3.125l2.46875 3.3125l-1.15625 0zm4.8524475 0.15625q-1.140625 0 -1.953125 -0.421875q-0.796875 -0.4375 -1.203125 -1.046875l0.65625 -0.6875q0.375 0.515625 1.015625 0.84375q0.65625 0.328125 1.453125 0.328125q0.96875 0 1.515625 -0.4375q0.5625 -0.453125 0.5625 -1.234375q0 -0.78125 -0.578125 -1.171875q-0.578125 -0.390625 -1.625 -0.390625l-0.546875 0l-0.375 0.015625l0 -1.015625l0.390625 0.015625l0.53125 0q0.953125 0 1.5 -0.390625q0.5625 -0.40625 0.5625 -1.078125q0 -0.6875 -0.5625 -1.09375q-0.546875 -0.421875 -1.421875 -0.421875q-1.34375 0 -2.34375 1.078125l-0.625 -0.703125q1.125 -1.359375 3.046875 -1.359375q1.359375 0 2.1875 0.640625q0.828125 0.640625 0.828125 1.71875q0 0.8125 -0.546875 1.375q-0.546875 0.5625 -1.375 0.703125q0.84375 0.0625 1.4375 0.6875q0.609375 0.609375 0.609375 1.484375q0 1.171875 -0.875 1.875q-0.859375 0.6875 -2.265625 0.6875z" fill-rule="nonzero"/><path fill="#000000" fill-opacity="0.0" d="m457.50183 153.69998l51.527557 0l0 22.771652l-51.527557 0z" fill-rule="evenodd"/><path fill="#666666" d="m477.08524 171.49518q0.21875 0.109375 0.546875 0.109375q0.328125 0 0.546875 -0.140625q0.234375 -0.140625 0.421875 -0.53125l0.421875 -0.984375l-2.6875 -6.5l1.078125 0l2.140625 5.28125l2.125 -5.28125l1.09375 0l-3.21875 7.75q-0.53125 1.265625 -1.890625 1.296875q-0.390625 0 -0.734375 -0.09375l0.15625 -0.90625zm9.280762 -1.453125q-1.140625 0 -1.953125 -0.421875q-0.796875 -0.4375 -1.203125 -1.046875l0.65625 -0.6875q0.375 0.515625 1.015625 0.84375q0.65625 0.328125 1.453125 0.328125q0.96875 0 1.515625 -0.4375q0.5625 -0.453125 0.5625 -1.234375q0 -0.78125 -0.578125 -1.171875q-0.578125 -0.390625 -1.625 -0.390625l-0.546875 0l-0.375 0.015625l0 -1.015625l0.390625 0.015625l0.53125 0q0.953125 0 1.5 -0.390625q0.5625 -0.40625 0.5625 -1.078125q0 -0.6875 -0.5625 -1.09375q-0.546875 -0.421875 -1.421875 -0.421875q-1.34375 0 -2.34375 1.078125l-0.625 -0.703125q1.125 -1.359375 3.046875 -1.359375q1.359375 0 2.1875 0.640625q0.828125 0.640625 0.828125 1.71875q0 0.8125 -0.546875 1.375q-0.546875 0.5625 -1.375 0.703125q0.84375 0.0625 1.4375 0.6875q0.609375 0.609375 0.609375 1.484375q0 1.171875 -0.875 1.875q-0.859375 0.6875 -2.265625 0.6875z" fill-rule="nonzero"/><path fill="#000000" fill-opacity="0.0" d="m498.76666 130.92833l30.771667 0l0 22.771652l-30.771667 0z" fill-rule="evenodd"/><path stroke="#666666" stroke-width="2.0" stroke-linejoin="round" stroke-linecap="butt" d="m498.76666 130.92833l30.771667 0l0 22.771652l-30.771667 0z" fill-rule="evenodd"/><path fill="#000000" fill-opacity="0.0" d="m498.76666 153.69998l30.771667 0l0 22.771652l-30.771667 0z" fill-rule="evenodd"/><path stroke="#666666" stroke-width="2.0" stroke-linejoin="round" stroke-linecap="butt" d="m498.76666 153.69998l30.771667 0l0 22.771652l-30.771667 0z" fill-rule="evenodd"/><path fill="#000000" fill-opacity="0.0" d="m488.3887 130.92833l51.527557 0l0 22.771652l-51.527557 0z" fill-rule="evenodd"/><path fill="#666666" d="m512.3671 147.11415l-1.9375305 -2.640625l-1.921875 2.640625l-1.15625 0l2.46875 -3.3125l-2.328125 -3.125l1.15625 0l1.78125 2.453125l1.7969055 -2.453125l1.15625 0l-2.3281555 3.125l2.4687805 3.3125l-1.15625 0zm5.961792 0l0 -2.25l-4.234375 0l0 -0.921875l3.8125 -5.71875l1.515625 0l0 5.671875l1.265625 0l0 0.96875l-1.265625 0l0 2.25l-1.09375 0zm0 -7.859375l-3.125 4.640625l3.125 0l0 -4.640625z" fill-rule="nonzero"/><path fill="#000000" fill-opacity="0.0" d="m488.3887 153.69998l51.527557 0l0 22.771652l-51.527557 0z" fill-rule="evenodd"/><path fill="#666666" d="m507.96545 171.49518q0.21875 0.109375 0.546875 0.109375q0.328125 0 0.546875 -0.140625q0.234375 -0.140625 0.421875 -0.53125l0.421875 -0.984375l-2.6875 -6.5l1.078125 0l2.140625 5.28125l2.125 -5.28125l1.09375 0l-3.21875 7.75q-0.53125 1.265625 -1.890625 1.296875q-0.390625 0 -0.734375 -0.09375l0.15625 -0.90625zm10.390137 -1.609375l0 -2.25l-4.234375 0l0 -0.921875l3.8125 -5.71875l1.515625 0l0 5.671875l1.265625 0l0 0.96875l-1.265625 0l0 2.25l-1.09375 0zm0 -7.859375l-3.125 4.640625l3.125 0l0 -4.640625z" fill-rule="nonzero"/><path fill="#000000" fill-opacity="0.0" d="m529.4945 130.92833l30.771667 0l0 22.771652l-30.771667 0z" fill-rule="evenodd"/><path stroke="#666666" stroke-width="2.0" stroke-linejoin="round" stroke-linecap="butt" d="m529.4945 130.92833l30.771667 0l0 22.771652l-30.771667 0z" fill-rule="evenodd"/><path fill="#000000" fill-opacity="0.0" d="m529.4945 153.69998l30.771667 0l0 22.771652l-30.771667 0z" fill-rule="evenodd"/><path stroke="#666666" stroke-width="2.0" stroke-linejoin="round" stroke-linecap="butt" d="m529.4945 153.69998l30.771667 0l0 22.771652l-30.771667 0z" fill-rule="evenodd"/><path fill="#000000" fill-opacity="0.0" d="m519.1166 130.92833l51.527527 0l0 22.771652l-51.527527 0z" fill-rule="evenodd"/><path fill="#666666" d="m542.8817 147.11415l-1.9375 -2.640625l-1.921875 2.640625l-1.15625 0l2.46875 -3.3125l-2.328125 -3.125l1.15625 0l1.78125 2.453125l1.796875 -2.453125l1.15625 0l-2.328125 3.125l2.46875 3.3125l-1.15625 0zm5.321167 0.15625q-2.0625 0 -3.140625 -1.421875l0.6875 -0.734375q0.921875 1.171875 2.453125 1.171875q0.890625 0 1.46875 -0.53125q0.578125 -0.546875 0.578125 -1.375q0 -0.84375 -0.5625 -1.375q-0.546875 -0.546875 -1.46875 -0.546875q-1.1875 0 -2.0625 0.84375l-0.8125 -0.28125l0 -4.796875l5.4375 0l0 0.984375l-4.328125 0l0 3.09375q0.3125 -0.3125 0.859375 -0.546875q0.546875 -0.25 1.21875 -0.25q1.21875 0 2.015625 0.796875q0.8125 0.78125 0.8125 2.046875q0 1.3125 -0.875 2.125q-0.875 0.796875 -2.28125 0.796875z" fill-rule="nonzero"/><path fill="#000000" fill-opacity="0.0" d="m519.1166 153.69998l51.527527 0l0 22.771652l-51.527527 0z" fill-rule="evenodd"/><path fill="#666666" d="m538.48004 171.49518q0.21875 0.109375 0.546875 0.109375q0.328125 0 0.546875 -0.140625q0.234375 -0.140625 0.421875 -0.53125l0.421875 -0.984375l-2.6875 -6.5l1.078125 0l2.140625 5.28125l2.125 -5.28125l1.09375 0l-3.21875 7.75q-0.53125 1.265625 -1.890625 1.296875q-0.390625 0 -0.734375 -0.09375l0.15625 -0.90625zm9.749512 -1.453125q-2.0625 0 -3.140625 -1.421875l0.6875 -0.734375q0.921875 1.171875 2.453125 1.171875q0.890625 0 1.46875 -0.53125q0.578125 -0.546875 0.578125 -1.375q0 -0.84375 -0.5625 -1.375q-0.546875 -0.546875 -1.46875 -0.546875q-1.1875 0 -2.0625 0.84375l-0.8125 -0.28125l0 -4.796875l5.4375 0l0 0.984375l-4.328125 0l0 3.09375q0.3125 -0.3125 0.859375 -0.546875q0.546875 -0.25 1.21875 -0.25q1.21875 0 2.015625 0.796875q0.8125 0.78125 0.8125 2.046875q0 1.3125 -0.875 2.125q-0.875 0.796875 -2.28125 0.796875z" fill-rule="nonzero"/><path fill="#000000" fill-opacity="0.0" d="m560.38135 130.92833l30.771667 0l0 22.771652l-30.771667 0z" fill-rule="evenodd"/><path stroke="#666666" stroke-width="2.0" stroke-linejoin="round" stroke-linecap="butt" d="m560.38135 130.92833l30.771667 0l0 22.771652l-30.771667 0z" fill-rule="evenodd"/><path fill="#000000" fill-opacity="0.0" d="m560.38135 153.69998l30.771667 0l0 22.771652l-30.771667 0z" fill-rule="evenodd"/><path stroke="#666666" stroke-width="2.0" stroke-linejoin="round" stroke-linecap="butt" d="m560.38135 153.69998l30.771667 0l0 22.771652l-30.771667 0z" fill-rule="evenodd"/><path fill="#000000" fill-opacity="0.0" d="m550.0034 130.92833l51.527527 0l0 22.771652l-51.527527 0z" fill-rule="evenodd"/><path fill="#666666" d="m573.7619 147.11415l-1.9375 -2.640625l-1.921875 2.640625l-1.15625 0l2.46875 -3.3125l-2.328125 -3.125l1.15625 0l1.78125 2.453125l1.796875 -2.453125l1.15625 0l-2.328125 3.125l2.46875 3.3125l-1.15625 0zm5.414917 0.15625q-1.609375 0 -2.515625 -1.203125q-0.90625 -1.21875 -0.90625 -3.375q0 -2.109375 0.96875 -3.34375q0.984375 -1.25 2.640625 -1.25q1.515625 0 2.453125 1.0625l-0.546875 0.828125q-0.359375 -0.40625 -0.78125 -0.65625q-0.421875 -0.25 -1.125 -0.25q-1.125 0 -1.828125 0.96875q-0.6875 0.96875 -0.6875 2.515625l0 0.171875l0.015625 0.171875q0.40625 -0.609375 1.125 -0.984375q0.71875 -0.390625 1.390625 -0.390625q1.296875 0 2.09375 0.765625q0.8125 0.75 0.8125 2.0625q0 1.25 -0.875 2.078125q-0.859375 0.828125 -2.234375 0.828125zm-0.046875 -0.984375q0.90625 0 1.46875 -0.5625q0.578125 -0.5625 0.578125 -1.3125q0 -0.90625 -0.5625 -1.40625q-0.546875 -0.515625 -1.5 -0.515625q-0.65625 0 -1.25 0.375q-0.59375 0.359375 -0.96875 0.953125q0.109375 1.140625 0.6875 1.8125q0.59375 0.65625 1.546875 0.65625z" fill-rule="nonzero"/><path fill="#000000" fill-opacity="0.0" d="m550.0034 153.69998l51.527527 0l0 22.771652l-51.527527 0z" fill-rule="evenodd"/><path fill="#666666" d="m569.3602 171.49518q0.21875 0.109375 0.546875 0.109375q0.328125 0 0.546875 -0.140625q0.234375 -0.140625 0.421875 -0.53125l0.421875 -0.984375l-2.6875 -6.5l1.078125 0l2.140625 5.28125l2.125 -5.28125l1.09375 0l-3.21875 7.75q-0.53125 1.265625 -1.890625 1.296875q-0.390625 0 -0.734375 -0.09375l0.15625 -0.90625zm9.843262 -1.453125q-1.609375 0 -2.515625 -1.203125q-0.90625 -1.21875 -0.90625 -3.375q0 -2.109375 0.96875 -3.34375q0.984375 -1.25 2.640625 -1.25q1.515625 0 2.453125 1.0625l-0.546875 0.828125q-0.359375 -0.40625 -0.78125 -0.65625q-0.421875 -0.25 -1.125 -0.25q-1.125 0 -1.828125 0.96875q-0.6875 0.96875 -0.6875 2.515625l0 0.171875l0.015625 0.171875q0.40625 -0.609375 1.125 -0.984375q0.71875 -0.390625 1.390625 -0.390625q1.296875 0 2.09375 0.765625q0.8125 0.75 0.8125 2.0625q0 1.25 -0.875 2.078125q-0.859375 0.828125 -2.234375 0.828125zm-0.046875 -0.984375q0.90625 0 1.46875 -0.5625q0.578125 -0.5625 0.578125 -1.3125q0 -0.90625 -0.5625 -1.40625q-0.546875 -0.515625 -1.5 -0.515625q-0.65625 0 -1.25 0.375q-0.59375 0.359375 -0.96875 0.953125q0.109375 1.140625 0.6875 1.8125q0.59375 0.65625 1.546875 0.65625z" fill-rule="nonzero"/><path fill="#000000" fill-opacity="0.0" d="m406.2651 198.55037l30.771637 0l0 22.771652l-30.771637 0z" fill-rule="evenodd"/><path stroke="#666666" stroke-width="2.0" stroke-linejoin="round" stroke-linecap="butt" d="m406.2651 198.55037l30.771637 0l0 22.771652l-30.771637 0z" fill-rule="evenodd"/><path fill="#000000" fill-opacity="0.0" d="m406.2651 221.32202l30.771637 0l0 22.771652l-30.771637 0z" fill-rule="evenodd"/><path stroke="#666666" stroke-width="2.0" stroke-linejoin="round" stroke-linecap="butt" d="m406.2651 221.32202l30.771637 0l0 22.771652l-30.771637 0z" fill-rule="evenodd"/><path fill="#000000" fill-opacity="0.0" d="m395.88715 198.55037l51.527557 0l0 22.771652l-51.527557 0z" fill-rule="evenodd"/><path fill="#666666" d="m420.1521 214.7362l-1.9375 -2.640625l-1.921875 2.640625l-1.15625 0l2.46875 -3.3125l-2.328125 -3.125l1.15625 0l1.78125 2.453125l1.796875 -2.453125l1.15625 0l-2.328125 3.125l2.46875 3.3125l-1.15625 0zm2.9149475 0l3.59375 -7.90625l-4.796875 0l0 -0.984375l6.078125 0l0 0.765625l-3.640625 8.125l-1.234375 0z" fill-rule="nonzero"/><path fill="#000000" fill-opacity="0.0" d="m395.88715 221.32202l51.527557 0l0 22.771652l-51.527557 0z" fill-rule="evenodd"/><path fill="#666666" d="m415.75043 239.11723q0.21875 0.109375 0.546875 0.109375q0.328125 0 0.546875 -0.140625q0.234375 -0.140625 0.421875 -0.53125l0.421875 -0.984375l-2.6875 -6.5l1.078125 0l2.140625 5.28125l2.125 -5.28125l1.09375 0l-3.21875 7.75q-0.53125 1.265625 -1.890625 1.296875q-0.390625 0 -0.734375 -0.09375l0.15625 -0.90625zm7.3432617 -1.609375l3.59375 -7.90625l-4.796875 0l0 -0.984375l6.078125 0l0 0.765625l-3.640625 8.125l-1.234375 0z" fill-rule="nonzero"/><path fill="#000000" fill-opacity="0.0" d="m437.15195 198.55037l30.771667 0l0 22.771652l-30.771667 0z" fill-rule="evenodd"/><path stroke="#666666" stroke-width="2.0" stroke-linejoin="round" stroke-linecap="butt" d="m437.15195 198.55037l30.771667 0l0 22.771652l-30.771667 0z" fill-rule="evenodd"/><path fill="#000000" fill-opacity="0.0" d="m437.15195 221.32202l30.771667 0l0 22.771652l-30.771667 0z" fill-rule="evenodd"/><path stroke="#666666" stroke-width="2.0" stroke-linejoin="round" stroke-linecap="butt" d="m437.15195 221.32202l30.771667 0l0 22.771652l-30.771667 0z" fill-rule="evenodd"/><path fill="#000000" fill-opacity="0.0" d="m426.774 198.55037l51.527588 0l0 22.771652l-51.527588 0z" fill-rule="evenodd"/><path fill="#666666" d="m450.59912 214.7362l-1.9375 -2.640625l-1.921875 2.640625l-1.15625 0l2.46875 -3.3125l-2.328125 -3.125l1.15625 0l1.78125 2.453125l1.796875 -2.453125l1.15625 0l-2.328125 3.125l2.46875 3.3125l-1.15625 0zm5.1805725 0.15625q-1.4375 0 -2.3125 -0.671875q-0.875 -0.6875 -0.875 -1.734375q0 -0.78125 0.5625 -1.40625q0.578125 -0.640625 1.5625 -0.921875q-0.890625 -0.265625 -1.4375 -0.8125q-0.53125 -0.546875 -0.53125 -1.328125q0 -1.03125 0.84375 -1.65625q0.859375 -0.640625 2.1875 -0.640625q1.34375 0 2.203125 0.640625q0.859375 0.625 0.859375 1.65625q0 0.765625 -0.53125 1.328125q-0.53125 0.546875 -1.46875 0.8125q0.984375 0.265625 1.546875 0.90625q0.578125 0.640625 0.578125 1.421875q0 1.078125 -0.90625 1.75q-0.90625 0.65625 -2.28125 0.65625zm0 -5.1875q1.9375 -0.390625 1.9375 -1.546875q0 -0.640625 -0.546875 -1.046875q-0.53125 -0.40625 -1.390625 -0.40625q-0.84375 0 -1.390625 0.40625q-0.53125 0.40625 -0.53125 1.046875q0 1.15625 1.921875 1.546875zm0 4.203125q0.875 0 1.46875 -0.421875q0.59375 -0.421875 0.59375 -1.125q0 -0.625 -0.609375 -1.109375q-0.59375 -0.5 -1.453125 -0.609375q-0.84375 0.109375 -1.46875 0.59375q-0.609375 0.484375 -0.609375 1.125q0 0.703125 0.59375 1.125q0.609375 0.421875 1.484375 0.421875z" fill-rule="nonzero"/><path fill="#000000" fill-opacity="0.0" d="m426.774 221.32202l51.527588 0l0 22.771652l-51.527588 0z" fill-rule="evenodd"/><path fill="#666666" d="m446.19748 239.11723q0.21875 0.109375 0.546875 0.109375q0.328125 0 0.546875 -0.140625q0.234375 -0.140625 0.421875 -0.53125l0.421875 -0.984375l-2.6875 -6.5l1.078125 0l2.140625 5.28125l2.125 -5.28125l1.09375 0l-3.21875 7.75q-0.53125 1.265625 -1.890625 1.296875q-0.390625 0 -0.734375 -0.09375l0.15625 -0.90625zm9.608887 -1.453125q-1.4375 0 -2.3125 -0.671875q-0.875 -0.6875 -0.875 -1.734375q0 -0.78125 0.5625 -1.40625q0.578125 -0.640625 1.5625 -0.921875q-0.890625 -0.265625 -1.4375 -0.8125q-0.53125 -0.546875 -0.53125 -1.328125q0 -1.03125 0.84375 -1.65625q0.859375 -0.640625 2.1875 -0.640625q1.34375 0 2.203125 0.640625q0.859375 0.625 0.859375 1.65625q0 0.765625 -0.53125 1.328125q-0.53125 0.546875 -1.46875 0.8125q0.984375 0.265625 1.546875 0.90625q0.578125 0.640625 0.578125 1.421875q0 1.078125 -0.90625 1.75q-0.90625 0.65625 -2.28125 0.65625zm0 -5.1875q1.9375 -0.390625 1.9375 -1.546875q0 -0.640625 -0.546875 -1.046875q-0.53125 -0.40625 -1.390625 -0.40625q-0.84375 0 -1.390625 0.40625q-0.53125 0.40625 -0.53125 1.046875q0 1.15625 1.921875 1.546875zm0 4.203125q0.875 0 1.46875 -0.421875q0.59375 -0.421875 0.59375 -1.125q0 -0.625 -0.609375 -1.109375q-0.59375 -0.5 -1.453125 -0.609375q-0.84375 0.109375 -1.46875 0.59375q-0.609375 0.484375 -0.609375 1.125q0 0.703125 0.59375 1.125q0.609375 0.421875 1.484375 0.421875z" fill-rule="nonzero"/><path fill="#000000" fill-opacity="0.0" d="m467.8798 198.55037l30.771667 0l0 22.771652l-30.771667 0z" fill-rule="evenodd"/><path stroke="#666666" stroke-width="2.0" stroke-linejoin="round" stroke-linecap="butt" d="m467.8798 198.55037l30.771667 0l0 22.771652l-30.771667 0z" fill-rule="evenodd"/><path fill="#000000" fill-opacity="0.0" d="m467.8798 221.32202l30.771667 0l0 22.771652l-30.771667 0z" fill-rule="evenodd"/><path stroke="#666666" stroke-width="2.0" stroke-linejoin="round" stroke-linecap="butt" d="m467.8798 221.32202l30.771667 0l0 22.771652l-30.771667 0z" fill-rule="evenodd"/><path fill="#000000" fill-opacity="0.0" d="m457.50183 198.55037l51.527557 0l0 22.771652l-51.527557 0z" fill-rule="evenodd"/><path fill="#666666" d="m481.2603 214.7362l-1.9375 -2.640625l-1.921875 2.640625l-1.15625 0l2.46875 -3.3125l-2.328125 -3.125l1.15625 0l1.78125 2.453125l1.796875 -2.453125l1.15625 0l-2.328125 3.125l2.46875 3.3125l-1.15625 0zm4.8836975 0.140625q-1.515625 0 -2.453125 -1.0625l0.546875 -0.828125q0.359375 0.40625 0.78125 0.65625q0.4375 0.25 1.125 0.25q1.171875 0 1.84375 -0.953125q0.671875 -0.96875 0.671875 -2.515625l0 -0.1875l-0.015625 -0.171875q-0.390625 0.59375 -1.109375 0.984375q-0.703125 0.390625 -1.390625 0.390625q-1.328125 0 -2.125 -0.765625q-0.796875 -0.78125 -0.796875 -2.0625q0 -1.25 0.859375 -2.078125q0.875 -0.828125 2.25 -0.828125q1.609375 0 2.515625 1.21875q0.921875 1.203125 0.921875 3.375q0 2.09375 -0.984375 3.34375q-0.984375 1.234375 -2.640625 1.234375zm0.25 -4.390625q0.65625 0 1.25 -0.359375q0.609375 -0.359375 0.953125 -0.96875q-0.109375 -1.171875 -0.71875 -1.8125q-0.59375 -0.65625 -1.5 -0.65625q-0.890625 0 -1.46875 0.5625q-0.578125 0.546875 -0.578125 1.3125q0 0.890625 0.546875 1.40625q0.5625 0.515625 1.515625 0.515625z" fill-rule="nonzero"/><path fill="#000000" fill-opacity="0.0" d="m457.50183 221.32202l51.527557 0l0 22.771652l-51.527557 0z" fill-rule="evenodd"/><path fill="#666666" d="m476.85867 239.11723q0.21875 0.109375 0.546875 0.109375q0.328125 0 0.546875 -0.140625q0.234375 -0.140625 0.421875 -0.53125l0.421875 -0.984375l-2.6875 -6.5l1.078125 0l2.140625 5.28125l2.125 -5.28125l1.09375 0l-3.21875 7.75q-0.53125 1.265625 -1.890625 1.296875q-0.390625 0 -0.734375 -0.09375l0.15625 -0.90625zm9.312012 -1.46875q-1.515625 0 -2.453125 -1.0625l0.546875 -0.828125q0.359375 0.40625 0.78125 0.65625q0.4375 0.25 1.125 0.25q1.171875 0 1.84375 -0.953125q0.671875 -0.96875 0.671875 -2.515625l0 -0.1875l-0.015625 -0.171875q-0.390625 0.59375 -1.109375 0.984375q-0.703125 0.390625 -1.390625 0.390625q-1.328125 0 -2.125 -0.765625q-0.796875 -0.78125 -0.796875 -2.0625q0 -1.25 0.859375 -2.078125q0.875 -0.828125 2.25 -0.828125q1.609375 0 2.515625 1.21875q0.921875 1.203125 0.921875 3.375q0 2.09375 -0.984375 3.34375q-0.984375 1.234375 -2.640625 1.234375zm0.25 -4.390625q0.65625 0 1.25 -0.359375q0.609375 -0.359375 0.953125 -0.96875q-0.109375 -1.171875 -0.71875 -1.8125q-0.59375 -0.65625 -1.5 -0.65625q-0.890625 0 -1.46875 0.5625q-0.578125 0.546875 -0.578125 1.3125q0 0.890625 0.546875 1.40625q0.5625 0.515625 1.515625 0.515625z" fill-rule="nonzero"/><path fill="#000000" fill-opacity="0.0" d="m498.76666 198.55037l30.771667 0l0 22.771652l-30.771667 0z" fill-rule="evenodd"/><path stroke="#666666" stroke-width="2.0" stroke-linejoin="round" stroke-linecap="butt" d="m498.76666 198.55037l30.771667 0l0 22.771652l-30.771667 0z" fill-rule="evenodd"/><path fill="#000000" fill-opacity="0.0" d="m498.76666 221.32202l30.771667 0l0 22.771652l-30.771667 0z" fill-rule="evenodd"/><path stroke="#666666" stroke-width="2.0" stroke-linejoin="round" stroke-linecap="butt" d="m498.76666 221.32202l30.771667 0l0 22.771652l-30.771667 0z" fill-rule="evenodd"/><path fill="#000000" fill-opacity="0.0" d="m488.3887 198.55037l51.527557 0l0 22.771652l-51.527557 0z" fill-rule="evenodd"/><path fill="#666666" d="m509.74814 214.7362l-1.9375 -2.640625l-1.921875 2.640625l-1.15625 0l2.46875 -3.3125l-2.328125 -3.125l1.15625 0l1.78125 2.453125l1.796875 -2.453125l1.15625 0l-2.328125 3.125l2.46875 3.3125l-1.15625 0zm3.6805725 0l0 -7.421875l-1.421875 1.5l-0.671875 -0.671875l2.21875 -2.296875l0.984375 0l0 8.890625l-1.109375 0zm6.2213135 0.15625q-1.546875 0 -2.46875 -1.265625q-0.921875 -1.28125 -0.921875 -3.328125q0 -2.0625 0.9375 -3.3125q0.9375 -1.265625 2.453125 -1.265625q1.046875 0 1.8125 0.59375q0.765625 0.578125 1.171875 1.640625q0.421875 1.046875 0.421875 2.34375q0 1.28125 -0.421875 2.34375q-0.40625 1.0625 -1.171875 1.65625q-0.765625 0.59375 -1.8125 0.59375zm0 -0.984375q1.0625 0 1.65625 -0.953125q0.609375 -0.96875 0.609375 -2.65625q0 -1.703125 -0.609375 -2.640625q-0.59375 -0.953125 -1.65625 -0.953125q-1.0625 0 -1.671875 0.953125q-0.59375 0.9375 -0.59375 2.640625q0 1.6875 0.59375 2.65625q0.59375 0.953125 1.671875 0.953125z" fill-rule="nonzero"/><path fill="#000000" fill-opacity="0.0" d="m488.3887 221.32202l51.527557 0l0 22.771652l-51.527557 0z" fill-rule="evenodd"/><path fill="#666666" d="m505.34647 239.11723q0.21875 0.109375 0.546875 0.109375q0.328125 0 0.546875 -0.140625q0.234375 -0.140625 0.421875 -0.53125l0.421875 -0.984375l-2.6875 -6.5l1.078125 0l2.140625 5.28125l2.125 -5.28125l1.09375 0l-3.21875 7.75q-0.53125 1.265625 -1.890625 1.296875q-0.390625 0 -0.734375 -0.09375l0.15625 -0.90625zm8.108917 -1.609375l0 -7.421875l-1.421875 1.5l-0.6719055 -0.671875l2.2187805 -2.296875l0.984375 0l0 8.890625l-1.109375 0zm6.2213135 0.15625q-1.546875 0 -2.46875 -1.265625q-0.921875 -1.28125 -0.921875 -3.328125q0 -2.0625 0.9375 -3.3125q0.9375 -1.265625 2.453125 -1.265625q1.046875 0 1.8125 0.59375q0.765625 0.578125 1.171875 1.640625q0.421875 1.046875 0.421875 2.34375q0 1.28125 -0.421875 2.34375q-0.40625 1.0625 -1.171875 1.65625q-0.765625 0.59375 -1.8125 0.59375zm0 -0.984375q1.0625 0 1.65625 -0.953125q0.609375 -0.96875 0.609375 -2.65625q0 -1.703125 -0.609375 -2.640625q-0.59375 -0.953125 -1.65625 -0.953125q-1.0625 0 -1.671875 0.953125q-0.59375 0.9375 -0.59375 2.640625q0 1.6875 0.59375 2.65625q0.59375 0.953125 1.671875 0.953125z" fill-rule="nonzero"/><path fill="#000000" fill-opacity="0.0" d="m529.4945 198.55037l30.771667 0l0 22.771652l-30.771667 0z" fill-rule="evenodd"/><path stroke="#666666" stroke-width="2.0" stroke-linejoin="round" stroke-linecap="butt" d="m529.4945 198.55037l30.771667 0l0 22.771652l-30.771667 0z" fill-rule="evenodd"/><path fill="#000000" fill-opacity="0.0" d="m529.4945 221.32202l30.771667 0l0 22.771652l-30.771667 0z" fill-rule="evenodd"/><path stroke="#666666" stroke-width="2.0" stroke-linejoin="round" stroke-linecap="butt" d="m529.4945 221.32202l30.771667 0l0 22.771652l-30.771667 0z" fill-rule="evenodd"/><path fill="#000000" fill-opacity="0.0" d="m519.1166 198.55037l51.527527 0l0 22.771652l-51.527527 0z" fill-rule="evenodd"/><path fill="#666666" d="m544.88007 214.89246q-1.546875 0 -2.46875 -1.265625q-0.921875 -1.28125 -0.921875 -3.328125q0 -2.0625 0.9375 -3.3125q0.9375 -1.265625 2.453125 -1.265625q1.046875 0 1.8125 0.59375q0.765625 0.578125 1.171875 1.640625q0.421875 1.046875 0.421875 2.34375q0 1.28125 -0.421875 2.34375q-0.40625 1.0625 -1.171875 1.65625q-0.765625 0.59375 -1.8125 0.59375zm0 -0.984375q1.0625 0 1.65625 -0.953125q0.609375 -0.96875 0.609375 -2.65625q0 -1.703125 -0.609375 -2.640625q-0.59375 -0.953125 -1.65625 -0.953125q-1.0625 0 -1.671875 0.953125q-0.59375 0.9375 -0.59375 2.640625q0 1.6875 0.59375 2.65625q0.59375 0.953125 1.671875 0.953125z" fill-rule="nonzero"/><path fill="#000000" fill-opacity="0.0" d="m519.1166 221.32202l51.527527 0l0 22.771652l-51.527527 0z" fill-rule="evenodd"/><path fill="#666666" d="m544.88007 237.66411q-1.546875 0 -2.46875 -1.265625q-0.921875 -1.28125 -0.921875 -3.328125q0 -2.0625 0.9375 -3.3125q0.9375 -1.265625 2.453125 -1.265625q1.046875 0 1.8125 0.59375q0.765625 0.578125 1.171875 1.640625q0.421875 1.046875 0.421875 2.34375q0 1.28125 -0.421875 2.34375q-0.40625 1.0625 -1.171875 1.65625q-0.765625 0.59375 -1.8125 0.59375zm0 -0.984375q1.0625 0 1.65625 -0.953125q0.609375 -0.96875 0.609375 -2.65625q0 -1.703125 -0.609375 -2.640625q-0.59375 -0.953125 -1.65625 -0.953125q-1.0625 0 -1.671875 0.953125q-0.59375 0.9375 -0.59375 2.640625q0 1.6875 0.59375 2.65625q0.59375 0.953125 1.671875 0.953125z" fill-rule="nonzero"/><path fill="#000000" fill-opacity="0.0" d="m560.38135 198.55037l30.771667 0l0 22.771652l-30.771667 0z" fill-rule="evenodd"/><path stroke="#666666" stroke-width="2.0" stroke-linejoin="round" stroke-linecap="butt" d="m560.38135 198.55037l30.771667 0l0 22.771652l-30.771667 0z" fill-rule="evenodd"/><path fill="#000000" fill-opacity="0.0" d="m560.38135 221.32202l30.771667 0l0 22.771652l-30.771667 0z" fill-rule="evenodd"/><path stroke="#666666" stroke-width="2.0" stroke-linejoin="round" stroke-linecap="butt" d="m560.38135 221.32202l30.771667 0l0 22.771652l-30.771667 0z" fill-rule="evenodd"/><path fill="#000000" fill-opacity="0.0" d="m550.0034 198.55037l51.527527 0l0 22.771652l-51.527527 0z" fill-rule="evenodd"/><path fill="#666666" d="m575.7669 214.89246q-1.546875 0 -2.46875 -1.265625q-0.921875 -1.28125 -0.921875 -3.328125q0 -2.0625 0.9375 -3.3125q0.9375 -1.265625 2.453125 -1.265625q1.046875 0 1.8125 0.59375q0.765625 0.578125 1.171875 1.640625q0.421875 1.046875 0.421875 2.34375q0 1.28125 -0.421875 2.34375q-0.40625 1.0625 -1.171875 1.65625q-0.765625 0.59375 -1.8125 0.59375zm0 -0.984375q1.0625 0 1.65625 -0.953125q0.609375 -0.96875 0.609375 -2.65625q0 -1.703125 -0.609375 -2.640625q-0.59375 -0.953125 -1.65625 -0.953125q-1.0625 0 -1.671875 0.953125q-0.59375 0.9375 -0.59375 2.640625q0 1.6875 0.59375 2.65625q0.59375 0.953125 1.671875 0.953125z" fill-rule="nonzero"/><path fill="#000000" fill-opacity="0.0" d="m550.0034 221.32202l51.527527 0l0 22.771652l-51.527527 0z" fill-rule="evenodd"/><path fill="#666666" d="m575.7669 237.66411q-1.546875 0 -2.46875 -1.265625q-0.921875 -1.28125 -0.921875 -3.328125q0 -2.0625 0.9375 -3.3125q0.9375 -1.265625 2.453125 -1.265625q1.046875 0 1.8125 0.59375q0.765625 0.578125 1.171875 1.640625q0.421875 1.046875 0.421875 2.34375q0 1.28125 -0.421875 2.34375q-0.40625 1.0625 -1.171875 1.65625q-0.765625 0.59375 -1.8125 0.59375zm0 -0.984375q1.0625 0 1.65625 -0.953125q0.609375 -0.96875 0.609375 -2.65625q0 -1.703125 -0.609375 -2.640625q-0.59375 -0.953125 -1.65625 -0.953125q-1.0625 0 -1.671875 0.953125q-0.59375 0.9375 -0.59375 2.640625q0 1.6875 0.59375 2.65625q0.59375 0.953125 1.671875 0.953125z" fill-rule="nonzero"/><path fill="#000000" fill-opacity="0.0" d="m350.65485 187.92389l45.795288 0" fill-rule="evenodd"/><path stroke="#666666" stroke-width="2.0" stroke-linejoin="round" stroke-linecap="butt" d="m350.65485 187.92389l33.795288 0" fill-rule="evenodd"/><path fill="#666666" stroke="#666666" stroke-width="2.0" stroke-linecap="butt" d="m384.45013 191.22736l9.076202 -3.3034668l-9.076202 -3.3034668z" fill-rule="evenodd"/><path fill="#000000" fill-opacity="0.0" d="m382.26523 266.17307l421.70078 0l0 64.62991l-421.70078 0z" fill-rule="evenodd"/><path fill="#76a5af" d="m395.79648 293.09308l0 -11.0625l-3.9375 0l0 -1.375l9.4375 0l0 1.375l-3.953125 0l0 11.0625l-1.546875 0zm9.424896 0.21875q-2.03125 0 -3.3125 -1.3125q-1.28125 -1.328125 -1.28125 -3.421875q0 -2.0 1.265625 -3.359375q1.28125 -1.359375 3.171875 -1.359375q1.9375 0 3.125 1.34375q1.203125 1.34375 1.203125 3.484375l0 0.359375l-7.296875 0q0.078125 1.375 1.0 2.25q0.921875 0.859375 2.25 0.859375q1.640625 0 2.78125 -1.140625l0.671875 0.921875q-1.375 1.375 -3.578125 1.375zm2.796875 -5.296875q0 -1.25 -0.828125 -2.125q-0.8125 -0.875 -2.140625 -0.875q-1.25 0 -2.078125 0.875q-0.828125 0.875 -0.875 2.125l5.921875 0zm9.722229 5.078125l0 -5.890625q0 -1.203125 -0.5625 -1.640625q-0.546875 -0.453125 -1.453125 -0.453125q-0.78125 0 -1.546875 0.421875q-0.75 0.421875 -1.125 0.984375l0 6.578125l-1.390625 0l0 -9.015625l1.390625 0l0 1.3125q0.578125 -0.671875 1.421875 -1.09375q0.859375 -0.4375 1.78125 -0.4375q2.875 0 2.875 2.90625l0 6.328125l-1.390625 0zm7.045227 0.21875q-2.296875 0 -3.640625 -1.40625l0.734375 -1.015625q0.453125 0.53125 1.234375 0.90625q0.796875 0.375 1.734375 0.375q1.046875 0 1.578125 -0.4375q0.546875 -0.4375 0.546875 -1.109375q0 -0.59375 -0.59375 -0.9375q-0.578125 -0.34375 -2.1875 -0.71875q-1.359375 -0.28125 -2.078125 -0.875q-0.71875 -0.609375 -0.71875 -1.640625q0 -1.140625 0.90625 -1.859375q0.921875 -0.734375 2.453125 -0.734375q2.03125 0 3.34375 1.3125l-0.65625 0.96875q-0.40625 -0.484375 -1.109375 -0.8125q-0.703125 -0.328125 -1.578125 -0.328125q-0.9375 0 -1.46875 0.40625q-0.53125 0.40625 -0.53125 1.015625q0 0.53125 0.59375 0.859375q0.609375 0.3125 2.203125 0.640625q1.359375 0.328125 2.0625 0.96875q0.71875 0.640625 0.71875 1.703125q0 1.25 -0.96875 1.984375q-0.96875 0.734375 -2.578125 0.734375zm9.753265 0q-1.953125 0 -3.203125 -1.328125q-1.25 -1.328125 -1.25 -3.40625q0 -2.09375 1.25 -3.40625q1.25 -1.3125 3.203125 -1.3125q1.96875 0 3.21875 1.3125q1.25 1.3125 1.25 3.40625q0 2.078125 -1.25 3.40625q-1.25 1.328125 -3.21875 1.328125zm0 -1.25q1.3125 0 2.15625 -0.96875q0.84375 -0.984375 0.84375 -2.515625q0 -1.515625 -0.84375 -2.484375q-0.84375 -0.984375 -2.15625 -0.984375q-1.296875 0 -2.15625 0.96875q-0.84375 0.96875 -0.84375 2.5q0 1.546875 0.84375 2.515625q0.84375 0.96875 2.15625 0.96875zm6.7495117 1.03125l0 -9.015625l1.390625 0l0 1.453125q1.25 -1.640625 3.0 -1.640625l0 1.4375l-0.546875 -0.046875q-0.640625 0 -1.40625 0.453125q-0.765625 0.453125 -1.046875 0.984375l0 6.375l-1.390625 0zm13.813629 0.21875q-2.296875 0 -3.640625 -1.40625l0.734375 -1.015625q0.453125 0.53125 1.234375 0.90625q0.796875 0.375 1.734375 0.375q1.046875 0 1.578125 -0.4375q0.546875 -0.4375 0.546875 -1.109375q0 -0.59375 -0.59375 -0.9375q-0.578125 -0.34375 -2.1875 -0.71875q-1.359375 -0.28125 -2.078125 -0.875q-0.71875 -0.609375 -0.71875 -1.640625q0 -1.140625 0.90625 -1.859375q0.921875 -0.734375 2.453125 -0.734375q2.03125 0 3.34375 1.3125l-0.65625 0.96875q-0.40625 -0.484375 -1.109375 -0.8125q-0.703125 -0.328125 -1.578125 -0.328125q-0.9375 0 -1.46875 0.40625q-0.53125 0.40625 -0.53125 1.015625q0 0.53125 0.59375 0.859375q0.609375 0.3125 2.203125 0.640625q1.359375 0.328125 2.0625 0.96875q0.71875 0.640625 0.71875 1.703125q0 1.25 -0.96875 1.984375q-0.96875 0.734375 -2.578125 0.734375zm6.5188904 -10.515625q-0.375 0 -0.65625 -0.265625q-0.28125 -0.28125 -0.28125 -0.671875q0 -0.390625 0.28125 -0.671875q0.28125 -0.28125 0.65625 -0.28125q0.390625 0 0.671875 0.28125q0.28125 0.28125 0.28125 0.671875q0 0.390625 -0.28125 0.671875q-0.28125 0.265625 -0.671875 0.265625zm-0.6875 10.296875l0 -9.015625l1.390625 0l0 9.015625l-1.390625 0zm3.7601624 0l0 -1.078125l4.96875 -6.703125l-4.96875 0l0 -1.234375l6.796875 0l0 1.0625l-5.0 6.734375l5.0625 0l0 1.21875l-6.859375 0zm13.305756 0.21875q-2.03125 0 -3.3125 -1.3125q-1.28125 -1.328125 -1.28125 -3.421875q0 -2.0 1.265625 -3.359375q1.28125 -1.359375 3.171875 -1.359375q1.9375 0 3.125 1.34375q1.203125 1.34375 1.203125 3.484375l0 0.359375l-7.296875 0q0.078125 1.375 1.0 2.25q0.921875 0.859375 2.25 0.859375q1.640625 0 2.78125 -1.140625l0.671875 0.921875q-1.375 1.375 -3.578125 1.375zm2.796875 -5.296875q0 -1.25 -0.828125 -2.125q-0.8125 -0.875 -2.140625 -0.875q-1.25 0 -2.078125 0.875q-0.828125 0.875 -0.875 2.125l5.921875 0zm9.191772 -2.015625q-0.421875 0 -0.71875 -0.296875q-0.296875 -0.296875 -0.296875 -0.71875q0 -0.4375 0.296875 -0.734375q0.296875 -0.296875 0.71875 -0.296875q0.4375 0 0.734375 0.296875q0.296875 0.296875 0.296875 0.734375q0 0.421875 -0.296875 0.71875q-0.296875 0.296875 -0.734375 0.296875zm0 7.28125q-0.421875 0 -0.71875 -0.296875q-0.296875 -0.296875 -0.296875 -0.734375q0 -0.421875 0.296875 -0.71875q0.296875 -0.296875 0.71875 -0.296875q0.4375 0 0.734375 0.296875q0.296875 0.296875 0.296875 0.71875q0 0.4375 -0.296875 0.734375q-0.296875 0.296875 -0.734375 0.296875z" fill-rule="nonzero"/><path fill="#76a5af" d="m392.01523 319.03995l0 -16.203125l3.46875 0l0 1.03125l-2.390625 0l0 14.140625l2.390625 0l0 1.03125l-3.46875 0zm6.580353 -5.984375q0.375 0.59375 1.109375 1.0q0.734375 0.40625 1.578125 0.40625q1.328125 0 2.109375 -0.953125q0.796875 -0.96875 0.796875 -2.515625q0 -1.5625 -0.78125 -2.515625q-0.78125 -0.96875 -2.125 -0.96875q-0.84375 0 -1.578125 0.4375q-0.734375 0.421875 -1.109375 1.015625l0 4.09375zm-1.390625 2.4375l0 -12.4375l1.390625 0l0 4.78125q1.15625 -1.578125 3.046875 -1.578125q1.78125 0 2.890625 1.3125q1.109375 1.296875 1.109375 3.421875q0 2.171875 -1.109375 3.453125q-1.109375 1.265625 -2.890625 1.265625q-0.953125 0 -1.75 -0.4375q-0.796875 -0.4375 -1.296875 -1.125l0 1.34375l-1.390625 0zm16.352325 0l0 -1.03125q-1.140625 1.25 -2.984375 1.25q-1.359375 0 -2.265625 -0.859375q-0.890625 -0.859375 -0.890625 -2.125q0 -1.296875 0.890625 -2.125q0.890625 -0.84375 2.265625 -0.84375q1.9375 0 2.984375 1.234375l0 -1.625q0 -0.90625 -0.640625 -1.390625q-0.640625 -0.5 -1.640625 -0.5q-1.578125 0 -2.75 1.25l-0.65625 -0.984375q1.4375 -1.484375 3.59375 -1.484375q1.671875 0 2.578125 0.8125q0.921875 0.796875 0.921875 2.234375l0 6.1875l-1.40625 0zm-2.484375 -0.78125q1.671875 0 2.484375 -1.125l0 -1.6875q-0.8125 -1.125 -2.484375 -1.125q-0.984375 0 -1.609375 0.546875q-0.609375 0.546875 -0.609375 1.421875q0 0.859375 0.609375 1.421875q0.625 0.546875 1.609375 0.546875zm8.956848 1.0q-2.0 0 -2.0 -2.109375l0 -5.890625l-1.484375 0l0 -1.234375l1.484375 0l0 -2.453125l1.40625 0l0 2.453125l1.828125 0l0 1.234375l-1.828125 0l0 5.59375q0 0.515625 0.21875 0.84375q0.234375 0.3125 0.703125 0.3125q0.578125 0 0.9375 -0.375l0.421875 1.046875q-0.578125 0.578125 -1.6875 0.578125zm7.18808 0q-1.984375 0 -3.25 -1.34375q-1.25 -1.34375 -1.25 -3.390625q0 -2.03125 1.25 -3.375q1.265625 -1.34375 3.25 -1.34375q2.09375 0 3.296875 1.5625l-0.921875 0.859375q-0.859375 -1.171875 -2.296875 -1.171875q-1.390625 0 -2.265625 0.96875q-0.859375 0.953125 -0.859375 2.5q0 1.5625 0.859375 2.53125q0.859375 0.953125 2.265625 0.953125q1.40625 0 2.296875 -1.171875l0.921875 0.859375q-1.203125 1.5625 -3.296875 1.5625zm11.359833 -0.21875l0 -5.9375q0 -1.0 -0.484375 -1.515625q-0.46875 -0.53125 -1.546875 -0.53125q-0.765625 0 -1.484375 0.390625q-0.71875 0.390625 -1.1875 1.015625l0 6.578125l-1.390625 0l0 -12.4375l1.390625 0l0 4.734375q0.59375 -0.6875 1.453125 -1.109375q0.859375 -0.421875 1.78125 -0.421875q2.875 0 2.875 2.875l0 6.359375l-1.40625 0zm11.861572 0.21875q-2.296875 0 -3.640625 -1.40625l0.734375 -1.015625q0.453125 0.53125 1.234375 0.90625q0.796875 0.375 1.734375 0.375q1.046875 0 1.578125 -0.4375q0.546875 -0.4375 0.546875 -1.109375q0 -0.59375 -0.59375 -0.9375q-0.578125 -0.34375 -2.1875 -0.71875q-1.359375 -0.28125 -2.078125 -0.875q-0.71875 -0.609375 -0.71875 -1.640625q0 -1.140625 0.90625 -1.859375q0.921875 -0.734375 2.453125 -0.734375q2.03125 0 3.34375 1.3125l-0.65625 0.96875q-0.40625 -0.484375 -1.109375 -0.8125q-0.703125 -0.328125 -1.578125 -0.328125q-0.9375 0 -1.46875 0.40625q-0.53125 0.40625 -0.53125 1.015625q0 0.53125 0.59375 0.859375q0.609375 0.3125 2.203125 0.640625q1.359375 0.328125 2.0625 0.96875q0.71875 0.640625 0.71875 1.703125q0 1.25 -0.96875 1.984375q-0.96875 0.734375 -2.578125 0.734375zm6.5188904 -10.515625q-0.375 0 -0.65625 -0.265625q-0.28125 -0.28125 -0.28125 -0.671875q0 -0.390625 0.28125 -0.671875q0.28125 -0.28125 0.65625 -0.28125q0.390625 0 0.671875 0.28125q0.28125 0.28125 0.28125 0.671875q0 0.390625 -0.28125 0.671875q-0.28125 0.265625 -0.671875 0.265625zm-0.6875 10.296875l0 -9.015625l1.390625 0l0 9.015625l-1.390625 0zm3.7601624 0l0 -1.078125l4.96875 -6.703125l-4.96875 0l0 -1.234375l6.796875 0l0 1.0625l-5.0 6.734375l5.0625 0l0 1.21875l-6.859375 0zm13.305756 0.21875q-2.03125 0 -3.3125 -1.3125q-1.28125 -1.328125 -1.28125 -3.421875q0 -2.0 1.265625 -3.359375q1.28125 -1.359375 3.171875 -1.359375q1.9375 0 3.125 1.34375q1.203125 1.34375 1.203125 3.484375l0 0.359375l-7.296875 0q0.078125 1.375 1.0 2.25q0.921875 0.859375 2.25 0.859375q1.640625 0 2.78125 -1.140625l0.671875 0.921875q-1.375 1.375 -3.578125 1.375zm2.796875 -5.296875q0 -1.25 -0.828125 -2.125q-0.8125 -0.875 -2.140625 -0.875q-1.25 0 -2.078125 0.875q-0.828125 0.875 -0.875 2.125l5.921875 0zm5.3884277 4.625q0 0.859375 -0.4375 1.609375q-0.4375 0.75 -1.09375 1.21875l-0.6875 -0.578125q0.453125 -0.296875 0.796875 -0.796875q0.359375 -0.484375 0.421875 -0.9375l-0.265625 0.03125q-0.390625 0 -0.640625 -0.25q-0.25 -0.265625 -0.25 -0.703125q0 -0.40625 0.265625 -0.703125q0.28125 -0.296875 0.71875 -0.296875q0.46875 0 0.8125 0.375q0.359375 0.359375 0.359375 1.03125zm10.072998 0.671875q-2.296875 0 -3.640625 -1.40625l0.734375 -1.015625q0.453125 0.53125 1.234375 0.90625q0.796875 0.375 1.734375 0.375q1.046875 0 1.578125 -0.4375q0.546875 -0.4375 0.546875 -1.109375q0 -0.59375 -0.59375 -0.9375q-0.578125 -0.34375 -2.1875 -0.71875q-1.359375 -0.28125 -2.078125 -0.875q-0.71875 -0.609375 -0.71875 -1.640625q0 -1.140625 0.90625 -1.859375q0.921875 -0.734375 2.453125 -0.734375q2.03125 0 3.34375 1.3125l-0.65625 0.96875q-0.40625 -0.484375 -1.109375 -0.8125q-0.703125 -0.328125 -1.578125 -0.328125q-0.9375 0 -1.46875 0.40625q-0.53125 0.40625 -0.53125 1.015625q0 0.53125 0.59375 0.859375q0.609375 0.3125 2.203125 0.640625q1.359375 0.328125 2.0625 0.96875q0.71875 0.640625 0.71875 1.703125q0 1.25 -0.96875 1.984375q-0.96875 0.734375 -2.578125 0.734375zm9.893921 0q-2.03125 0 -3.3125 -1.3125q-1.28125 -1.328125 -1.28125 -3.421875q0 -2.0 1.265625 -3.359375q1.28125 -1.359375 3.171875 -1.359375q1.9375 0 3.125 1.34375q1.203125 1.34375 1.203125 3.484375l0 0.359375l-7.296875 0q0.078125 1.375 1.0 2.25q0.921875 0.859375 2.25 0.859375q1.640625 0 2.78125 -1.140625l0.671875 0.921875q-1.375 1.375 -3.578125 1.375zm2.796875 -5.296875q0 -1.25 -0.828125 -2.125q-0.8125 -0.875 -2.140625 -0.875q-1.25 0 -2.078125 0.875q-0.828125 0.875 -0.875 2.125l5.921875 0zm7.4096985 4.046875q0.7656555 0 1.5469055 -0.40625q0.78125 -0.421875 1.140625 -1.046875l0 -4.0625q-0.34375 -0.578125 -1.09375 -1.0q-0.734375 -0.4375 -1.5937805 -0.4375q-1.328125 0 -2.109375 0.96875q-0.765625 0.953125 -0.765625 2.5q0 1.546875 0.765625 2.515625q0.78125 0.96875 2.109375 0.96875zm-0.34375 1.25q-1.8125 0 -2.90625 -1.28125q-1.09375 -1.28125 -1.09375 -3.453125q0 -2.203125 1.109375 -3.453125q1.109375 -1.265625 2.890625 -1.265625q0.9531555 0 1.7500305 0.4375q0.796875 0.4375 1.28125 1.125l0 -1.34375l1.390625 0l0 12.453125l-1.390625 0l0 -4.796875q-1.125 1.578125 -3.0312805 1.578125zm13.327606 -0.21875l0 -1.265625q-0.53125 0.59375 -1.375 1.046875q-0.828125 0.4375 -1.84375 0.4375q-2.859375 0 -2.859375 -2.875l0 -6.359375l1.390625 0l0 5.9375q0 1.0625 0.484375 1.5625q0.484375 0.484375 1.53125 0.484375q0.828125 0 1.546875 -0.40625q0.734375 -0.40625 1.125 -0.953125l0 -6.625l1.390625 0l0 9.015625l-1.390625 0zm8.263977 0.21875q-2.03125 0 -3.3125 -1.3125q-1.28125 -1.328125 -1.28125 -3.421875q0 -2.0 1.265625 -3.359375q1.28125 -1.359375 3.171875 -1.359375q1.9375 0 3.125 1.34375q1.203125 1.34375 1.203125 3.484375l0 0.359375l-7.296875 0q0.078125 1.375 1.0 2.25q0.921875 0.859375 2.25 0.859375q1.640625 0 2.78125 -1.140625l0.671875 0.921875q-1.375 1.375 -3.578125 1.375zm2.796875 -5.296875q0 -1.25 -0.828125 -2.125q-0.8125 -0.875 -2.140625 -0.875q-1.25 0 -2.078125 0.875q-0.828125 0.875 -0.875 2.125l5.921875 0zm9.722229 5.078125l0 -5.890625q0 -1.203125 -0.5625 -1.640625q-0.546875 -0.453125 -1.453125 -0.453125q-0.78125 0 -1.546875 0.421875q-0.75 0.421875 -1.125 0.984375l0 6.578125l-1.390625 0l0 -9.015625l1.390625 0l0 1.3125q0.578125 -0.671875 1.421875 -1.09375q0.859375 -0.4375 1.78125 -0.4375q2.875 0 2.875 2.90625l0 6.328125l-1.390625 0zm8.170227 0.21875q-1.984375 0 -3.25 -1.34375q-1.25 -1.34375 -1.25 -3.390625q0 -2.03125 1.25 -3.375q1.265625 -1.34375 3.25 -1.34375q2.09375 0 3.296875 1.5625l-0.921875 0.859375q-0.859375 -1.171875 -2.296875 -1.171875q-1.390625 0 -2.265625 0.96875q-0.859375 0.953125 -0.859375 2.5q0 1.5625 0.859375 2.53125q0.859375 0.953125 2.265625 0.953125q1.40625 0 2.296875 -1.171875l0.921875 0.859375q-1.203125 1.5625 -3.296875 1.5625zm9.328613 0q-2.03125 0 -3.3125 -1.3125q-1.28125 -1.328125 -1.28125 -3.421875q0 -2.0 1.265625 -3.359375q1.28125 -1.359375 3.171875 -1.359375q1.9375 0 3.125 1.34375q1.203125 1.34375 1.203125 3.484375l0 0.359375l-7.296875 0q0.078125 1.375 1.0 2.25q0.921875 0.859375 2.25 0.859375q1.640625 0 2.78125 -1.140625l0.671875 0.921875q-1.375 1.375 -3.578125 1.375zm2.796875 -5.296875q0 -1.25 -0.828125 -2.125q-0.8125 -0.875 -2.140625 -0.875q-1.25 0 -2.078125 0.875q-0.828125 0.875 -0.875 2.125l5.921875 0zm8.457397 5.078125l0 -12.4375l1.390625 0l0 12.4375l-1.390625 0zm8.260132 0.21875q-2.03125 0 -3.3125 -1.3125q-1.28125 -1.328125 -1.28125 -3.421875q0 -2.0 1.265625 -3.359375q1.28125 -1.359375 3.171875 -1.359375q1.9375 0 3.125 1.34375q1.203125 1.34375 1.203125 3.484375l0 0.359375l-7.296875 0q0.078125 1.375 1.0 2.25q0.921875 0.859375 2.25 0.859375q1.640625 0 2.78125 -1.140625l0.671875 0.921875q-1.375 1.375 -3.578125 1.375zm2.796875 -5.296875q0 -1.25 -0.828125 -2.125q-0.8125 -0.875 -2.140625 -0.875q-1.25 0 -2.078125 0.875q-0.828125 0.875 -0.875 2.125l5.921875 0zm9.722229 5.078125l0 -5.890625q0 -1.203125 -0.5625 -1.640625q-0.546875 -0.453125 -1.453125 -0.453125q-0.78125 0 -1.546875 0.421875q-0.75 0.421875 -1.125 0.984375l0 6.578125l-1.390625 0l0 -9.015625l1.390625 0l0 1.3125q0.578125 -0.671875 1.421875 -1.09375q0.859375 -0.4375 1.78125 -0.4375q2.875 0 2.875 2.90625l0 6.328125l-1.390625 0zm7.810852 3.65625q-1.15625 0 -2.0 -0.28125q-0.828125 -0.28125 -1.640625 -1.0625l0.71875 -1.046875q0.5625 0.671875 1.25 0.953125q0.703125 0.28125 1.671875 0.28125q1.390625 0 2.140625 -0.71875q0.75 -0.71875 0.75 -1.984375l0 -1.296875q-0.484375 0.703125 -1.28125 1.15625q-0.78125 0.453125 -1.734375 0.453125q-1.828125 0 -2.921875 -1.28125q-1.09375 -1.296875 -1.09375 -3.375q0 -2.171875 1.109375 -3.421875q1.109375 -1.265625 2.90625 -1.265625q1.859375 0 3.015625 1.578125l0 -1.359375l1.40625 0l0 8.75q0 1.90625 -1.125 2.90625q-1.109375 1.015625 -3.171875 1.015625zm0.203125 -4.78125q0.765625 0 1.515625 -0.40625q0.765625 -0.40625 1.171875 -1.0625l0 -3.9375q-0.40625 -0.65625 -1.171875 -1.046875q-0.765625 -0.40625 -1.515625 -0.40625q-1.3125 0 -2.109375 0.953125q-0.78125 0.953125 -0.78125 2.484375q0 1.546875 0.796875 2.484375q0.8125 0.9375 2.09375 0.9375zm9.161804 1.34375q-2.0 0 -2.0 -2.109375l0 -5.890625l-1.484375 0l0 -1.234375l1.484375 0l0 -2.453125l1.40625 0l0 2.453125l1.828125 0l0 1.234375l-1.828125 0l0 5.59375q0 0.515625 0.21875 0.84375q0.234375 0.3125 0.703125 0.3125q0.578125 0 0.9375 -0.375l0.421875 1.046875q-0.578125 0.578125 -1.6875 0.578125zm9.31311 -0.21875l0 -5.9375q0 -1.0 -0.484375 -1.515625q-0.46875 -0.53125 -1.546875 -0.53125q-0.765625 0 -1.484375 0.390625q-0.71875 0.390625 -1.1875 1.015625l0 6.578125l-1.390625 0l0 -12.4375l1.390625 0l0 4.734375q0.59375 -0.6875 1.453125 -1.109375q0.859375 -0.421875 1.78125 -0.421875q2.875 0 2.875 2.875l0 6.359375l-1.40625 0zm6.079468 -0.453125q0 0.859375 -0.4375 1.609375q-0.4375 0.75 -1.09375 1.21875l-0.6875 -0.578125q0.453125 -0.296875 0.796875 -0.796875q0.359375 -0.484375 0.421875 -0.9375l-0.265625 0.03125q-0.390625 0 -0.640625 -0.25q-0.25 -0.265625 -0.25 -0.703125q0 -0.40625 0.265625 -0.703125q0.28125 -0.296875 0.71875 -0.296875q0.46875 0 0.8125 0.375q0.359375 0.359375 0.359375 1.03125zm6.822998 0.453125l0 -1.234375q3.296875 -2.59375 4.515625 -3.765625q1.234375 -1.1875 1.8125 -2.125q0.578125 -0.953125 0.578125 -1.84375q0 -1.03125 -0.703125 -1.65625q-0.703125 -0.625 -1.890625 -0.625q-2.171875 0 -3.375 1.5625l-0.953125 -0.984375q0.71875 -0.953125 1.859375 -1.453125q1.15625 -0.5 2.46875 -0.5q1.8125 0 3.0 1.0q1.1875 0.984375 1.1875 2.65625q0 1.5 -1.28125 3.171875q-1.28125 1.671875 -4.765625 4.421875l6.09375 0l0 1.375l-8.546875 0zm10.28241 3.546875l0 -1.03125l2.390625 0l0 -14.140625l-2.390625 0l0 -1.03125l3.46875 0l0 16.203125l-3.46875 0z" fill-rule="nonzero"/></g></svg>