<svg version="1.1" viewBox="0.0 0.0 391.18897637795277 460.5196850393701" fill="none" stroke="none" stroke-linecap="square" stroke-miterlimit="10" xmlns:xlink="http://www.w3.org/1999/xlink" xmlns="http://www.w3.org/2000/svg"><clipPath id="p.0"><path d="m0 0l391.18896 0l0 460.51968l-391.18896 0l0 -460.51968z" clip-rule="nonzero"/></clipPath><g clip-path="url(#p.0)"><path fill="#000000" fill-opacity="0.0" d="m0 0l391.18896 0l0 460.51968l-391.18896 0z" fill-rule="evenodd"/><path fill="#000000" fill-opacity="0.0" d="m83.0538 140.37727l0 0c0 -4.06131 3.2923431 -7.353653 7.3536453 -7.353653l118.42657 0c1.9503174 0 3.8207397 0.774765 5.199814 2.153839c1.3790741 1.3790741 2.153839 3.2494965 2.153839 5.199814l0 61.072235c0 4.0612946 -3.2923431 7.3536377 -7.353653 7.3536377l-118.42657 0c-4.061302 0 -7.3536453 -3.2923431 -7.3536453 -7.3536377z" fill-rule="evenodd"/><path stroke="#666666" stroke-width="2.0" stroke-linejoin="round" stroke-linecap="butt" d="m83.0538 140.37727l0 0c0 -4.06131 3.2923431 -7.353653 7.3536453 -7.353653l118.42657 0c1.9503174 0 3.8207397 0.774765 5.199814 2.153839c1.3790741 1.3790741 2.153839 3.2494965 2.153839 5.199814l0 61.072235c0 4.0612946 -3.2923431 7.3536377 -7.353653 7.3536377l-118.42657 0c-4.061302 0 -7.3536453 -3.2923431 -7.3536453 -7.3536377z" fill-rule="evenodd"/><path fill="#666666" d="m102.4351 177.83339l0 -10.109375l-3.640625 0l0 -2.328125l9.921875 0l0 2.328125l-3.625 0l0 10.109375l-2.65625 0zm6.651108 0l0 -9.015625l2.375 0l0 1.234375q0.484375 -0.59375 1.25 -1.015625q0.78125 -0.4375 1.625 -0.4375l0 2.3125l-0.65625 -0.0625q-0.640625 0 -1.28125 0.3125q-0.640625 0.296875 -0.9375 0.71875l0 5.953125l-2.375 0zm12.122498 0l0 -0.9375q-0.984375 1.15625 -2.84375 1.15625q-1.3125 0 -2.234375 -0.828125q-0.90625 -0.828125 -0.90625 -2.15625q0 -1.3125 0.859375 -2.109375q0.875 -0.796875 2.28125 -0.796875q1.9375 0 2.84375 1.09375l0 -1.203125q0 -0.6875 -0.546875 -1.09375q-0.53125 -0.421875 -1.421875 -0.421875q-1.5 0 -2.625 1.0625l-0.90625 -1.578125q1.640625 -1.421875 3.9375 -1.421875q1.90625 0 2.921875 0.890625q1.015625 0.875 1.015625 2.515625l0 5.828125l-2.375 0zm-1.890625 -1.375q1.296875 0 1.890625 -0.796875l0 -1.109375q-0.59375 -0.78125 -1.890625 -0.78125q-0.71875 0 -1.21875 0.359375q-0.484375 0.34375 -0.484375 1.0q0 0.625 0.484375 0.984375q0.5 0.34375 1.21875 0.34375zm12.692848 1.375l0 -5.453125q0 -1.671875 -1.65625 -1.671875q-1.28125 0 -2.046875 1.0625l0 6.0625l-2.3750076 0l0 -9.015625l2.3750076 0l0 1.1875q0.421875 -0.53125 1.21875 -0.96875q0.8125 -0.4375 1.9375 -0.4375q1.484375 0 2.203125 0.78125q0.71875 0.765625 0.71875 2.09375l0 6.359375l-2.375 0zm7.9738464 0.21875q-1.171875 0 -2.25 -0.359375q-1.078125 -0.375 -1.78125 -1.03125l1.03125 -1.65625q0.53125 0.5 1.421875 0.859375q0.90625 0.359375 1.6875 0.359375q1.515625 0 1.515625 -0.96875q0 -0.375 -0.40625 -0.5625q-0.390625 -0.1875 -0.96875 -0.3125l-1.296875 -0.265625q-2.6875 -0.578125 -2.6875 -2.6875q0 -1.25 1.03125 -2.03125q1.046875 -0.796875 2.671875 -0.796875q2.109375 0 3.625 1.234375l-0.9375 1.625q-0.421875 -0.4375 -1.125 -0.734375q-0.703125 -0.3125 -1.546875 -0.3125q-0.65625 0 -1.046875 0.265625q-0.375 0.25 -0.375 0.625q0 0.34375 0.390625 0.515625q0.390625 0.15625 0.984375 0.28125q0.609375 0.125 1.296875 0.28125q0.6875 0.15625 1.28125 0.46875q0.59375 0.3125 0.984375 0.859375q0.40625 0.546875 0.40625 1.453125q0 1.3125 -1.078125 2.109375q-1.0625 0.78125 -2.828125 0.78125zm6.1802826 -0.21875l0 -6.9375l-1.5 0l0 -2.078125l1.5 0l0 -0.484375q0 -1.453125 0.828125 -2.28125q0.84375 -0.84375 2.203125 -0.84375q1.5937347 0 2.3593597 0.828125l-0.90625 1.40625q-0.359375 -0.375 -0.984375 -0.375q-0.48435974 0 -0.81248474 0.328125q-0.3125 0.3125 -0.3125 0.9375l0 0.484375l1.8281097 0l0 2.078125l-1.8281097 0l0 6.9375l-2.375 0zm9.756836 0.21875q-2.09375 0 -3.4375 -1.34375q-1.328125 -1.34375 -1.328125 -3.390625q0 -2.046875 1.328125 -3.375q1.34375 -1.34375 3.4375 -1.34375q2.078125 0 3.421875 1.34375q1.34375 1.328125 1.34375 3.375q0 2.078125 -1.34375 3.40625q-1.34375 1.328125 -3.421875 1.328125zm0 -2.109375q1.015625 0 1.65625 -0.734375q0.65625 -0.734375 0.65625 -1.890625q0 -1.125 -0.65625 -1.859375q-0.640625 -0.75 -1.65625 -0.75q-1.0 0 -1.65625 0.71875q-0.640625 0.71875 -0.640625 1.890625q0 1.1875 0.640625 1.90625q0.65625 0.71875 1.65625 0.71875zm6.5211945 1.890625l0 -9.015625l2.375 0l0 1.234375q0.484375 -0.59375 1.25 -1.015625q0.78125 -0.4375 1.625 -0.4375l0 2.3125l-0.65625 -0.0625q-0.640625 0 -1.28125 0.3125q-0.640625 0.296875 -0.9375 0.71875l0 5.953125l-2.375 0zm17.888123 0l0 -5.6875q0 -1.4375 -1.34375 -1.4375q-0.625 0 -1.109375 0.34375q-0.484375 0.328125 -0.75 0.703125l0 6.078125l-2.390625 0l0 -5.6875q0 -1.4375 -1.34375 -1.4375q-0.609375 0 -1.109375 0.34375q-0.484375 0.34375 -0.75 0.71875l0 6.0625l-2.375 0l0 -9.015625l2.375 0l0 1.1875q0.3125 -0.515625 1.171875 -0.953125q0.875 -0.453125 1.78125 -0.453125q1.953125 0 2.5 1.640625q0.421875 -0.6875 1.28125 -1.15625q0.859375 -0.484375 1.8125 -0.484375q2.640625 0 2.640625 2.71875l0 6.515625l-2.390625 0zm8.957626 0.21875q-2.125 0 -3.46875 -1.3125q-1.34375 -1.3125 -1.34375 -3.421875q0 -2.015625 1.328125 -3.359375q1.34375 -1.359375 3.34375 -1.359375q1.984375 0 3.25 1.375q1.265625 1.359375 1.265625 3.59375l0 0.515625l-6.703125 0q0.109375 0.859375 0.765625 1.484375q0.671875 0.609375 1.828125 0.609375q0.5625 0 1.25 -0.234375q0.6875 -0.234375 1.15625 -0.671875l1.046875 1.53125q-0.671875 0.625 -1.671875 0.9375q-0.984375 0.3125 -2.046875 0.3125zm2.078125 -5.578125q-0.0625 -0.890625 -0.6875 -1.4375q-0.609375 -0.546875 -1.53125 -0.546875q-0.9375 0 -1.53125 0.5625q-0.59375 0.5625 -0.6875 1.421875l4.4375 0zm4.00441 5.359375l0 -9.015625l2.375 0l0 1.234375q0.484375 -0.59375 1.25 -1.015625q0.78125 -0.4375 1.625 -0.4375l0 2.3125l-0.65625 -0.0625q-0.640625 0 -1.28125 0.3125q-0.640625 0.296875 -0.9375 0.71875l0 5.953125l-2.375 0z" fill-rule="nonzero"/><path fill="#000000" fill-opacity="0.0" d="m149.62073 208.80315l0 38.393707" fill-rule="evenodd"/><path stroke="#666666" stroke-width="2.0" stroke-linejoin="round" stroke-linecap="butt" d="m149.62073 220.80315l0 26.393707" fill-rule="evenodd"/><path fill="#666666" stroke="#666666" stroke-width="2.0" stroke-linecap="butt" d="m152.9242 220.80315l-3.3034668 -9.076187l-3.3034515 9.076187z" fill-rule="evenodd"/><path fill="#000000" fill-opacity="0.0" d="m11.149607 431.18896l30.771654 0l0 22.771667l-30.771654 0z" fill-rule="evenodd"/><path stroke="#666666" stroke-width="2.0" stroke-linejoin="round" stroke-linecap="butt" d="m11.149607 431.18896l30.771654 0l0 22.771667l-30.771654 0z" fill-rule="evenodd"/><path fill="#000000" fill-opacity="0.0" d="m41.92126 431.18896l30.771656 0l0 22.771667l-30.771656 0z" fill-rule="evenodd"/><path stroke="#666666" stroke-width="2.0" stroke-linejoin="round" stroke-linecap="butt" d="m41.92126 431.18896l30.771656 0l0 22.771667l-30.771656 0z" fill-rule="evenodd"/><path fill="#000000" fill-opacity="0.0" d="m72.69292 431.18896l30.771652 0l0 22.771667l-30.771652 0z" fill-rule="evenodd"/><path stroke="#666666" stroke-width="2.0" stroke-linejoin="round" stroke-linecap="butt" d="m72.69292 431.18896l30.771652 0l0 22.771667l-30.771652 0z" fill-rule="evenodd"/><path fill="#000000" fill-opacity="0.0" d="m103.46457 431.18896l30.771652 0l0 22.771667l-30.771652 0z" fill-rule="evenodd"/><path stroke="#666666" stroke-width="2.0" stroke-linejoin="round" stroke-linecap="butt" d="m103.46457 431.18896l30.771652 0l0 22.771667l-30.771652 0z" fill-rule="evenodd"/><path fill="#000000" fill-opacity="0.0" d="m134.23622 431.18896l30.771652 0l0 22.771667l-30.771652 0z" fill-rule="evenodd"/><path stroke="#666666" stroke-width="2.0" stroke-linejoin="round" stroke-linecap="butt" d="m134.23622 431.18896l30.771652 0l0 22.771667l-30.771652 0z" fill-rule="evenodd"/><path fill="#000000" fill-opacity="0.0" d="m165.00787 431.18896l30.771652 0l0 22.771667l-30.771652 0z" fill-rule="evenodd"/><path stroke="#666666" stroke-width="2.0" stroke-linejoin="round" stroke-linecap="butt" d="m165.00787 431.18896l30.771652 0l0 22.771667l-30.771652 0z" fill-rule="evenodd"/><path fill="#000000" fill-opacity="0.0" d="m195.77953 431.18896l30.771652 0l0 22.771667l-30.771652 0z" fill-rule="evenodd"/><path stroke="#666666" stroke-width="2.0" stroke-linejoin="round" stroke-linecap="butt" d="m195.77953 431.18896l30.771652 0l0 22.771667l-30.771652 0z" fill-rule="evenodd"/><path fill="#000000" fill-opacity="0.0" d="m226.55118 431.18896l30.771667 0l0 22.771667l-30.771667 0z" fill-rule="evenodd"/><path stroke="#666666" stroke-width="2.0" stroke-linejoin="round" stroke-linecap="butt" d="m226.55118 431.18896l30.771667 0l0 22.771667l-30.771667 0z" fill-rule="evenodd"/><path fill="#000000" fill-opacity="0.0" d="m257.32285 431.18896l30.771637 0l0 22.771667l-30.771637 0z" fill-rule="evenodd"/><path stroke="#666666" stroke-width="2.0" stroke-linejoin="round" stroke-linecap="butt" d="m257.32285 431.18896l30.771637 0l0 22.771667l-30.771637 0z" fill-rule="evenodd"/><path fill="#000000" fill-opacity="0.0" d="m133.60014 288.8521l30.771652 0l0 42.015747l-30.771652 0z" fill-rule="evenodd"/><path fill="#666666" d="m150.49077 311.5225l0 5.40625l-2.3125 0l0 -5.40625l-4.8125 0l0 -2.109375l4.8125 0l0 -5.203125l2.3125 0l0 5.203125l4.765625 0l0 2.109375l-4.765625 0z" fill-rule="nonzero"/><path fill="#000000" fill-opacity="0.0" d="m106.11024 362.71405l0 0c0 -1.4989319 1.215126 -2.7140503 2.7140656 -2.7140503l81.5955 0c0.71980286 0 1.410141 0.2859497 1.9191284 0.7949219c0.5089874 0.5090027 0.79493713 1.1993408 0.79493713 1.9191284l0 22.540405c0 1.4989319 -1.2151337 2.7140503 -2.7140656 2.7140503l-81.5955 0l0 0c-1.4989395 0 -2.7140656 -1.2151184 -2.7140656 -2.7140503z" fill-rule="evenodd"/><path stroke="#666666" stroke-width="2.0" stroke-linejoin="round" stroke-linecap="butt" d="m106.11024 362.71405l0 0c0 -1.4989319 1.215126 -2.7140503 2.7140656 -2.7140503l81.5955 0c0.71980286 0 1.410141 0.2859497 1.9191284 0.7949219c0.5089874 0.5090027 0.79493713 1.1993408 0.79493713 1.9191284l0 22.540405c0 1.4989319 -1.2151337 2.7140503 -2.7140656 2.7140503l-81.5955 0l0 0c-1.4989395 0 -2.7140656 -1.2151184 -2.7140656 -2.7140503z" fill-rule="evenodd"/><path fill="#666666" d="m124.63506 380.90424l0 -12.4375l2.640625 0l0 10.109375l5.2656174 0l0 2.328125l-7.9062424 0zm10.866585 -9.984375q-0.578125 0 -1.0 -0.40625q-0.40625 -0.40625 -0.40625 -1.015625q0 -0.59375 0.40625 -0.984375q0.421875 -0.40625 1.0 -0.40625q0.609375 0 1.015625 0.40625q0.40625 0.390625 0.40625 0.984375q0 0.609375 -0.40625 1.015625q-0.40625 0.40625 -1.015625 0.40625zm-1.171875 9.984375l0 -9.015625l2.375 0l0 9.015625l-2.375 0zm10.798157 0l0 -5.453125q0 -1.671875 -1.65625 -1.671875q-1.28125 0 -2.046875 1.0625l0 6.0625l-2.375 0l0 -9.015625l2.375 0l0 1.1875q0.421875 -0.53125 1.21875 -0.96875q0.8125 -0.4375 1.9375 -0.4375q1.484375 0 2.203125 0.78125q0.71875 0.765625 0.71875 2.09375l0 6.359375l-2.375 0zm8.958221 0.21875q-2.125 0 -3.46875 -1.3125q-1.34375 -1.3125 -1.34375 -3.421875q0 -2.015625 1.328125 -3.359375q1.34375 -1.359375 3.34375 -1.359375q1.984375 0 3.25 1.375q1.265625 1.359375 1.265625 3.59375l0 0.515625l-6.703125 0q0.109375 0.859375 0.765625 1.484375q0.671875 0.609375 1.828125 0.609375q0.5625 0 1.25 -0.234375q0.6875 -0.234375 1.15625 -0.671875l1.046875 1.53125q-0.671875 0.625 -1.671875 0.9375q-0.984375 0.3125 -2.046875 0.3125zm2.078125 -5.578125q-0.0625 -0.890625 -0.6875 -1.4375q-0.609375 -0.546875 -1.53125 -0.546875q-0.9375 0 -1.53125 0.5625q-0.59375 0.5625 -0.6875 1.421875l4.4375 0zm9.41066 5.359375l0 -0.9375q-0.984375 1.15625 -2.84375 1.15625q-1.3125 0 -2.234375 -0.828125q-0.90625 -0.828125 -0.90625 -2.15625q0 -1.3125 0.859375 -2.109375q0.875 -0.796875 2.28125 -0.796875q1.9375 0 2.84375 1.09375l0 -1.203125q0 -0.6875 -0.546875 -1.09375q-0.53125 -0.421875 -1.421875 -0.421875q-1.5 0 -2.625 1.0625l-0.90625 -1.578125q1.640625 -1.421875 3.9375 -1.421875q1.90625 0 2.921875 0.890625q1.015625 0.875 1.015625 2.515625l0 5.828125l-2.375 0zm-1.890625 -1.375q1.296875 0 1.890625 -0.796875l0 -1.109375q-0.59375 -0.78125 -1.890625 -0.78125q-0.71875 0 -1.21875 0.359375q-0.484375 0.34375 -0.484375 1.0q0 0.625 0.484375 0.984375q0.5 0.34375 1.21875 0.34375zm6.6147156 1.375l0 -9.015625l2.375 0l0 1.234375q0.484375 -0.59375 1.25 -1.015625q0.78125 -0.4375 1.625 -0.4375l0 2.3125l-0.65625 -0.0625q-0.640625 0 -1.28125 0.3125q-0.640625 0.296875 -0.9375 0.71875l0 5.953125l-2.375 0z" fill-rule="nonzero"/><path fill="#000000" fill-opacity="0.0" d="m249.2021 355.51788l0 0c0 -2.4560242 1.9909973 -4.4470215 4.4470215 -4.4470215l121.625626 0c1.1794434 0 2.3105469 0.46853638 3.1445312 1.3025208c0.8339844 0.83395386 1.3024902 1.9650879 1.3024902 3.1445007l0 36.93274c0 2.4560242 -1.9909973 4.4470215 -4.4470215 4.4470215l-121.625626 0l0 0c-2.4560242 0 -4.4470215 -1.9909973 -4.4470215 -4.4470215z" fill-rule="evenodd"/><path stroke="#666666" stroke-width="2.0" stroke-linejoin="round" stroke-linecap="butt" d="m249.2021 355.51788l0 0c0 -2.4560242 1.9909973 -4.4470215 4.4470215 -4.4470215l121.625626 0c1.1794434 0 2.3105469 0.46853638 3.1445312 1.3025208c0.8339844 0.83395386 1.3024902 1.9650879 1.3024902 3.1445007l0 36.93274c0 2.4560242 -1.9909973 4.4470215 -4.4470215 4.4470215l-121.625626 0l0 0c-2.4560242 0 -4.4470215 -1.9909973 -4.4470215 -4.4470215z" fill-rule="evenodd"/><path fill="#666666" d="m281.60208 369.90424l0 -12.4375l5.8125 0q1.90625 0 3.046875 1.109375q1.140625 1.109375 1.140625 2.890625q0 1.78125 -1.171875 2.90625q-1.15625 1.109375 -3.015625 1.109375l-3.171875 0l0 4.421875l-2.640625 0zm5.46875 -6.75q0.78125 0 1.296875 -0.453125q0.53125 -0.453125 0.53125 -1.234375q0 -0.78125 -0.53125 -1.21875q-0.515625 -0.453125 -1.296875 -0.453125l-2.828125 0l0 3.359375l2.828125 0zm9.980438 6.96875q-2.09375 0 -3.4375 -1.34375q-1.328125 -1.34375 -1.328125 -3.390625q0 -2.046875 1.328125 -3.375q1.34375 -1.34375 3.4375 -1.34375q2.078125 0 3.421875 1.34375q1.34375 1.328125 1.34375 3.375q0 2.078125 -1.34375 3.40625q-1.34375 1.328125 -3.421875 1.328125zm0 -2.109375q1.015625 0 1.65625 -0.734375q0.65625 -0.734375 0.65625 -1.890625q0 -1.125 -0.65625 -1.859375q-0.640625 -0.75 -1.65625 -0.75q-1.0 0 -1.65625 0.71875q-0.640625 0.71875 -0.640625 1.890625q0 1.1875 0.640625 1.90625q0.65625 0.71875 1.65625 0.71875zm9.771179 2.109375q-1.171875 0 -2.25 -0.359375q-1.078125 -0.375 -1.78125 -1.03125l1.03125 -1.65625q0.53125 0.5 1.421875 0.859375q0.90625 0.359375 1.6875 0.359375q1.515625 0 1.515625 -0.96875q0 -0.375 -0.40625 -0.5625q-0.390625 -0.1875 -0.96875 -0.3125l-1.296875 -0.265625q-2.6875 -0.578125 -2.6875 -2.6875q0 -1.25 1.03125 -2.03125q1.046875 -0.796875 2.671875 -0.796875q2.109375 0 3.625 1.234375l-0.9375 1.625q-0.421875 -0.4375 -1.125 -0.734375q-0.703125 -0.3125 -1.546875 -0.3125q-0.65625 0 -1.046875 0.265625q-0.375 0.25 -0.375 0.625q0 0.34375 0.390625 0.515625q0.390625 0.15625 0.984375 0.28125q0.609375 0.125 1.296875 0.28125q0.6875 0.15625 1.28125 0.46875q0.59375 0.3125 0.984375 0.859375q0.40625 0.546875 0.40625 1.453125q0 1.3125 -1.078125 2.109375q-1.0625 0.78125 -2.828125 0.78125zm6.820923 -10.203125q-0.578125 0 -1.0 -0.40625q-0.40625 -0.40625 -0.40625 -1.015625q0 -0.59375 0.40625 -0.984375q0.421875 -0.40625 1.0 -0.40625q0.609375 0 1.015625 0.40625q0.40625 0.390625 0.40625 0.984375q0 0.609375 -0.40625 1.015625q-0.40625 0.40625 -1.015625 0.40625zm-1.171875 9.984375l0 -9.015625l2.375 0l0 9.015625l-2.375 0zm7.7512817 0.21875q-2.5625 0 -2.5625 -2.453125l0 -4.703125l-1.484375 0l0 -2.078125l1.484375 0l0 -2.453125l2.390625 0l0 2.453125l1.828125 0l0 2.078125l-1.828125 0l0 4.0625q0 0.4375 0.203125 0.71875q0.21875 0.265625 0.609375 0.265625q0.5625 0 0.828125 -0.25l0.5 1.78125q-0.609375 0.578125 -1.96875 0.578125zm4.4464417 -10.203125q-0.578125 0 -1.0 -0.40625q-0.40625 -0.40625 -0.40625 -1.015625q0 -0.59375 0.40625 -0.984375q0.421875 -0.40625 1.0 -0.40625q0.609375 0 1.015625 0.40625q0.40625 0.390625 0.40625 0.984375q0 0.609375 -0.40625 1.015625q-0.40625 0.40625 -1.015625 0.40625zm-1.171875 9.984375l0 -9.015625l2.375 0l0 9.015625l-2.375 0zm8.907532 0.21875q-2.09375 0 -3.4375 -1.34375q-1.328125 -1.34375 -1.328125 -3.390625q0 -2.046875 1.328125 -3.375q1.34375 -1.34375 3.4375 -1.34375q2.078125 0 3.421875 1.34375q1.34375 1.328125 1.34375 3.375q0 2.078125 -1.34375 3.40625q-1.34375 1.328125 -3.421875 1.328125zm0 -2.109375q1.015625 0 1.65625 -0.734375q0.65625 -0.734375 0.65625 -1.890625q0 -1.125 -0.65625 -1.859375q-0.640625 -0.75 -1.65625 -0.75q-1.0 0 -1.65625 0.71875q-0.640625 0.71875 -0.640625 1.890625q0 1.1875 0.640625 1.90625q0.65625 0.71875 1.65625 0.71875zm12.599304 1.890625l0 -5.453125q0 -1.671875 -1.65625 -1.671875q-1.28125 0 -2.046875 1.0625l0 6.0625l-2.375 0l0 -9.015625l2.375 0l0 1.1875q0.421875 -0.53125 1.21875 -0.96875q0.8125 -0.4375 1.9375 -0.4375q1.484375 0 2.203125 0.78125q0.71875 0.765625 0.71875 2.09375l0 6.359375l-2.375 0z" fill-rule="nonzero"/><path fill="#666666" d="m267.53738 392.123q-2.125 0 -3.46875 -1.3125q-1.34375 -1.3125 -1.34375 -3.421875q0 -2.015625 1.328125 -3.359375q1.34375 -1.359375 3.34375 -1.359375q1.984375 0 3.25 1.375q1.265625 1.359375 1.265625 3.59375l0 0.515625l-6.703125 0q0.109375 0.859375 0.765625 1.484375q0.671875 0.609375 1.828125 0.609375q0.5625 0 1.25 -0.234375q0.6875 -0.234375 1.15625 -0.671875l1.046875 1.53125q-0.671875 0.625 -1.671875 0.9375q-0.984375 0.3125 -2.046875 0.3125zm2.078125 -5.578125q-0.0625 -0.890625 -0.6875 -1.4375q-0.609375 -0.546875 -1.53125 -0.546875q-0.9375 0 -1.53125 0.5625q-0.59375 0.5625 -0.6875 1.421875l4.4375 0zm15.1763 5.359375l0 -5.6875q0 -1.4375 -1.34375 -1.4375q-0.625 0 -1.109375 0.34375q-0.484375 0.328125 -0.75 0.703125l0 6.078125l-2.390625 0l0 -5.6875q0 -1.4375 -1.34375 -1.4375q-0.609375 0 -1.109375 0.34375q-0.484375 0.34375 -0.75 0.71875l0 6.0625l-2.375 0l0 -9.015625l2.375 0l0 1.1875q0.3125 -0.515625 1.171875 -0.953125q0.875 -0.453125 1.78125 -0.453125q1.953125 0 2.5 1.640625q0.421875 -0.6875 1.28125 -1.15625q0.859375 -0.484375 1.8125 -0.484375q2.640625 0 2.640625 2.71875l0 6.515625l-2.390625 0zm7.098236 -2.890625q0.296875 0.421875 0.875 0.71875q0.578125 0.28125 1.15625 0.28125q1.046875 0 1.671875 -0.71875q0.625 -0.71875 0.625 -1.890625q0 -1.171875 -0.625 -1.890625q-0.625 -0.734375 -1.671875 -0.734375q-0.578125 0 -1.15625 0.296875q-0.578125 0.296875 -0.875 0.75l0 3.1875zm-2.375 2.890625l0 -12.4375l2.375 0l0 4.578125q1.078125 -1.375 2.78125 -1.375q1.78125 0 2.875 1.3125q1.109375 1.296875 1.109375 3.421875q0 2.15625 -1.109375 3.4375q-1.09375 1.28125 -2.875 1.28125q-1.65625 0 -2.78125 -1.375l0 1.15625l-2.375 0zm15.166962 0.21875q-2.125 0 -3.46875 -1.3125q-1.34375 -1.3125 -1.34375 -3.421875q0 -2.015625 1.328125 -3.359375q1.34375 -1.359375 3.34375 -1.359375q1.984375 0 3.25 1.375q1.265625 1.359375 1.265625 3.59375l0 0.515625l-6.703125 0q0.109375 0.859375 0.765625 1.484375q0.671875 0.609375 1.828125 0.609375q0.5625 0 1.25 -0.234375q0.6875 -0.234375 1.15625 -0.671875l1.046875 1.53125q-0.671875 0.625 -1.671875 0.9375q-0.984375 0.3125 -2.046875 0.3125zm2.078125 -5.578125q-0.0625 -0.890625 -0.6875 -1.4375q-0.609375 -0.546875 -1.53125 -0.546875q-0.9375 0 -1.53125 0.5625q-0.59375 0.5625 -0.6875 1.421875l4.4375 0zm10.20752 5.359375l0 -1.15625q-1.125 1.375 -2.78125 1.375q-1.796875 0 -2.90625 -1.28125q-1.09375 -1.28125 -1.09375 -3.4375q0 -2.125 1.09375 -3.421875q1.109375 -1.3125 2.90625 -1.3125q1.6875 0 2.78125 1.375l0 -4.578125l2.375 0l0 12.4375l-2.375 0zm-2.0625 -1.890625q0.59375 0 1.171875 -0.28125q0.59375 -0.296875 0.890625 -0.734375l0 -3.1875q-0.296875 -0.453125 -0.890625 -0.734375q-0.578125 -0.296875 -1.171875 -0.296875q-1.0 0 -1.640625 0.734375q-0.625 0.71875 -0.625 1.890625q0 1.140625 0.609375 1.875q0.609375 0.734375 1.65625 0.734375zm12.995087 1.890625l0 -1.15625q-1.125 1.375 -2.78125 1.375q-1.796875 0 -2.90625 -1.28125q-1.09375 -1.28125 -1.09375 -3.4375q0 -2.125 1.09375 -3.421875q1.109375 -1.3125 2.90625 -1.3125q1.6875 0 2.78125 1.375l0 -4.578125l2.375 0l0 12.4375l-2.375 0zm-2.0625 -1.890625q0.59375 0 1.171875 -0.28125q0.59375 -0.296875 0.890625 -0.734375l0 -3.1875q-0.296875 -0.453125 -0.890625 -0.734375q-0.578125 -0.296875 -1.171875 -0.296875q-1.0 0 -1.640625 0.734375q-0.625 0.71875 -0.625 1.890625q0 1.140625 0.609375 1.875q0.609375 0.734375 1.65625 0.734375zm7.963806 -8.09375q-0.578125 0 -1.0 -0.40625q-0.40625 -0.40625 -0.40625 -1.015625q0 -0.59375 0.40625 -0.984375q0.421875 -0.40625 1.0 -0.40625q0.609375 0 1.015625 0.40625q0.40625 0.390625 0.40625 0.984375q0 0.609375 -0.40625 1.015625q-0.40625 0.40625 -1.015625 0.40625zm-1.171875 9.984375l0 -9.015625l2.375 0l0 9.015625l-2.375 0zm10.798157 0l0 -5.453125q0 -1.671875 -1.65625 -1.671875q-1.28125 0 -2.046875 1.0625l0 6.0625l-2.375 0l0 -9.015625l2.375 0l0 1.1875q0.421875 -0.53125 1.21875 -0.96875q0.8125 -0.4375 1.9375 -0.4375q1.484375 0 2.203125 0.78125q0.71875 0.765625 0.71875 2.09375l0 6.359375l-2.375 0zm8.426971 3.65625q-1.1875 0 -2.109375 -0.296875q-0.921875 -0.296875 -1.78125 -1.046875l1.0625 -1.71875q1.015625 1.125 2.828125 1.125q1.171875 0 1.8125 -0.609375q0.65625 -0.59375 0.65625 -1.671875l0 -0.90625q-1.125 1.40625 -2.765625 1.40625q-1.8125 0 -2.90625 -1.234375q-1.078125 -1.234375 -1.078125 -3.34375q0 -2.09375 1.078125 -3.34375q1.078125 -1.25 2.90625 -1.25q1.6875 0 2.765625 1.375l0 -1.15625l2.390625 0l0 8.40625q0 2.046875 -1.265625 3.15625q-1.265625 1.109375 -3.59375 1.109375zm0.4375 -5.828125q0.59375 0 1.15625 -0.296875q0.578125 -0.296875 0.875 -0.71875l0 -2.90625q-0.296875 -0.453125 -0.875 -0.734375q-0.5625 -0.296875 -1.15625 -0.296875q-1.0 0 -1.640625 0.65625q-0.625 0.640625 -0.625 1.828125q0 1.171875 0.625 1.828125q0.640625 0.640625 1.640625 0.640625zm10.023285 2.390625q-1.171875 0 -2.25 -0.359375q-1.078125 -0.375 -1.78125 -1.03125l1.03125 -1.65625q0.53125 0.5 1.421875 0.859375q0.90625 0.359375 1.6875 0.359375q1.515625 0 1.515625 -0.96875q0 -0.375 -0.40625 -0.5625q-0.390625 -0.1875 -0.96875 -0.3125l-1.296875 -0.265625q-2.6875 -0.578125 -2.6875 -2.6875q0 -1.25 1.03125 -2.03125q1.046875 -0.796875 2.671875 -0.796875q2.109375 0 3.625 1.234375l-0.9375 1.625q-0.421875 -0.4375 -1.125 -0.734375q-0.703125 -0.3125 -1.546875 -0.3125q-0.65625 0 -1.046875 0.265625q-0.375 0.25 -0.375 0.625q0 0.34375 0.390625 0.515625q0.390625 0.15625 0.984375 0.28125q0.609375 0.125 1.296875 0.28125q0.6875 0.15625 1.28125 0.46875q0.59375 0.3125 0.984375 0.859375q0.40625 0.546875 0.40625 1.453125q0 1.3125 -1.078125 2.109375q-1.0625 0.78125 -2.828125 0.78125z" fill-rule="nonzero"/><path fill="#000000" fill-opacity="0.0" d="m299.94235 418.38654l111.968506 0l0 42.015747l-111.968506 0z" fill-rule="evenodd"/><path fill="#76a5af" d="m309.69235 449.6613l0 -16.203125l3.46875 0l0 1.03125l-2.390625 0l0 14.140625l2.390625 0l0 1.03125l-3.46875 0zm6.580353 -5.984375q0.375 0.59375 1.109375 1.0q0.734375 0.40625 1.578125 0.40625q1.328125 0 2.109375 -0.953125q0.796875 -0.96875 0.796875 -2.515625q0 -1.5625 -0.78125 -2.515625q-0.78125 -0.96875 -2.125 -0.96875q-0.84375 0 -1.578125 0.4375q-0.734375 0.421875 -1.109375 1.015625l0 4.09375zm-1.390625 2.4375l0 -12.4375l1.390625 0l0 4.78125q1.15625 -1.578125 3.046875 -1.578125q1.78125 0 2.890625 1.3125q1.109375 1.296875 1.109375 3.421875q0 2.171875 -1.109375 3.453125q-1.109375 1.265625 -2.890625 1.265625q-0.953125 0 -1.75 -0.4375q-0.796875 -0.4375 -1.296875 -1.125l0 1.34375l-1.390625 0zm12.47168 -0.453125q0 0.859375 -0.4375 1.609375q-0.4375 0.75 -1.09375 1.21875l-0.6875 -0.578125q0.453125 -0.296875 0.796875 -0.796875q0.359375 -0.484375 0.421875 -0.9375l-0.265625 0.03125q-0.390625 0 -0.640625 -0.25q-0.25 -0.265625 -0.25 -0.703125q0 -0.40625 0.265625 -0.703125q0.28125 -0.296875 0.71875 -0.296875q0.46875 0 0.8125 0.375q0.359375 0.359375 0.359375 1.03125zm10.072998 0.671875q-2.296875 0 -3.640625 -1.40625l0.734375 -1.015625q0.453125 0.53125 1.234375 0.90625q0.796875 0.375 1.734375 0.375q1.046875 0 1.578125 -0.4375q0.546875 -0.4375 0.546875 -1.109375q0 -0.59375 -0.59375 -0.9375q-0.578125 -0.34375 -2.1875 -0.71875q-1.359375 -0.28125 -2.078125 -0.875q-0.71875 -0.609375 -0.71875 -1.640625q0 -1.140625 0.90625 -1.859375q0.921875 -0.734375 2.453125 -0.734375q2.03125 0 3.34375 1.3125l-0.65625 0.96875q-0.40625 -0.484375 -1.109375 -0.8125q-0.703125 -0.328125 -1.578125 -0.328125q-0.9375 0 -1.46875 0.40625q-0.53125 0.40625 -0.53125 1.015625q0 0.53125 0.59375 0.859375q0.609375 0.3125 2.203125 0.640625q1.359375 0.328125 2.0625 0.96875q0.71875 0.640625 0.71875 1.703125q0 1.25 -0.96875 1.984375q-0.96875 0.734375 -2.578125 0.734375zm7.7063904 -0.671875q0 0.859375 -0.4375 1.609375q-0.4375 0.75 -1.09375 1.21875l-0.6875 -0.578125q0.453125 -0.296875 0.796875 -0.796875q0.359375 -0.484375 0.421875 -0.9375l-0.265625 0.03125q-0.390625 0 -0.640625 -0.25q-0.25 -0.265625 -0.25 -0.703125q0 -0.40625 0.265625 -0.703125q0.28125 -0.296875 0.71875 -0.296875q0.46875 0 0.8125 0.375q0.359375 0.359375 0.359375 1.03125zm6.822998 0.453125l0 -1.234375q3.296875 -2.59375 4.515625 -3.765625q1.234375 -1.1875 1.8125 -2.125q0.578125 -0.953125 0.578125 -1.84375q0 -1.03125 -0.703125 -1.65625q-0.703125 -0.625 -1.890625 -0.625q-2.171875 0 -3.375 1.5625l-0.953125 -0.984375q0.71875 -0.953125 1.859375 -1.453125q1.15625 -0.5 2.46875 -0.5q1.8125 0 3.0 1.0q1.1875 0.984375 1.1875 2.65625q0 1.5 -1.28125 3.171875q-1.28125 1.671875 -4.765625 4.421875l6.09375 0l0 1.375l-8.546875 0zm10.282379 3.546875l0 -1.03125l2.390625 0l0 -14.140625l-2.390625 0l0 -1.03125l3.46875 0l0 16.203125l-3.46875 0z" fill-rule="nonzero"/><path fill="#000000" fill-opacity="0.0" d="m149.62204 387.9685l0 43.212585" fill-rule="evenodd"/><path stroke="#666666" stroke-width="2.0" stroke-linejoin="round" stroke-linecap="butt" d="m149.62204 399.9685l0 31.212585" fill-rule="evenodd"/><path fill="#666666" stroke="#666666" stroke-width="2.0" stroke-linecap="butt" d="m152.9255 399.9685l-3.3034668 -9.076202l-3.3034515 9.076202z" fill-rule="evenodd"/><path fill="#000000" fill-opacity="0.0" d="m135.6378 310.49606l0 0c0 -7.723297 6.260956 -13.984253 13.984238 -13.984253l0 0c3.7088623 0 7.265808 1.4733276 9.888367 4.095886c2.6225586 2.6225586 4.095886 6.1795044 4.095886 9.888367l0 0c0 7.723297 -6.260956 13.984253 -13.984253 13.984253l0 0c-7.723282 0 -13.984238 -6.260956 -13.984238 -13.984253z" fill-rule="evenodd"/><path stroke="#666666" stroke-width="2.0" stroke-linejoin="round" stroke-linecap="butt" d="m135.6378 310.49606l0 0c0 -7.723297 6.260956 -13.984253 13.984238 -13.984253l0 0c3.7088623 0 7.265808 1.4733276 9.888367 4.095886c2.6225586 2.6225586 4.095886 6.1795044 4.095886 9.888367l0 0c0 7.723297 -6.260956 13.984253 -13.984253 13.984253l0 0c-7.723282 0 -13.984238 -6.260956 -13.984238 -13.984253z" fill-rule="evenodd"/><path fill="#000000" fill-opacity="0.0" d="m149.62204 324.48032l0 35.527557" fill-rule="evenodd"/><path stroke="#666666" stroke-width="2.0" stroke-linejoin="round" stroke-linecap="butt" d="m149.62204 336.48032l0 23.527557" fill-rule="evenodd"/><path fill="#666666" stroke="#666666" stroke-width="2.0" stroke-linecap="butt" d="m152.9255 336.48032l-3.3034668 -9.076202l-3.3034515 9.076202z" fill-rule="evenodd"/><path fill="#000000" fill-opacity="0.0" d="m314.46194 351.07086l0 -40.566925l-150.86615 0" fill-rule="evenodd"/><path stroke="#666666" stroke-width="2.0" stroke-linejoin="round" stroke-linecap="butt" d="m314.46194 351.07086l0 -40.566925l-138.86615 0" fill-rule="evenodd"/><path fill="#666666" stroke="#666666" stroke-width="2.0" stroke-linecap="butt" d="m175.5958 307.20047l-9.076187 3.3034668l9.076187 3.3034668z" fill-rule="evenodd"/><path fill="#000000" fill-opacity="0.0" d="m11.149607 247.18898l30.771654 0l0 22.771652l-30.771654 0z" fill-rule="evenodd"/><path stroke="#666666" stroke-width="2.0" stroke-linejoin="round" stroke-linecap="butt" d="m11.149607 247.18898l30.771654 0l0 22.771652l-30.771654 0z" fill-rule="evenodd"/><path fill="#000000" fill-opacity="0.0" d="m41.92126 247.18898l30.771656 0l0 22.771652l-30.771656 0z" fill-rule="evenodd"/><path stroke="#666666" stroke-width="2.0" stroke-linejoin="round" stroke-linecap="butt" d="m41.92126 247.18898l30.771656 0l0 22.771652l-30.771656 0z" fill-rule="evenodd"/><path fill="#000000" fill-opacity="0.0" d="m72.69292 247.18898l30.771652 0l0 22.771652l-30.771652 0z" fill-rule="evenodd"/><path stroke="#666666" stroke-width="2.0" stroke-linejoin="round" stroke-linecap="butt" d="m72.69292 247.18898l30.771652 0l0 22.771652l-30.771652 0z" fill-rule="evenodd"/><path fill="#000000" fill-opacity="0.0" d="m103.46457 247.18898l30.771652 0l0 22.771652l-30.771652 0z" fill-rule="evenodd"/><path stroke="#666666" stroke-width="2.0" stroke-linejoin="round" stroke-linecap="butt" d="m103.46457 247.18898l30.771652 0l0 22.771652l-30.771652 0z" fill-rule="evenodd"/><path fill="#000000" fill-opacity="0.0" d="m134.23622 247.18898l30.771652 0l0 22.771652l-30.771652 0z" fill-rule="evenodd"/><path stroke="#666666" stroke-width="2.0" stroke-linejoin="round" stroke-linecap="butt" d="m134.23622 247.18898l30.771652 0l0 22.771652l-30.771652 0z" fill-rule="evenodd"/><path fill="#000000" fill-opacity="0.0" d="m165.00787 247.18898l30.771652 0l0 22.771652l-30.771652 0z" fill-rule="evenodd"/><path stroke="#666666" stroke-width="2.0" stroke-linejoin="round" stroke-linecap="butt" d="m165.00787 247.18898l30.771652 0l0 22.771652l-30.771652 0z" fill-rule="evenodd"/><path fill="#000000" fill-opacity="0.0" d="m195.77953 247.18898l30.771652 0l0 22.771652l-30.771652 0z" fill-rule="evenodd"/><path stroke="#666666" stroke-width="2.0" stroke-linejoin="round" stroke-linecap="butt" d="m195.77953 247.18898l30.771652 0l0 22.771652l-30.771652 0z" fill-rule="evenodd"/><path fill="#000000" fill-opacity="0.0" d="m226.55118 247.18898l30.771667 0l0 22.771652l-30.771667 0z" fill-rule="evenodd"/><path stroke="#666666" stroke-width="2.0" stroke-linejoin="round" stroke-linecap="butt" d="m226.55118 247.18898l30.771667 0l0 22.771652l-30.771667 0z" fill-rule="evenodd"/><path fill="#000000" fill-opacity="0.0" d="m257.32285 247.18898l30.771637 0l0 22.771652l-30.771637 0z" fill-rule="evenodd"/><path stroke="#666666" stroke-width="2.0" stroke-linejoin="round" stroke-linecap="butt" d="m257.32285 247.18898l30.771637 0l0 22.771652l-30.771637 0z" fill-rule="evenodd"/><path fill="#000000" fill-opacity="0.0" d="m149.62204 269.96063l0 26.551178" fill-rule="evenodd"/><path stroke="#666666" stroke-width="2.0" stroke-linejoin="round" stroke-linecap="butt" d="m149.62204 281.96063l0 14.551178" fill-rule="evenodd"/><path fill="#666666" stroke="#666666" stroke-width="2.0" stroke-linecap="butt" d="m152.9255 281.96063l-3.3034668 -9.076202l-3.3034515 9.076202z" fill-rule="evenodd"/><path fill="#000000" fill-opacity="0.0" d="m299.94235 235.02261l111.968506 0l0 42.015747l-111.968506 0z" fill-rule="evenodd"/><path fill="#76a5af" d="m309.69235 266.29736l0 -16.203125l3.46875 0l0 1.03125l-2.390625 0l0 14.140625l2.390625 0l0 1.03125l-3.46875 0zm6.580353 -5.984375q0.375 0.59375 1.109375 1.0q0.734375 0.40625 1.578125 0.40625q1.328125 0 2.109375 -0.953125q0.796875 -0.96875 0.796875 -2.515625q0 -1.5625 -0.78125 -2.515625q-0.78125 -0.96875 -2.125 -0.96875q-0.84375 0 -1.578125 0.4375q-0.734375 0.421875 -1.109375 1.015625l0 4.09375zm-1.390625 2.4375l0 -12.4375l1.390625 0l0 4.78125q1.15625 -1.578125 3.046875 -1.578125q1.78125 0 2.890625 1.3125q1.109375 1.296875 1.109375 3.421875q0 2.171875 -1.109375 3.453125q-1.109375 1.265625 -2.890625 1.265625q-0.953125 0 -1.75 -0.4375q-0.796875 -0.4375 -1.296875 -1.125l0 1.34375l-1.390625 0zm12.47168 -0.453125q0 0.859375 -0.4375 1.609375q-0.4375 0.75 -1.09375 1.21875l-0.6875 -0.578125q0.453125 -0.296875 0.796875 -0.796875q0.359375 -0.484375 0.421875 -0.9375l-0.265625 0.03125q-0.390625 0 -0.640625 -0.25q-0.25 -0.265625 -0.25 -0.703125q0 -0.40625 0.265625 -0.703125q0.28125 -0.296875 0.71875 -0.296875q0.46875 0 0.8125 0.375q0.359375 0.359375 0.359375 1.03125zm10.072998 0.671875q-2.296875 0 -3.640625 -1.40625l0.734375 -1.015625q0.453125 0.53125 1.234375 0.90625q0.796875 0.375 1.734375 0.375q1.046875 0 1.578125 -0.4375q0.546875 -0.4375 0.546875 -1.109375q0 -0.59375 -0.59375 -0.9375q-0.578125 -0.34375 -2.1875 -0.71875q-1.359375 -0.28125 -2.078125 -0.875q-0.71875 -0.609375 -0.71875 -1.640625q0 -1.140625 0.90625 -1.859375q0.921875 -0.734375 2.453125 -0.734375q2.03125 0 3.34375 1.3125l-0.65625 0.96875q-0.40625 -0.484375 -1.109375 -0.8125q-0.703125 -0.328125 -1.578125 -0.328125q-0.9375 0 -1.46875 0.40625q-0.53125 0.40625 -0.53125 1.015625q0 0.53125 0.59375 0.859375q0.609375 0.3125 2.203125 0.640625q1.359375 0.328125 2.0625 0.96875q0.71875 0.640625 0.71875 1.703125q0 1.25 -0.96875 1.984375q-0.96875 0.734375 -2.578125 0.734375zm7.7063904 -0.671875q0 0.859375 -0.4375 1.609375q-0.4375 0.75 -1.09375 1.21875l-0.6875 -0.578125q0.453125 -0.296875 0.796875 -0.796875q0.359375 -0.484375 0.421875 -0.9375l-0.265625 0.03125q-0.390625 0 -0.640625 -0.25q-0.25 -0.265625 -0.25 -0.703125q0 -0.40625 0.265625 -0.703125q0.28125 -0.296875 0.71875 -0.296875q0.46875 0 0.8125 0.375q0.359375 0.359375 0.359375 1.03125zm13.744873 0.453125l0 -1.34375q-0.5 0.6875 -1.296875 1.125q-0.78125 0.4375 -1.734375 0.4375q-1.8125 0 -2.921875 -1.28125q-1.09375 -1.28125 -1.09375 -3.4375q0 -2.15625 1.109375 -3.4375q1.109375 -1.296875 2.90625 -1.296875q0.90625 0 1.703125 0.421875q0.796875 0.421875 1.328125 1.15625l0 -4.78125l1.40625 0l0 12.4375l-1.40625 0zm-2.703125 -1.03125q0.84375 0 1.59375 -0.40625q0.75 -0.40625 1.109375 -1.0l0 -4.09375q-0.359375 -0.59375 -1.109375 -1.015625q-0.75 -0.4375 -1.59375 -0.4375q-1.296875 0 -2.09375 0.953125q-0.796875 0.953125 -0.796875 2.53125q0 1.546875 0.78125 2.515625q0.796875 0.953125 2.109375 0.953125zm5.821106 4.578125l0 -1.03125l2.390625 0l0 -14.140625l-2.390625 0l0 -1.03125l3.46875 0l0 16.203125l-3.46875 0z" fill-rule="nonzero"/><path fill="#000000" fill-opacity="0.0" d="m11.149607 79.18898l30.771654 0l0 22.771652l-30.771654 0z" fill-rule="evenodd"/><path stroke="#666666" stroke-width="2.0" stroke-linejoin="round" stroke-linecap="butt" d="m11.149607 79.18898l30.771654 0l0 22.771652l-30.771654 0z" fill-rule="evenodd"/><path fill="#000000" fill-opacity="0.0" d="m41.92126 79.18898l30.771656 0l0 22.771652l-30.771656 0z" fill-rule="evenodd"/><path stroke="#666666" stroke-width="2.0" stroke-linejoin="round" stroke-linecap="butt" d="m41.92126 79.18898l30.771656 0l0 22.771652l-30.771656 0z" fill-rule="evenodd"/><path fill="#000000" fill-opacity="0.0" d="m72.69292 79.18898l30.771652 0l0 22.771652l-30.771652 0z" fill-rule="evenodd"/><path stroke="#666666" stroke-width="2.0" stroke-linejoin="round" stroke-linecap="butt" d="m72.69292 79.18898l30.771652 0l0 22.771652l-30.771652 0z" fill-rule="evenodd"/><path fill="#000000" fill-opacity="0.0" d="m103.46457 79.18898l30.771652 0l0 22.771652l-30.771652 0z" fill-rule="evenodd"/><path stroke="#666666" stroke-width="2.0" stroke-linejoin="round" stroke-linecap="butt" d="m103.46457 79.18898l30.771652 0l0 22.771652l-30.771652 0z" fill-rule="evenodd"/><path fill="#000000" fill-opacity="0.0" d="m134.23622 79.18898l30.771652 0l0 22.771652l-30.771652 0z" fill-rule="evenodd"/><path stroke="#666666" stroke-width="2.0" stroke-linejoin="round" stroke-linecap="butt" d="m134.23622 79.18898l30.771652 0l0 22.771652l-30.771652 0z" fill-rule="evenodd"/><path fill="#000000" fill-opacity="0.0" d="m165.00787 79.18898l30.771652 0l0 22.771652l-30.771652 0z" fill-rule="evenodd"/><path stroke="#666666" stroke-width="2.0" stroke-linejoin="round" stroke-linecap="butt" d="m165.00787 79.18898l30.771652 0l0 22.771652l-30.771652 0z" fill-rule="evenodd"/><path fill="#000000" fill-opacity="0.0" d="m195.77953 79.18898l30.771652 0l0 22.771652l-30.771652 0z" fill-rule="evenodd"/><path stroke="#666666" stroke-width="2.0" stroke-linejoin="round" stroke-linecap="butt" d="m195.77953 79.18898l30.771652 0l0 22.771652l-30.771652 0z" fill-rule="evenodd"/><path fill="#000000" fill-opacity="0.0" d="m226.55118 79.18898l30.771667 0l0 22.771652l-30.771667 0z" fill-rule="evenodd"/><path stroke="#666666" stroke-width="2.0" stroke-linejoin="round" stroke-linecap="butt" d="m226.55118 79.18898l30.771667 0l0 22.771652l-30.771667 0z" fill-rule="evenodd"/><path fill="#000000" fill-opacity="0.0" d="m257.32285 79.18898l30.771637 0l0 22.771652l-30.771637 0z" fill-rule="evenodd"/><path stroke="#666666" stroke-width="2.0" stroke-linejoin="round" stroke-linecap="butt" d="m257.32285 79.18898l30.771637 0l0 22.771652l-30.771637 0z" fill-rule="evenodd"/><path fill="#000000" fill-opacity="0.0" d="m149.62204 101.96063l0 31.055115" fill-rule="evenodd"/><path stroke="#666666" stroke-width="2.0" stroke-linejoin="round" stroke-linecap="butt" d="m149.62204 113.96063l0 19.055115" fill-rule="evenodd"/><path fill="#666666" stroke="#666666" stroke-width="2.0" stroke-linecap="butt" d="m152.9255 113.96063l-3.3034668 -9.076195l-3.3034515 9.076195z" fill-rule="evenodd"/><path fill="#000000" fill-opacity="0.0" d="m299.94235 67.02261l111.968506 0l0 42.015747l-111.968506 0z" fill-rule="evenodd"/><path fill="#76a5af" d="m309.69235 98.29736l0 -16.203125l3.46875 0l0 1.03125l-2.390625 0l0 14.140625l2.390625 0l0 1.03125l-3.46875 0zm6.580353 -5.984375q0.375 0.59375 1.109375 1.0q0.734375 0.40625 1.578125 0.40625q1.328125 0 2.109375 -0.953125q0.796875 -0.96875 0.796875 -2.515625q0 -1.5625 -0.78125 -2.515625q-0.78125 -0.96875 -2.125 -0.96875q-0.84375 0 -1.578125 0.4375q-0.734375 0.421875 -1.109375 1.015625l0 4.09375zm-1.390625 2.4375l0 -12.4375l1.390625 0l0 4.78125q1.15625 -1.578125 3.046875 -1.578125q1.78125 0 2.890625 1.3125q1.109375 1.296875 1.109375 3.421875q0 2.171875 -1.109375 3.453125q-1.109375 1.265625 -2.890625 1.265625q-0.953125 0 -1.75 -0.4375q-0.796875 -0.4375 -1.296875 -1.125l0 1.34375l-1.390625 0zm12.47168 -0.453125q0 0.859375 -0.4375 1.609375q-0.4375 0.75 -1.09375 1.21875l-0.6875 -0.578125q0.453125 -0.296875 0.796875 -0.796875q0.359375 -0.484375 0.421875 -0.9375l-0.265625 0.03125q-0.390625 0 -0.640625 -0.25q-0.25 -0.265625 -0.25 -0.703125q0 -0.40625 0.265625 -0.703125q0.28125 -0.296875 0.71875 -0.296875q0.46875 0 0.8125 0.375q0.359375 0.359375 0.359375 1.03125zm10.072998 0.671875q-2.296875 0 -3.640625 -1.40625l0.734375 -1.015625q0.453125 0.53125 1.234375 0.90625q0.796875 0.375 1.734375 0.375q1.046875 0 1.578125 -0.4375q0.546875 -0.4375 0.546875 -1.109375q0 -0.59375 -0.59375 -0.9375q-0.578125 -0.34375 -2.1875 -0.71875q-1.359375 -0.28125 -2.078125 -0.875q-0.71875 -0.609375 -0.71875 -1.640625q0 -1.140625 0.90625 -1.859375q0.921875 -0.734375 2.453125 -0.734375q2.03125 0 3.34375 1.3125l-0.65625 0.96875q-0.40625 -0.484375 -1.109375 -0.8125q-0.703125 -0.328125 -1.578125 -0.328125q-0.9375 0 -1.46875 0.40625q-0.53125 0.40625 -0.53125 1.015625q0 0.53125 0.59375 0.859375q0.609375 0.3125 2.203125 0.640625q1.359375 0.328125 2.0625 0.96875q0.71875 0.640625 0.71875 1.703125q0 1.25 -0.96875 1.984375q-0.96875 0.734375 -2.578125 0.734375zm7.7063904 -0.671875q0 0.859375 -0.4375 1.609375q-0.4375 0.75 -1.09375 1.21875l-0.6875 -0.578125q0.453125 -0.296875 0.796875 -0.796875q0.359375 -0.484375 0.421875 -0.9375l-0.265625 0.03125q-0.390625 0 -0.640625 -0.25q-0.25 -0.265625 -0.25 -0.703125q0 -0.40625 0.265625 -0.703125q0.28125 -0.296875 0.71875 -0.296875q0.46875 0 0.8125 0.375q0.359375 0.359375 0.359375 1.03125zm13.744873 0.453125l0 -1.34375q-0.5 0.6875 -1.296875 1.125q-0.78125 0.4375 -1.734375 0.4375q-1.8125 0 -2.921875 -1.28125q-1.09375 -1.28125 -1.09375 -3.4375q0 -2.15625 1.109375 -3.4375q1.109375 -1.296875 2.90625 -1.296875q0.90625 0 1.703125 0.421875q0.796875 0.421875 1.328125 1.15625l0 -4.78125l1.40625 0l0 12.4375l-1.40625 0zm-2.703125 -1.03125q0.84375 0 1.59375 -0.40625q0.75 -0.40625 1.109375 -1.0l0 -4.09375q-0.359375 -0.59375 -1.109375 -1.015625q-0.75 -0.4375 -1.59375 -0.4375q-1.296875 0 -2.09375 0.953125q-0.796875 0.953125 -0.796875 2.53125q0 1.546875 0.78125 2.515625q0.796875 0.953125 2.109375 0.953125zm5.821106 4.578125l0 -1.03125l2.390625 0l0 -14.140625l-2.390625 0l0 -1.03125l3.46875 0l0 16.203125l-3.46875 0z" fill-rule="nonzero"/><path fill="#000000" fill-opacity="0.0" d="m11.149607 7.1889763l30.771654 0l0 22.771654l-30.771654 0z" fill-rule="evenodd"/><path stroke="#666666" stroke-width="2.0" stroke-linejoin="round" stroke-linecap="butt" d="m11.149607 7.1889763l30.771654 0l0 22.771654l-30.771654 0z" fill-rule="evenodd"/><path fill="#000000" fill-opacity="0.0" d="m26.535433 29.96063l0 49.228348" fill-rule="evenodd"/><path stroke="#666666" stroke-width="2.0" stroke-linejoin="round" stroke-linecap="butt" d="m26.535433 41.96063l0 37.22835" fill-rule="evenodd"/><path fill="#666666" stroke="#666666" stroke-width="2.0" stroke-linecap="butt" d="m29.838898 41.96063l-3.303465 -9.076195l-3.303465 9.076195z" fill-rule="evenodd"/><path fill="#000000" fill-opacity="0.0" d="m51.942364 -4.9773846l111.968506 0l0 42.015747l-111.968506 0z" fill-rule="evenodd"/><path fill="#76a5af" d="m61.692364 26.297365l0 -16.203125l3.4687462 0l0 1.03125l-2.3906212 0l0 14.140625l2.3906212 0l0 1.03125l-3.4687462 0zm6.5803337 -5.984375q0.375 0.59375 1.109375 1.0q0.734375 0.40625 1.578125 0.40625q1.328125 0 2.109375 -0.953125q0.796875 -0.96875 0.796875 -2.515625q0 -1.5625 -0.78125 -2.515625q-0.78125 -0.96875 -2.125 -0.96875q-0.84375 0 -1.578125 0.4375q-0.734375 0.421875 -1.109375 1.015625l0 4.09375zm-1.390625 2.4375l0 -12.4375l1.390625 0l0 4.78125q1.15625 -1.578125 3.046875 -1.578125q1.78125 0 2.890625 1.3125q1.109375 1.296875 1.109375 3.421875q0 2.171875 -1.109375 3.453125q-1.109375 1.265625 -2.890625 1.265625q-0.953125 0 -1.75 -0.4375q-0.796875 -0.4375 -1.296875 -1.125l0 1.34375l-1.390625 0zm12.47168 -0.453125q0 0.859375 -0.4375 1.609375q-0.4375 0.75 -1.09375 1.21875l-0.6875 -0.578125q0.453125 -0.296875 0.796875 -0.796875q0.359375 -0.484375 0.421875 -0.9375l-0.265625 0.03125q-0.390625 0 -0.640625 -0.25q-0.25 -0.265625 -0.25 -0.703125q0 -0.40625 0.265625 -0.703125q0.28125 -0.296875 0.71875 -0.296875q0.46875 0 0.8125 0.375q0.359375 0.359375 0.359375 1.03125zm13.744873 0.453125l0 -1.34375q-0.5 0.6875 -1.296875 1.125q-0.78125 0.4375 -1.734375 0.4375q-1.8125 0 -2.921875 -1.28125q-1.09375 -1.28125 -1.09375 -3.4375q0 -2.15625 1.109375 -3.4375q1.109375 -1.296875 2.90625 -1.296875q0.90625 0 1.703125 0.421875q0.796875 0.421875 1.328125 1.15625l0 -4.78125l1.40625 0l0 12.4375l-1.40625 0zm-2.703125 -1.03125q0.84375 0 1.59375 -0.40625q0.75 -0.40625 1.109375 -1.0l0 -4.09375q-0.359375 -0.59375 -1.109375 -1.015625q-0.75 -0.4375 -1.59375 -0.4375q-1.296875 0 -2.09375 0.953125q-0.796875 0.953125 -0.796875 2.53125q0 1.546875 0.78125 2.515625q0.796875 0.953125 2.109375 0.953125zm5.8210907 4.578125l0 -1.03125l2.390625 0l0 -14.140625l-2.390625 0l0 -1.03125l3.46875 0l0 16.203125l-3.46875 0z" fill-rule="nonzero"/></g></svg>